<svg xmlns="http://www.w3.org/2000/svg" xmlns:xlink="http://www.w3.org/1999/xlink" width="78" height="24" viewBox="0 0 78 24">
    <defs>
        <path id="a" d="M0 .08h19.957v18.368H0z"></path>
        <path id="c" d="M.323.297h4.629v4.537H.322z"></path>
        <path id="e" d="M.21.297h4.63v4.537H.21z"></path>
        <path id="g" d="M.112.327h9.255v11.089H.112z"></path>
    </defs>
    <g fill="none" fill-rule="evenodd">
        <g transform="translate(0 .292)">
            <mask id="b" fill="#fff">
                <use xlink:href="#a"></use>
            </mask>
            <path fill="#33cc33" d="M13.74 7.447H6.214V5.692h.005l-.001-.048c0-2.037 1.684-3.688 3.762-3.688 2.077 0 3.762 1.651 3.762 3.688l-.001.048v1.755zm-1.24 3.537c0 .112 0 .206-.226.206h-1.178c-.129 0-.186.024-.186.151v3.978c0 .206-.12.262-.41.262H9.336c-.323 0-.412-.032-.412-.262v-3.978c0-.127-.056-.151-.185-.151H7.65c-.225 0-.225-.094-.225-.206v-.98c0-.19.145-.214.371-.214h4.333c.226 0 .371.024.371.214v.98zm5.908-3.537h-2.59V6.072c.004-.087.006-.174.006-.262 0-3.165-2.617-5.73-5.845-5.73-3.229 0-5.846 2.565-5.846 5.73l.003.054h-.003v1.583H1.55c-.862 0-1.707.413-1.524 1.384l1.916 8.412c.17.713.699 1.205 1.563 1.205h12.95c.863 0 1.394-.492 1.562-1.205l1.916-8.412c.183-.971-.661-1.384-1.524-1.384z" mask="url(#b)"></path>
        </g>
        <g transform="translate(3.414 18.886)">
            <mask id="d" fill="#fff">
                <use xlink:href="#c"></use>
            </mask>
            <path fill="#33cc33" d="M4.952 2.565c0 1.254-1.036 2.27-2.314 2.27-1.279 0-2.315-1.016-2.315-2.27C.323 1.312 1.359.297 2.638.297c1.278 0 2.314 1.015 2.314 2.268" mask="url(#d)"></path>
        </g>
        <g transform="translate(11.38 18.886)">
            <mask id="f" fill="#fff">
                <use xlink:href="#e"></use>
            </mask>
            <path fill="#33cc33" d="M4.84 2.565c0 1.254-1.036 2.27-2.313 2.27-1.28 0-2.317-1.016-2.317-2.27C.21 1.312 1.248.297 2.527.297c1.277 0 2.314 1.015 2.314 2.268" mask="url(#f)"></path>
        </g>
        <path fill="#13120d" d="M31.34 10.404h-2.238c-.245 0-.352.045-.352.286v7.558c0 .39-.23.495-.782.495H25.76c-.613 0-.782-.06-.782-.495V10.69c0-.241-.107-.286-.352-.286h-2.07c-.428 0-.428-.18-.428-.39V8.15c0-.36.276-.406.705-.406h8.23c.429 0 .705.046.705.406v1.863c0 .211 0 .391-.43.391M37.992 10.647c.122 0 .352 0 .352.255v1.741c0 .18-.092.345-.352.345-.414 0-1.086.02-1.438.155-.66.255-.877.58-.877 1.198v3.591c0 .39.016.811-.551.811h-2.054c-.583 0-.751-.315-.751-.705v-5.615c0-.94.397-1.764 2.315-1.764l3.356-.012zM41.577 18.759c-1.058 0-2.221-.482-2.221-2.405v-4.883c0-.421.168-.812.598-.812H42.1c.383 0 .751.256.751.632v3.906c0 .36.123.752.598.752.49 0 .644-.376.644-.721V11.47c0-.39-.015-.812.552-.812h2.053c.583 0 .751.316.751.707v4.964c0 2.117-1.324 2.428-1.905 2.428h-3.966zM52.246 18.954c-1.61 0-3.08-.315-3.418-.481-.153-.075-.29-2.209.17-2.104.336.075.903.27 2.175.27.674 0 1.058-.09 1.058-.405 0-.21-.368-.36-.828-.556-.996-.42-2.544-1.006-2.544-2.78 0-1.818 2.1-2.539 4.123-2.539 1.609 0 2.084.166 2.314.256.291.105-.016 1.998-.429 1.983-.276-.015-1.211-.18-1.717-.18-.52 0-.751.09-.751.345 0 .135.292.3.751.511 1.043.466 2.713 1.232 2.713 3.035 0 2.344-2.146 2.645-3.617 2.645M61.81 12.898h-.935v3.261c0 .285.23.406.567.406.077 0 .153 0 .23-.015.23-.03.46 2.043.306 2.118-.23.106-1.103.286-1.9.286-2.023 0-2.575-1.277-2.59-2.179-.016-.902 0-3.921 0-3.921h-.506c-.383 0-.46-.24-.46-.617v-.977c0-.42.138-.585.568-.585h.567V9.623c0-.376.383-.572.75-.631l1.763-.286c.598-.09.598.12.598.54v1.429h.965c.384 0 .49.36.49.736v.856c0 .421 0 .631-.413.631M66.255 18.743h-2.207c-.537 0-.598-.06-.598-.525V8c0-.225.153-.42.46-.42h2.192c.659 0 .705.195.705.525v9.947c0 .39.015.691-.552.691"></path>
        <g transform="translate(67.517 10.333)">
            <mask id="h" fill="#fff">
                <use xlink:href="#g"></use>
            </mask>
            <path fill="#13120d" d="M4.976 10.815c-.123.286-.415.6-.721.6H2.523c-.551 0-.628-.18-.475-.525l1.15-2.674L.163.853C.025.507.163.327.638.327h2.498c.307 0 .614.3.721.6L4.96 3.994 6.217.928c.123-.3.414-.601.72-.601h1.885c.553 0 .63.18.476.526l-4.322 9.962z" mask="url(#h)"></path>
        </g>
    </g>
</svg>