<svg xmlns="http://www.w3.org/2000/svg" viewBox="0 0 1600 1200"><style>.st0{fill:#e8e8e8}.st1{fill:#fff}.st2,.st3{fill:#161616}.st3{stroke:#161616;stroke-width:3;stroke-miterlimit:10}.st4{fill:#ec615b}.st6,.st7{opacity:.16;fill:#3d3d3d}.st7{opacity:.18}.st10{fill:#fff;stroke:#161616;stroke-width:3;stroke-miterlimit:10}.st11{opacity:9.000000e-002;fill:#3d3d3d}.st12{fill:#5222d0}.st14,.st18{opacity:.23;fill:#3d3d3d}.st18{opacity:.2}</style><g id="ground"><path class="st0" d="M428.6 860H1323c1.9 0 1.9-3 0-3H428.6c-1.9 0-1.9 3 0 3zM1039.9 878.6h303c1.9 0 1.9-3 0-3h-303c-1.9 0-1.9 3 0 3zM367.5 886.6h269.7c1.9 0 1.9-3 0-3H367.5c-2 0-2 3 0 3zM507 902.5h284.3c1.9 0 1.9-3 0-3H507c-1.9 0-1.9 3 0 3zM318.3 927.8h231.2c1.9 0 1.9-3 0-3H318.3c-1.9 0-1.9 3 0 3zM1311 933.1h199.3c1.9 0 1.9-3 0-3H1311c-1.9 0-1.9 3 0 3zM859.6 1021.8h305.5c1.9 0 1.9-3 0-3H859.6c-1.9 0-1.9 3 0 3zM1012.4 1043.1H1284c1.9 0 1.9-3 0-3H1012.4c-1.9 0-1.9 3 0 3z"/><path d="M419.3 875h357.1c3.9 0 3.9-6 0-6H419.3c-3.8 0-3.9 6 0 6zM932.9 870.2h308.2c3.9 0 3.9-6 0-6H932.9c-3.9 0-3.9 6 0 6zM401.9 1036.2H738.5c3.9 0 3.9-6 0-6H401.9c-3.8 0-3.8 6 0 6zM300.8 1037.7h74.3c3.9 0 3.9-6 0-6h-74.3c-3.9 0-3.9 6 0 6zM697.4 1058.3h83.8c3.9 0 3.9-6 0-6h-83.8c-3.8 0-3.8 6 0 6zM931.3 1047.2h56.9c3.9 0 3.9-6 0-6h-56.9c-3.8 0-3.8 6 0 6zM974 1067.8h276.6c3.9 0 3.9-6 0-6H974c-3.9 0-3.9 6 0 6zM1089.4 1044.1h224.4c3.9 0 3.9-6 0-6h-224.4c-3.9 0-3.9 6 0 6zM1346.9 1037.7h39.5c3.9 0 3.9-6 0-6h-39.5c-3.8 0-3.8 6 0 6zM1228.4 889.2h75.9c3.9 0 3.9-6 0-6h-75.9c-3.8 0-3.8 6 0 6z"/><path class="st0" d="M431.2 856.4c-10.6-21.5-16.6-44.9-17.8-68.9-.1-1.9-3.1-1.9-3 0 1.2 24.5 7.4 48.4 18.2 70.4.9 1.7 3.4.2 2.6-1.5z"/><path class="st0" d="M413.9 787.6c14.6 1.8 29.4 4.6 44.1 5 14.2.3 28.2-2.8 42-5.8 1.9-.4 1.1-3.3-.8-2.9-14.2 3.1-28.5 6.3-43.1 5.6-14.1-.6-28.2-3.2-42.1-4.9-2-.2-2 2.8-.1 3z"/><path class="st0" d="M497.9 786.2c-.5 23.8-5.5 47.2-14.5 69.3-.7 1.8 2.2 2.6 2.9.8 9.2-22.3 14.1-46 14.6-70.1.1-1.9-2.9-1.9-3 0zM430.1 786.5c-4.5-5.2-8.5-10.8-11.8-16.9-1.7-3.1-3.2-6.2-4.6-9.5-1.2-2.9-5.5-15.1 3.2-13.3 1 .2 2.3-.7 1.8-1.8-3.1-8.5-5-17.3-7-26.1-2.1-9.1-4.3-18.2-5.3-27.5-.5-4.3-.7-8.7-.5-13.1.1-3 .8-16.2 7.8-9.2 2.8 2.8 4.7 7.3 6.7 10.8 2.2 3.8 4.2 7.7 6.2 11.6 15.4 30.9 23.5 65.2 23.8 99.8 0 1.9 3 1.9 3 0-.3-31.3-6.8-62.3-19.4-91-3.2-7.2-6.7-14.3-10.6-21.1-2.6-4.5-5.8-12.7-11-14.8-12.3-4.9-9.6 22.1-9 27.1 1 8.9 2.9 17.6 4.9 26.4 2.2 9.4 4.1 19 7.4 28l1.8-1.8c-3.4-.7-6.6.7-8.2 3.9-2 3.9-.5 8.5 1 12.3 4.1 10.5 10.1 20 17.4 28.5 1.5 1.3 3.6-.8 2.4-2.3z"/><path class="st0" d="M447.7 745.9c-.5-3.8-1.2-25.6 6.6-24 1 .2 1.8-.4 1.9-1.4 1.7-14.3 3.4-28.9 9.2-42.2 1.5-3.5 3.3-7 5.5-10.1 1.9-2.7 5.5-3.8 7.6-.6.8 1.2 1.2 2.8 1.6 4.2 2 7.8 2.8 16 3.2 24 1.4 31.9-6.8 63.3-14.8 94-.5 1.9 2.4 2.7 2.9.8 9.7-36.9 19.7-75.7 12.8-114-.8-4.6-1.7-12.3-7-14.3-6.1-2.3-10 6-12.2 10.2-7.8 14.8-9.8 31.7-11.7 48 .6-.5 1.3-1 1.9-1.4-11.5-2.4-11.2 20.4-10.4 26.9.2 1.8 3.2 1.9 2.9-.1zM410.1 790.4c13.1 26.4 31.7 49.8 54.5 68.4 1.5 1.2 3.6-.9 2.1-2.1-22.7-18.5-41.1-41.6-54-67.8-.8-1.7-3.4-.2-2.6 1.5zM432.9 789.5c9.5 10.4 19.1 20.9 28.6 31.3 8 8.8 15.8 18.5 26.4 24.3 1.7.9 3.2-1.7 1.5-2.6-10.9-5.9-18.9-16.2-27.1-25.2-9.1-10-18.2-19.9-27.3-29.9-1.3-1.4-3.4.7-2.1 2.1zM462.7 792.3c8.8 12.2 19 23.1 30.6 32.7 1.5 1.2 3.6-.9 2.1-2.1-11.3-9.5-21.4-20.2-30.1-32.1-1.1-1.5-3.7 0-2.6 1.5zM486.8 788.7l11.1 12.6c1.3 1.5 3.4-.7 2.1-2.1l-11.1-12.6c-1.3-1.4-3.4.7-2.1 2.1z"/></g><g id="background"><path class="st0" d="M1205.7 316.9V341c0 1.9 3 1.9 3 0v-24.1c0-1.9-3-1.9-3 0z"/><path class="st0" d="M1207.2 318.4h211.5c1.9 0 1.9-3 0-3h-211.5c-1.9 0-1.9 3 0 3zM1207.6 342.6h211.5c1.9 0 1.9-3 0-3h-211.5c-1.9 0-1.9 3 0 3z"/><path class="st0" d="M1417.5 316.9V341c0 1.9 3 1.9 3 0v-24.1c0-1.9-3-1.9-3 0zM1214 267.9c2.9 17.7 6.6 36.2 20.5 48.8 1.4 1.3 3.6-.8 2.1-2.1-13.5-12.2-16.9-30.3-19.7-47.4-.3-2-3.2-1.1-2.9.7z"/><path class="st0" d="M1215.9 267.3c30.7 1.2 61.3 1 92-.6 1.9-.1 1.9-3.1 0-3-30.6 1.6-61.3 1.8-92 .6-1.9-.1-1.9 2.9 0 3z"/><path class="st0" d="M1307.5 266.2c3.4 18.3-3.4 37.2-17.5 49.2-1.5 1.3.7 3.4 2.1 2.1 14.9-12.8 21.9-32.9 18.2-52.2-.3-1.8-3.2-1-2.8.9zM1214 259.6c-1.5-1.8-2.6-3.8-3.1-6.1-.2-.7-1-6.2 0-6.9 2.4-1.5 7.1 6.7 7.8 7.9 3.4 6.1 6.3 12.6 9.3 18.9 6.6 13.7 13.1 27.5 19.5 41.3.8 1.8 3.4.2 2.6-1.5-9.3-20.1-18-40.9-28.8-60.1-1.6-2.9-7.5-12.3-11.9-9.3-2.3 1.6-2 6.5-1.7 8.7.5 3.6 2 6.6 4.3 9.4 1 1.4 3.2-.8 2-2.3z"/><path class="st0" d="M1209.2 256.7c10.1 21.5 22.8 41.6 37.8 60 1.2 1.5 3.3-.6 2.1-2.1-14.9-18.2-27.4-38.1-37.3-59.4-.8-1.7-3.4-.2-2.6 1.5zM1208.4 247.4c.2-.1.3-.2.5-.3 1.3-1 .6-3.2-1.2-2.7-2.1 1.2-3.5.6-4.1-1.7-1.6-1-2-2.1-1-3.2 0-.4.2-.8.2-1.3-.1-1.3-.6-1.7-1.6-2.6-1.1-1-1.6-.3-2.3-1.9-.8-1.8 0-1 0-2.5 0-1-.8-2.5-.8-3.1-.5-.5-.1-1 1.1-1.5 1-2 1.7-1.8 2 .5.3.7.5 1.4.9 2 .9 1.8 2.1 2.1 3.4 3.3 1.5 1.6 1.4 2.6 1.6 4.6.1.5 0 1 .2 1.4.6 1 3.3 1.9 2.1 3.6-1.2 1.5 1.4 3 2.6 1.5 1.9-2.5 1-4.3-.9-6.3-.3-.3-1.4-.3-1.5-.6.1.2.6-2.8.5-3.1-.2-1.4-.8-2.1-1.8-3-.7-.7-1.6-.9-2.4-1.6-1.3-1.2-1.6-2.4-2.3-3.8-.7-1.4-1.3-2.8-2.7-3.6-2.4-1.5-5-.4-6.2 2-.6 1.1-.9 2.7-.6 3.9.1.6.6 1.2.8 1.7.7 2.1.3 1.2.1 2.6-.4 2.7-.4 3.7 2 5.3.7.5 2.1.6 2.4 1.7-.2-.7-1.1 2.9-1.1 2.5-.2 1.2.2 2.4.8 3.4 2 3.3 6 3.3 9.4 2.4l-1.2-2.7c-.2.1-.3.2-.5.3-1.5 1.3 0 3.9 1.6 2.8z"/><path class="st0" d="M1219.6 248.8c-.4-1-1.9-4.5-1.3-5.4 1.5-.7 3-1.3 4.5-2 .7.8 1.3 1.6 1.8 2.6 1.6 2.6 2.7 5.6 3.9 8.4 2.9 6.8 5.5 13.7 8 20.6 4.5 13 8.2 26.3 11.1 39.7.4 1.9 3.3 1.1 2.9-.8-4.4-20.2-10.5-39.9-18.5-59-2.1-5-4.8-15.3-11.5-16.2-7-.9-5.2 9.2-3.7 12.9.6 1.7 3.5 1 2.8-.8z"/><path class="st0" d="M1216 236.5c-3.4-2.3-4.2-4.4-2.6-6.3.4-.4.7-.9.9-1.4.1-.3.2-.6.2-1-.2-2.3-4.3-2.7-1-6.1.5-.6.6-1.6 0-2.1-2.2-2.4-2.3-3.6-.3-3.5 1-.5 1.4-.1 1.2 1.2.4.6.3 1.5.7 2.2 1 1.9 3.8 2.8 4.1 5.1.3 1.8-1.2 3.6-.9 5.4.3 1.9 3.2 3.6 1.1 5.8-1.3 1.4.8 3.5 2.1 2.1s2.6-3 2.2-5.1c-.3-1.7-2.1-2.3-2.3-4.1-.3-2.1 1.3-3.7.5-6-.9-2.7-3.6-3.4-4.6-6.2-1-2.6-2.4-7-6.1-4.5-3.1 2.1-2.3 7.6.2 9.7v-2.1c-1.5 1.6-2.4 3.6-1.8 5.8.1.5 1.6 2.4 1.6 2.7 0 .8-1.4 2.3-1.6 3.3-1 4.3 2.3 9.9 7.2 8 1.7-.7 1-3.6-.8-2.9zM1262.5 314.1c-1.6-2.8 6.7-8 8.3-10.3 1.2-1.7 1.9-3.4 2.7-5.3 1.6-3.7 4.4-3.1 7.8-2.9 3.3.2 6.4-.8 8.6-3.3 1.1-1.2 1.8-2.6 2.7-4 3-4.5 7.3-3.5 11.5-1.5 1.7.8 3.3-1.7 1.5-2.6-4.6-2.2-10-4-13.9.2-2.5 2.7-3.3 6.7-7.3 7.9-3.1.9-6.2-1.1-9.3 0-2 .7-2.9 2-3.8 3.7-2.1 3.8-3 6.8-6.6 9.5-3.3 2.5-7.5 5.2-4.8 9.8 1 2 3.6.5 2.6-1.2z"/><path class="st0" d="M1277 313.9c4.7-.8 8.4-3.3 11.7-6.7 4.2-4.4 9-15.6 16.7-11.8 1.7.9 3.2-1.7 1.5-2.6-5.2-2.7-10.2-.2-13.8 4-5 5.8-8.5 12.8-16.8 14.3-2 .2-1.2 3.1.7 2.8zM1277.7 294.4c2-3.1 3.3-6.4 3.7-10.2.3-3.3-.6-5.7 2-8.6 1-1.1 2.3-1.8 3.3-3 4.1-5.1 1.8-12.9 6.5-17.5-.6.1-1.2.2-1.8.2 1.9 1.1 2.2 3.3 3.7 4.6 1.4 1.3 3.4 1.5 5.1 2.3 3.8 1.8 2.3 6.5 2.3 10.1 0 2.8 1.8 7.3-.5 9.3-1.5 1.3.7 3.4 2.1 2.1 2-1.8 2.2-3.9 1.9-6.4-.4-4.1.3-8.5-.4-12.5-.4-2.6-1.6-4.7-4-5.9-2.4-1.2-4.4-1.9-6.3-4-.8-.9-1.3-1.6-2.5-2.2-.6-.3-1.3-.2-1.8.2-5.2 5.1-2.5 13.3-7.4 18.4-2 2.1-4.3 3.2-5 6.3-.5 2.1-.2 4.3-.4 6.3-.3 3.3-1.4 6.1-3.2 8.9-.9 1.7 1.7 3.2 2.7 1.6zM1242.5 342.2c1.6 4.6 3.1 9.3 4.5 14 .2.6.8 1.1 1.4 1.1 6 0 12.1 0 18.1.2 1.9.1 1.9-2.9 0-3-6-.2-12.1-.3-18.1-.2.5.4 1 .7 1.4 1.1-1.3-4.7-2.8-9.4-4.5-14-.6-1.8-3.5-1-2.8.8z"/><path class="st0" d="M1269.7 341.5l-4.8 14.4c-.6 1.8 2.3 2.6 2.9.8l4.8-14.4c.6-1.9-2.3-2.7-2.9-.8zM1348.9 316.1c.1-2.5-1.5-6.4.6-8.3 2-1.7 6.7-1 9.1-1 6.9 0 13.8 0 20.7.1 6.6.1 13.1.2 19.7.4 2.9.1 7.3-.6 10 .4 3.7 1.3 2.5 5.2 3.3 8.2.5 1.9 3.4 1.1 2.9-.8-.8-2.7.6-6.1-1.4-8.5-1.5-1.8-3.8-1.9-5.9-2.1-10.1-.8-20.4-.5-30.6-.6-4.9-.1-9.9-.1-14.8-.1-3.7 0-7.7-.4-11.4.3-2 .4-4.2 1.2-5.3 3.1-1.7 2.8.2 5.9 0 8.9 0 1.9 3 1.9 3.1 0z"/><path class="st0" d="M1337.3 303.2c-.3-1.2-.9-3.6-.4-4.7 1.1-2.4 4.1-2.3 6.2-2.5 2.6-.2 5.2-.3 7.8-.3 5.9 0 11.7.4 17.6.4 5.5 0 10.8-.6 16.2-1.1 2.5-.2 5-.5 7.5-.3 3.4.2 3.7 2 4.4 5.1.4 1.5.4 3.3.6 4.9.2 1.9 3.3 1.9 3 0-.7-5.4.2-11.8-6.2-12.8-4.3-.7-8.8.2-13 .6-4.8.5-9.6.7-14.4.7-8.8-.1-18-1.2-26.7.2-5.9 1-6.7 5.4-5.4 10.7.3 1.8 3.2 1 2.8-.9z"/><path class="st0" d="M1335.6 306.1c5.4.8 10.7 1 16.2.5 1.9-.2 1.9-3.2 0-3-5.1.5-10.3.4-15.4-.4-1.9-.2-2.7 2.7-.8 2.9zM1353.2 342.8c1.6 4.3 3 8.7 4.3 13.1.2.7.8 1.1 1.4 1.1 5.7.2 13 1.7 18.5-.2 1.8-.6 1-3.5-.8-2.9-5 1.8-12.4.3-17.7.1.5.4 1 .7 1.4 1.1-1.3-4.4-2.7-8.8-4.3-13.1-.6-1.8-3.5-1.1-2.8.8z"/><path class="st0" d="M1379.3 342.3c-1.3 4.2-2.6 8.3-3.9 12.5-.6 1.8 2.3 2.6 2.9.8 1.3-4.2 2.6-8.3 3.9-12.5.6-1.8-2.3-2.6-2.9-.8zM1205.7 146.3v24.1c0 1.9 3 1.9 3 0v-24.1c0-2-3-2-3 0z"/><path class="st0" d="M1207.2 147.8h211.5c1.9 0 1.9-3 0-3h-211.5c-1.9 0-1.9 3 0 3zM1207.6 171.9h211.5c1.9 0 1.9-3 0-3h-211.5c-1.9 0-1.9 3 0 3z"/><path class="st0" d="M1417.6 146.3v24.1c0 1.9 3 1.9 3 0v-24.1c0-2-3-2-3 0zM1242.5 171.5c1.6 4.6 3.1 9.3 4.5 14 .2.6.8 1.1 1.4 1.1 6 0 12.1 0 18.1.2 1.9.1 1.9-2.9 0-3-6-.2-12.1-.3-18.1-.2.5.4 1 .7 1.4 1.1-1.3-4.7-2.8-9.4-4.5-14-.5-1.8-3.4-1-2.8.8z"/><path class="st0" d="M1269.8 170.8l-4.8 14.4c-.6 1.8 2.3 2.6 2.9.8l4.8-14.4c.6-1.9-2.3-2.7-2.9-.8zM1353.2 172.1c1.6 4.3 3 8.7 4.3 13.1.2.7.8 1.1 1.4 1.1 5.7.2 13 1.7 18.5-.2 1.8-.6 1-3.5-.8-2.9-5 1.8-12.4.3-17.7.1.5.4 1 .7 1.4 1.1-1.3-4.4-2.7-8.8-4.3-13.1-.5-1.8-3.4-1.1-2.8.8z"/><path class="st0" d="M1379.3 171.6c-1.3 4.2-2.6 8.3-3.9 12.5-.6 1.8 2.3 2.6 2.9.8 1.3-4.2 2.6-8.3 3.9-12.5.6-1.8-2.3-2.6-2.9-.8zM1213.7 62c-1.5 27.6-1.8 55.3-.8 83 .1 1.9 3.1 1.9 3 0-1-27.7-.7-55.3.8-83 .1-1.9-2.9-1.9-3 0z"/><path class="st0" d="M1216.5 60.5c2.1-3.9 4-7.9 5.6-12 .6-1.6 1.1-4.6 2.3-5.6 1.3-1 5-1.4 6.6-2.1 1.8-.7 1-3.6-.8-2.9-2.5 1-4.9 1.6-7.6 2-.5.1-.9.6-1 1-2.1 6.2-4.6 12.2-7.7 18-.9 1.8 1.7 3.3 2.6 1.6zM1241.8 71.1c-1.9 24.4-2.5 49-1.8 73.5.1 1.9 3.1 1.9 3 0-.7-24.5-.1-49 1.8-73.5.2-1.9-2.8-1.9-3 0zM1263.8 67.7c-.9 25.1-1.4 50.2-1.4 75.4 0 1.9 3 1.9 3 0 0-25.1.5-50.3 1.4-75.4 0-1.9-3-1.9-3 0z"/><path class="st0" d="M1231.4 39.3c.7-1.4 1.2-2.9 1.7-4.4-.5.4-1 .7-1.4 1.1 3.3-.1 7.5-1 10.7-.5 1.2-.4 2.1 0 2.6 1.3.1.9.3 1.7.4 2.6.3 1.7.6 3.5.9 5.2.3 1.9 3.2 1.1 2.9-.8-.5-2.9-.2-9.5-3.4-11-1.6-.8-3.9-.3-5.5-.2-2.9.1-5.8.3-8.7.4-.7 0-1.3.4-1.4 1.1-.4 1.3-.8 2.5-1.4 3.7-.8 1.7 1.7 3.2 2.6 1.5z"/><path class="st0" d="M1246.6 45.4c4 1.9 10.9 3.8 13.3 7.7 2.7 4.3 3.7 10.8 4.6 15.8.3 1.9 3.2 1.1 2.9-.8-.9-5.5-2.1-12.6-5.3-17.4-2.7-4-9.8-5.9-14-7.9-1.7-.8-3.3 1.8-1.5 2.6zM1213.8 96.7c9.3.7 18.7 1.2 28 1.4 1.9.1 1.9-2.9 0-3-9.4-.3-18.7-.7-28-1.4-2-.2-2 2.8 0 3zM1213.4 127c4.8 2 9.6 1.4 14.7 1.1 3.9-.2 8.5 1.3 12-.6 1.7-.9.2-3.5-1.5-2.6-1.7.9-5.3.1-7.2.1-1.6 0-3.3.2-4.9.3-4.2.3-8.2.6-12.2-1.1-1.9-.8-2.7 2.1-.9 2.8z"/><path class="st0" d="M1243.3 97.9c6.7-.5 13.4-.9 20.1-1.4 1.9-.1 1.9-3.1 0-3-6.7.5-13.4.9-20.1 1.4-1.9.2-1.9 3.2 0 3zM1241.4 128.1c7.3-.5 14.5-1.6 21.6-3.4 1.9-.5 1.1-3.4-.8-2.9-6.8 1.8-13.7 2.9-20.8 3.3-1.9.1-1.9 3.1 0 3zM1220.2 59.5c7.5 0 14.9.3 22.3.6 1.9.1 1.9-2.9 0-3-7.4-.4-14.9-.6-22.3-.6-1.9 0-1.9 3 0 3zM1252 59.7h10.6c1.9 0 1.9-3 0-3H1252c-1.9 0-1.9 3 0 3zM1325.7 144.2c-.6-1.5-.1-3.5 1.5-4.1 1.8-.7 3.6.7 4 2.5.4 1.9 3.3 1.1 2.9-.8-.7-3.3-4.3-5.7-7.7-4.6-3.1 1-4.8 4.8-3.6 7.8.7 1.8 3.6 1 2.9-.8z"/><path class="st0" d="M1332.7 137.3c-.5-1 .6-2.2 1.6-2.2 1.4 0 2.4 1.6 2.5 2.9.1 1.9 3.1 1.9 3 0-.2-3.1-2.8-6.4-6.2-5.8-3 .5-4.9 3.9-3.5 6.7.9 1.6 3.4.1 2.6-1.6z"/><path class="st0" d="M1338.8 142.2c-.8-2.9 3.4-4.4 4.5-1.5.7 1.8 3.6 1 2.9-.8-1-2.7-3.8-4.5-6.7-3.6-2.8.8-4.3 4-3.6 6.7.6 1.9 3.4 1.1 2.9-.8z"/><path class="st0" d="M1340.7 133.4c-.4-.2-.4-.8-.2-1.2.3-.7 1.2-.8 1.9-.7 1.7.3 2.8 1.9 3.7 3.3 1 1.6 3.6.1 2.6-1.5-1.8-2.9-5-6-8.8-4.4-2.9 1.3-3.5 5.3-.8 7.1 1.7 1.1 3.2-1.5 1.6-2.6z"/><path class="st0" d="M1347.4 139.9c-.3-1.2 1.7-1.4 2.4-1 1.2.6 1.8 2.1 2.3 3.3.7 1.8 3.6 1 2.9-.8-1-2.6-2.8-5.7-6-5.7-2.7 0-5.2 2.3-4.5 5.1.5 1.7 3.3.9 2.9-.9z"/><path class="st0" d="M1354.6 143.5c.5-2.6 3.6-2.5 4.1 0 .3 1.9 3.2 1.1 2.9-.8-.4-2.3-2.5-4.2-4.9-4.3-2.4 0-4.5 1.9-4.9 4.2-.4 2 2.5 2.8 2.8.9zM1349.1 133.1c-.1-1.7 2.2-1.8 3.3-1.1 1.4.9 2.2 2.7 2.9 4.2.8 1.7 3.4.2 2.6-1.5-1.3-2.7-3.2-5.9-6.5-6.2-2.6-.2-5.5 1.7-5.3 4.5.1 2 3.1 2 3 .1z"/><path class="st0" d="M1354.9 139.3c0-2.6 3.2-3.4 4.4-1.1.9 1.7 3.5.2 2.6-1.5-1.2-2.1-3.7-3.3-6.1-2.7-2.4.6-3.9 2.9-3.9 5.4 0 1.8 3 1.9 3-.1zM1308 117.3c2.3 10.8 7.3 20.6 14.6 29 1.3 1.5 3.4-.7 2.1-2.1-7-8-11.6-17.3-13.8-27.7-.4-1.9-3.3-1.1-2.9.8zM1315.2 117.3c22.8 1.6 45.6 1.3 68.4-.8 1.9-.2 1.9-3.2 0-3-22.7 2.1-45.6 2.4-68.4.8-1.9-.1-1.9 2.9 0 3z"/><path class="st0" d="M1382.2 117.3c.2 10-2.9 19.4-9.3 27.1-1.2 1.5.9 3.6 2.1 2.1 6.9-8.3 10.5-18.4 10.2-29.2-.1-1.9-3.1-1.9-3 0zM1359.3 133.4c-.7-1.2-.5-3 .8-3.8 1.3-.7 3 0 3.7 1.2.9 1.7 3.5.2 2.6-1.5-1.5-2.7-5.1-3.9-7.8-2.3s-3.5 5.3-1.9 7.9c1 1.7 3.6.2 2.6-1.5zM1366.3 139.3c-.8-.4-.6-1.7.1-2.1 1.3-.8 2.7.7 3.2 1.7.8 1.7 3.4.2 2.6-1.5-1.3-2.7-5.3-4.6-7.9-2.4-2.1 1.8-2.2 5.6.4 6.9 1.8.9 3.3-1.7 1.6-2.6z"/><path class="st0" d="M1372.4 131.3c-1-.5-1.5-2.2-.5-3 .9-.8 2.6-.1 2.9.9.6 1.8 3.5 1.1 2.9-.8-.9-3.1-5-4.6-7.6-2.5-2.6 2.1-2 6.5.8 8 1.7.9 3.2-1.7 1.5-2.6z"/><path class="st0" d="M1364.4 127.4c0-3.8 4.4-5.3 6.8-2.4 1.3 1.5 3.4-.7 2.1-2.1-4.2-4.9-12-1.8-11.9 4.6 0 1.8 3 1.8 3-.1zM1311.2 113.4c-1.1-.7.2-1.8 1-1.8 1.5-.1 2.5 1.1 3.2 2.2 1 1.6 3.6.1 2.6-1.5-1.7-2.6-4.9-4.8-8-3.2-2.7 1.4-2.9 5.2-.3 6.9 1.6 1 3.1-1.6 1.5-2.6z"/><path class="st0" d="M1315.1 118.5c-.4-.2-.6-.7-.3-1.1.6-.8 1.7.1 2.1.6.6.8.6 2 .3 2.9-.1.3-.9 2.4-1 2.4-1.7-.8-3.2 1.7-1.5 2.6 2.5 1.2 4.4-1.1 5.2-3.3.9-2.6.7-5.8-1.7-7.5-1.8-1.3-4.6-1.4-5.9.6-1.1 1.8-.8 4.5 1.2 5.4 1.9.8 3.4-1.8 1.6-2.6z"/><path class="st0" d="M1319.1 113.6c-.5-1.3.9-3.6 2.4-2.7 1.2.7 1.1 2.6.2 3.4-1.5 1.2.6 3.3 2.1 2.1 2.7-2.2 1.8-7.1-1.4-8.3-3.7-1.5-7.7 2.7-6.3 6.4.8 1.6 3.7.9 3-.9z"/><path class="st0" d="M1321.6 120.6c-.4-1.5 1.3-2.4 2.5-1.6 1.4 1 1 2.9-.1 3.9-1.4 1.4.8 3.5 2.1 2.1 2.6-2.7 2.5-7.3-1.2-9-3.5-1.6-7.3 1.6-6.3 5.3.6 1.9 3.5 1.1 3-.7z"/><path class="st0" d="M1320.2 126.9c-.2-.3.2-.7.5-.7.5-.1.9.3 1.1.6.9 1.2.1 2.8-.5 4-.9 1.7 1.7 3.2 2.6 1.5 1.6-2.9 2.1-7.4-1.7-8.9-3-1.2-6.1 2.1-4.6 5 .9 1.7 3.5.2 2.6-1.5z"/><path class="st0" d="M1320.1 136.8c3 .9 5.6-1 7.3-3.3.8-1 1.6-2.4 1.6-3.7 0-1.3-1-2.6-2.3-2.8-1.9-.3-2.7 2.6-.8 2.9.5.1-1.4 2.5-1.6 2.8-.9.9-2 1.6-3.2 1.2-2-.5-2.8 2.4-1 2.9z"/><path class="st0" d="M1328.1 125.4c0-1.1 1.1-2.4 2.4-2 .9.4 1.4 1.7 1 2.6-.9 1.7 1.7 3.2 2.6 1.5 1.3-2.6.1-6.1-2.8-7-3.1-.9-6.2 1.7-6.2 4.9 0 2 3 2 3 0z"/><path class="st0" d="M1334.6 120.5c-.3-1.4 1.6-1.4 2.3-.9 1.3 1 1.2 2.7.8 4.1-.5 1.9 2.4 2.7 2.9.8.9-3.2 0-7.1-3.5-8.1-3.1-.9-6 1.8-5.4 4.9.4 1.8 3.3 1 2.9-.8zM1330.6 129.2c2.4 2.8 6.9 2.3 8.9-.6 1.1-1.6-1.5-3.1-2.6-1.5-1 1.4-3.2 1.2-4.2 0-1.3-1.4-3.4.7-2.1 2.1z"/><path class="st0" d="M1329.3 115.7c.6-1 1.9-1.2 2.9-.7 1.4.7 1.9 2.4 2 3.8.1 1.9 3.1 1.9 3 0-.2-2.7-1.4-5.7-4.2-6.7-2.3-.9-5.1-.1-6.3 2.1-1 1.6 1.6 3.1 2.6 1.5zM428 425.5h136c1.9 0 1.9-3 0-3H428c-1.9 0-1.9 3 0 3z"/><path class="st0" d="M546.5 424v36c0 1.9 3 1.9 3 0v-36c0-1.9-3-1.9-3 0zM522.7 465.5H616c1.9 0 1.9-3 0-3h-93.3c-2 0-2 3 0 3zM1217.3 485.5h140c1.9 0 1.9-3 0-3h-140c-1.9 0-1.9 3 0 3zM1176 450.8h94.7c1.9 0 1.9-3 0-3H1176c-1.9 0-1.9 3 0 3z"/><path class="st0" d="M1257.2 452v30.7c0 1.9 3 1.9 3 0V452c0-1.9-3-1.9-3 0z"/></g><g id="chair"><path class="st1" d="M802.8 717.5c.6 5.9 1.2 11.7 1.8 17.6 73.1-.5 146.3-1 219.4-1.4-.8-5.6-1.6-11.1-2.4-16.7-21.9-8.9-56.7-20-100.6-21.2-53-1.5-94.7 12-118.2 21.7z"/><path class="st2" d="M804.3 736.2h219.2c3.9 0 3.9-6 0-6H804.3c-3.9 0-3.9 6 0 6zM807.1 718.9c53.6-25.4 115.5-31 172.7-14.8 13.5 3.8 26.7 8.8 39.4 14.8 3.5 1.7 6.5-3.5 3-5.2-57.1-27.2-123.1-32.3-183.6-13.5-11.8 3.7-23.4 8.2-34.6 13.5-3.4 1.7-.3 6.9 3.1 5.2z"/><path class="st2" d="M799.9 717.4v12.7c0 3.9 6 3.9 6 0v-12.7c0-3.9-6-3.9-6 0zM1020.4 717.4v16.9c0 3.9 6 3.9 6 0v-16.9c0-3.9-6-3.9-6 0zM913.5 735.3v213.3c0 3.9 6 3.9 6 0V735.3c0-3.8-6-3.8-6 0z"/><path class="st2" d="M912.4 948.3c-16.4 7.6-32.7 15.1-49.1 22.7-3.5 1.6-.5 6.8 3 5.2 16.4-7.6 32.7-15.1 49.1-22.7 3.5-1.7.5-6.8-3-5.2z"/><path class="st2" d="M915 952.3l55.5 24.3c3.5 1.5 6.6-3.6 3-5.2L918 947.1c-3.5-1.5-6.5 3.7-3 5.2z"/><path class="st2" d="M865.2 978.7c35.2-.3 70.3-1.1 105.5-2.5 3.8-.2 3.9-6.2 0-6-35.1 1.4-70.3 2.2-105.5 2.5-3.9 0-3.9 6 0 6zM872.3 738.3c13.9 15.5 26.8 31.8 38.5 48.9 2.2 3.2 7.4.2 5.2-3-12-17.6-25.2-34.3-39.5-50.2-2.5-2.8-6.7 1.4-4.2 4.3z"/><path class="st2" d="M967.6 732.8c-20.2 15-38.3 32.5-53.4 52.7-2.3 3.1 2.9 6.1 5.2 3 14.4-19.3 31.9-36.2 51.2-50.5 3.1-2.3.2-7.5-3-5.2z"/></g><g id="girl"><g id="leg_right"><path class="st3" d="M690.2 881.6c2.4 21.3 4.7 42.6 7.1 63.9-35.2 29.1-51.2 46.2-48 51.3 3.8 6 33.8-4.2 90.2-30.9-2.9-27.4-5.8-54.8-8.8-82.2l-40.5-2.1z"/><path class="st4" d="M860.5 586.8c5.1 13.3 11.6 36.6 5.6 63.9-3.1 14.2-9.3 28.1-28.6 54-15.9 21.3-40.8 50.8-78 82.4-5.4 12.4-11.2 29.6-13.5 50.4-3 27.5 1.3 50.3 5.6 65.3-4.8 3-18.4 10.6-37.7 10.5-22-.1-36.9-10.3-41.2-13.4-3.4-20.6-5.8-45.8-4.6-74.5 1.2-29.3 5.9-54.7 11.1-75.3 10-10.7 26.1-27.1 47.7-45.4 31.1-26.3 44.9-32.5 58.1-50.4 10-13.7 20.9-35.9 19.9-71.7 18.4 1.3 37 2.8 55.6 4.2z"/><path d="M847.4 587.2c-12 6.7-5.5 32-7.7 56.3-2.7 29.4-17.4 49.2-38 77-25.8 34.8-55.6 55.3-75.1 66.4l-14.4 126.6c4.4-.1 9.6-.6 15.4-1.9 10.2-2.3 18.1-6.3 23.6-9.6-1.8-5.2-4-12.6-5.3-21.7-1.5-10.1-1.3-17.7-1-27.4.4-11.5.7-22.2 3.9-36.1 1.6-7.3 4.5-17.4 9.6-28.9 7-6.3 14.1-12.9 21.2-19.7 15.3-14.7 26.7-25.6 39.9-40.9 22-25.3 31.9-42.8 34.7-47.6 4.7-8.5 7.3-13.1 9.6-20.2 7.2-21.8 4.3-41.1 2.9-49.6-1-6.2-2.8-14.1-6.3-23.1-3.7-1.1-8.7-2-13 .4z" opacity=".12" fill="#3d3d3d"/><path class="st6" d="M757.9 788.4c-12.2 17.6-17.8 33.3-20.7 44.3-1.7 6.4-2.5 11.7-5.8 38.5-2 16.6-3.6 30.6-4.8 40.9 8-3 16-6.1 24.1-9.1-5.1-18.6-6.3-34.7-6.3-46.2 0-5 .2-17.9 3.4-34.2 2.6-13.8 6.5-25.3 10.1-34.2z"/></g><g id="leg_left"><path class="st3" d="M782 887.5c2.4 21.3 4.7 42.6 7.1 63.9-35.2 29.1-51.2 46.2-48 51.3 3.8 6 33.8-4.2 90.2-30.9-2.9-27.4-5.8-54.8-8.8-82.2l-40.5-2.1z"/><path class="st4" d="M915.4 602.6c3.7 13.7 7.5 33.6 6.6 57.7-.1 1.4-1.1 24.9-6.6 42.6-15.4 49.9-74.2 79.2-90.8 86.9 1.4 11.9 3 23.8 4.7 35.9 3.7 26.3 7.7 51.9 12.2 76.9-2.3 2.4-15.9 16.4-39.3 17.6-23.3 1.2-38.6-11.2-41.2-13.4-8.5-18.8-19.1-49.8-17.8-88.6.8-22.5 5.4-41.5 10.3-56 22.8-31.4 41.1-55.7 53.4-71.9 23.4-30.8 29.3-37.5 34.6-52.7 8.4-23.7 4.7-37.1 15.9-44.3 8-5.1 23.7-7.1 58 9.3z"/><path class="st7" d="M888 612.8c-12.5 16.6-7.6 33-13.1 54.1-7.7 29.8-25.6 49.9-51 78.4-12.2 13.6-23.4 24-31.7 31.1 6.8 47.3 13.7 94.6 20.5 141.8 3.4-.5 8.4-1.6 13.8-4.4 7.2-3.7 11.8-8.7 14.2-11.8-1-6.5-2-13.1-2.9-19.6-4.6-30.9-9-61.9-13.3-92.9 5.8-2.8 14-7 23.6-12.6 10.8-6.4 20.4-12.1 31.1-21.5 4.8-4.2 12.4-11 20.2-21.9 3.6-5 16.2-23.1 20.2-47.1.9-5.3 1.4-11.7 1.7-15 .2-1.9 1.2-14.1 1-24.6-.1-8.6-1.2-23.7-6.8-43.8-1.6-1.4-4-3.1-7.2-3.5-9.3-1.2-17.3 9.3-20.3 13.3z"/><path class="st6" d="M824.2 790.7c-1.2 14.2-2.2 28.7-3 43.6-1.5 28.6-2.1 56.2-1.9 82.5 3.2-1.2 7.1-3 11.3-5.6 4.4-2.8 7.9-5.8 10.5-8.3-5.6-37.5-11.2-74.9-16.9-112.2z"/></g><g id="hand_right"><path class="st1" d="M801.2 395.8c-6.1 2.4-14.9 6.9-22.4 15.4-2.4 2.8-9.1 10.9-15 39.3-6 28.8-9.4 55.6-9.4 55.6-1.2 9.6-2.3 19.1-9.4 23.2-5 2.8-11.5 2.3-16.1.3-4.8-2-7.1-5.7-11.9-13-3.5-5.4-5.8-9-6.3-14-.4-4.1.7-6.6 2.8-12.6 4.3-12.6 6.8-20.2 6.6-29-.1-3.5-.3-12.8-5.6-15.4-1.6-.8-4.1-1.1-5.6 0-1.6 1.2-1.2 3.4-1.4 8.2-.2 6.6-.4 9.9-2.1 11.6-2.8 2.8-8.5 1.5-11.9.7-2.6-.6-12.2-2.9-16.8-10.9-1.5-2.7-.9-3.1-3.5-19.8-1-6.6-2-11.8-4.5-12.3-2.1-.4-3.9 2.5-5.9 1.7-2-.8-1.4-4.2-3.1-4.8-1.8-.6-3.2 2.7-6.3 2.7-2.5 0-3.2-2-4.9-1.7-2.4.5-3.4 4.9-4.2 8.5-.6 2.7-1.2 6.8-1 11.9-1.6.3-3.7 1-4.5 2.7-1 1.9.2 3.7 1.4 7.9 1.7 5.6.7 5.9 2.1 9.9.4 1.1 1.5 4.3 5.6 9.6 3.3 4.4 7.6 9.9 15 14.7 9.7 6.2 19.4 7.5 24.8 7.9 1.1 2.2 2.7 5.6 4.2 9.9 3.4 9.8 3.3 16.2 4.2 21.8 2.9 19 16 32.1 18.5 34.5 4.3 4.2 11.2 10.7 22.4 13 2.3.5 16.4 3.1 28.6-5.1 3.8-2.5 7.7-6.3 14-18.4 8.9-17.1 12.5-31.8 13.6-36.2 3.4-13.7 7.6-31.4 9.4-56.3 1.2-15.9 1.5-36.8-1.4-61.5z"/><path class="st2" d="M793.4 396.9c-15.4 8.3-24.4 23.9-29 40.4-5.8 20.7-7.6 42.8-10.8 64-1.4 9.1-2.6 24.2-12.9 28.1-9.7 3.7-20.1-8.9-23.8-16.5-4.8-9.8-3.7-19.8-.5-29.9 2.7-8.5 6-17.1 5-26.3-.5-4-3.8-16.1-9.9-14.8-3 .6-4.4 5.2-5 7.7-.9 3.5 0 18.9-6.5 17.1-1.9-.5-2.7 2.4-.8 2.9 7.6 2.2 9-6.5 9.4-12 .2-2.9.3-5.9 1.2-8.6 1.5-4.4 4.7-2.5 6.4.6 2.6 4.7 2.8 10.5 2.1 15.7-1.4 10.2-6.6 19.4-7.6 29.6-.8 7.9 1.3 15.9 5.4 22.7 3.9 6.4 10.2 12.7 17.5 15.2 7.5 2.6 14.3-3.7 17.7-9.9 4.8-8.7 5.2-19.6 6.6-29.2 1.7-11.3 3.3-22.6 5.1-33.9 3.6-22.9 9.9-48.3 32-60.2 1.7-1 .1-3.6-1.6-2.7z"/><path class="st2" d="M798.3 479c-2.4 19.6-6.8 39.1-13.7 57.7-6.1 16.5-17.3 34.3-36.7 35.8-18.5 1.4-33.8-11.7-42.1-27.2-4.5-8.3-7.2-17.4-9.4-26.5-2-8.5-2.8-17.7-7.3-25.3-1-1.7-3.6-.2-2.6 1.5 4.3 7.3 5 16.4 7 24.6 1.8 7.6 4 15.1 7.2 22.2 5.7 12.8 15.1 24.6 28.3 30.2 12.2 5.2 26 4.6 37-3.2 11.5-8.1 17.8-20.9 22.4-33.8 6.4-18.1 10.6-37 12.9-56.1.2-1.8-2.8-1.8-3 .1zM701.6 466.8c-7 .5-17.1-4.4-21.8-9.5-6.3-6.8-3.8-14.6-4.3-22.9-.5-7.2-6.3-20.6-13.3-10.1-1.1 1.6 1.5 3.1 2.6 1.5 3.6-5.4 5.9 1.3 6.5 2.9.3 1 .6 2 .8 3 .7 3.7.2 7.3.1 11-.2 5.1.5 9.8 3.4 14.1 2.5 3.7 6.2 6.4 10.1 8.4 4.7 2.4 10.5 5 15.9 4.6 1.9-.1 1.9-3.1 0-3z"/><path class="st2" d="M672.6 459.8c-3.2-5-6.2-10.2-7.2-16.1-1-5.7 0-11.5-1.2-17.1-.6-2.8-1.8-7.1-4.9-7.9-3-.7-5.4 2.3-6.4 4.7-.8 1.8 1.8 3.3 2.6 1.5.4-2 1.9-2.5 4.5-1.5.5 1 .9 2.1 1.1 3.2.5 1.9.6 3.9.7 5.9.1 3.4 0 6.9.4 10.3.9 6.8 4.1 12.8 7.8 18.5 1 1.6 3.6.1 2.6-1.5z"/><path class="st2" d="M663.5 464.7c-3.8-5.2-5.2-12.6-6.3-18.9-1.1-6.3-.5-13-1.9-19.3-.6-2.8-2.1-7.2-5.7-7.2-4.5-.1-5.8 5.3-6.4 8.7-.3 1.9 2.6 2.7 2.9.8.1-1 .3-2 .5-2.9 3-3.5 4.8-3.5 5.4 0 .8 2.3.8 4.8.9 7.2.2 3.6.4 7.3 1 10.9 1.1 7.3 2.6 16.2 7 22.2 1.1 1.6 3.7.1 2.6-1.5zM690.1 491.5c-23.6.5-43.4-15.4-48.4-38.4-.4-1.9-3.3-1.1-2.9.8 5.3 24.3 26.5 41.1 51.3 40.6 1.9 0 1.9-3 0-3z"/><path class="st2" d="M658.9 467.4c-3.3-5-5.6-10.4-8-15.9-1.5-3.4-3.2-9.1-6.8-10.9-2.8-1.4-5 .2-5.9 2.9-1.4 4.1-.3 8.6 1.7 12.3.9 1.7 3.5.2 2.6-1.5-1.1-1.9-3.9-13.3 1.6-9.7 1.7 1.1 3.1 5.9 3.9 7.6 2.6 5.7 4.9 11.4 8.4 16.6 1 1.7 3.6.2 2.5-1.4z"/><path class="st2" d="M643.2 427.3c-.4 5-.7 9.9-1.1 14.9-.1 1.9 2.9 1.9 3 0 .4-5 .7-9.9 1.1-14.9.2-1.9-2.8-1.9-3 0z"/><path d="M640.4 445c1.4-.5 3.8 9 11.6 19.1 3.3 4.3 12.9 16.4 29.4 20.9 8.4 2.3 15.7 1.9 20 1.4-.8 4.5-6.3 38.5 15.3 58.3 2.5 2.3 18.8 16.7 33.5 11.6 6.6-2.3 10.3-7.6 13-11.8 15-23.8 17.3-48.4 24.6-82.6 4.5-21 8.3-39 11.2-38.7 3.6.3 5 30.5 1.8 57.6-1.6 13.8-3.6 30.1-12.1 49.9-9.1 21.2-12.5 32.2-23.7 38.2-14.4 7.8-33.6 4.9-46-4.3-7.6-5.7-10.8-12.4-16.8-25.5-5-10.8-10.5-25.6-13.7-44.2-2.6-.4-6-1-10-2.3-4.8-1.5-12.6-4-20.3-10.2-2.5-2-11.3-9.6-15.7-22.5-2.3-6.8-3.3-14.5-2.1-14.9z" opacity=".11" fill="#3d3d3d"/></g><g id="hand_left"><path class="st1" d="M917 396.5c6 2.4 14.6 6.9 21.8 15.4 2.4 2.8 8.9 10.9 14.7 39.3 5.8 28.8 9.2 55.6 9.2 55.6 1.2 9.6 2.2 19.1 9.2 23.2 4.9 2.8 11.3 2.3 15.7.3 4.6-2 7-5.7 11.6-13 3.5-5.4 5.7-9 6.1-14 .4-4.1-.7-6.6-2.7-12.6-4.2-12.6-6.7-20.2-6.5-29 .1-3.5.3-12.8 5.5-15.4 1.6-.8 4-1.1 5.5 0 1.6 1.2 1.2 3.4 1.4 8.2.2 6.6.4 9.9 2 11.6 2.7 2.8 8.3 1.5 11.6.7 2.5-.6 11.9-2.9 16.4-10.9 1.5-2.7.9-3.1 3.4-19.8 1-6.6 1.9-11.8 4.4-12.3 2.1-.4 3.8 2.5 5.8 1.7 1.9-.8 1.3-4.2 3.1-4.8 1.8-.6 3.1 2.7 6.1 2.7 2.4 0 3.1-2 4.8-1.7 2.3.5 3.3 4.9 4.1 8.5.6 2.7 1.2 6.8 1 11.9 1.6.3 3.6 1 4.4 2.7.9 1.9-.1 3.7-1.4 7.9-1.6 5.6-.7 5.9-2 9.9-.4 1.1-1.5 4.3-5.5 9.6-3.3 4.4-7.4 9.9-14.7 14.7-9.5 6.2-19 7.5-24.2 7.9-1.1 2.2-2.7 5.6-4.1 9.9-3.3 9.8-3.3 16.2-4.1 21.8-2.8 19-15.6 32.1-18.1 34.5-4.2 4.2-10.9 10.7-21.8 13-2.2.5-16 3.1-28-5.1-3.7-2.5-7.5-6.3-13.7-18.4-8.6-17.1-12.3-31.8-13.3-36.2-3.3-13.7-7.4-31.4-9.2-56.3-1-15.8-1.3-36.8 1.5-61.5z"/><path class="st2" d="M923.2 400.2c19.3 10.7 26.5 32.5 30 53 1.9 11.1 3.4 22.4 5.1 33.6 1.5 10.5 2.1 22 5.6 32.1 2.2 6.4 7.2 14.2 14.5 15.2 7 1 14.7-6.2 18.7-11.2 4.9-6 7.9-13.5 8.5-21.2.8-10.1-3.5-19.4-6.1-29-1.5-5.5-2.4-11.2-1.2-16.8.5-2.5 1.3-5.9 3.3-7.7 4.3-4 5.3 2.8 5.7 5.8.7 5.5 0 19.1 9.5 16.4 1.9-.5 1.1-3.4-.8-2.9-6.2 1.8-5.5-11.9-5.9-14.8-.4-2.9-1.3-7.1-3.8-9.1-4.7-3.7-9.1 5.6-10.2 8.8-6 18.4 10 35.4 5.8 54-2.1 9.2-7.9 17.5-15.9 22.4-12.9 7.8-19.4-8.8-21.2-18.8-3.7-20.9-5.4-42.1-9.6-62.9-3.9-19.4-12.2-39.3-30.4-49.3-1.8-1.1-3.3 1.5-1.6 2.4z"/><path class="st2" d="M916.9 479.8c2 16.7 5.4 33.1 10.4 49.2 4.3 13.8 9.6 28.4 20.9 38.2 9.9 8.6 22.8 11.4 35.3 7.3 12.9-4.2 22.6-14.4 29-26.1 4.1-7.6 6.9-15.9 9-24.3 2.3-9.2 2.9-19.8 7.7-28.2 1-1.7-1.6-3.2-2.6-1.5-4.4 7.6-5.1 16.8-7.1 25.3-2.1 9.1-4.8 18.2-9.2 26.5-8 15.2-22.8 28.6-41.1 27.2-19.1-1.5-29.9-19.6-35.8-35.8-6.7-18.6-11.1-38.1-13.4-57.7-.3-2-3.3-2.1-3.1-.1zM1014.4 470.5c5.1.4 10.3-2.1 14.8-4.3 4.2-2 8-4.8 10.7-8.8 2.7-4 3.5-8.4 3.4-13.1-.1-3.6-.6-7.1-.2-10.6.2-1.5.5-2.9 1-4.3.6-1.8 2.9-8.2 6.3-2.9 1 1.6 3.6.1 2.6-1.5-6.8-10.6-12.6 3.1-13 10.1-.5 8.2 2 16-4.2 22.9-4.6 5.1-14.4 10.1-21.3 9.5-2-.1-2 2.9-.1 3z"/><path class="st2" d="M1045.3 462c3.5-5.4 6.5-11.2 7.5-17.7.5-3.1.5-6.2.5-9.4 0-1.9.1-3.7.4-5.6.1-1 .3-1.9.5-2.8.2-3.2 1.9-3.7 5.1-1.3.7 1.8 3.6 1 2.9-.8-.9-2.3-2.7-5.1-5.5-5.2-3.5-.1-4.9 4.6-5.5 7.3-1.3 5.4-.5 10.9-1.2 16.4-.8 6.5-3.8 12.2-7.3 17.6-1 1.6 1.6 3.1 2.6 1.5z"/><path class="st2" d="M1054.2 467c4.4-6.1 5.8-15 6.9-22.2.5-3.6.8-7.2.9-10.9.1-2.4.1-4.9.9-7.2.5-3.4 2.3-3.4 5.2 0 .2 1 .4 1.9.5 2.9.3 1.9 3.2 1.1 2.9-.8-.5-3.3-1.7-8.6-6-8.7-3.7-.1-5.2 4.3-5.8 7.2-1.3 6-.7 12.3-1.7 18.4-1.1 6.5-2.4 14.3-6.3 19.8-1.2 1.5 1.4 3 2.5 1.5zM1025.6 495.3c24.7.5 45.1-16.7 50.2-40.6.4-1.9-2.5-2.7-2.9-.8-4.8 22.6-23.9 38.9-47.3 38.4-1.9 0-1.9 3 0 3z"/><path class="st2" d="M1058.7 469.6c3.5-5.3 5.7-11.2 8.3-17 .8-1.7 2-6.3 3.7-7.3 5.5-3.5 2.4 8.1 1.5 9.7-.9 1.7 1.7 3.2 2.6 1.5 1.9-3.4 4.5-18.3-3.6-15.4-3.7 1.3-5.3 6.9-6.7 10-2.6 5.8-4.8 11.6-8.3 17-1.2 1.6 1.4 3.1 2.5 1.5z"/><path class="st2" d="M1068.4 428c.4 5 .7 9.9 1.1 14.9.1 1.9 3.1 1.9 3 0-.4-5-.7-9.9-1.1-14.9-.1-1.9-3.1-1.9-3 0z"/><path d="M925.6 416.1c2.2 13.1 6 35.8 10.6 64.4 7.5 46 9.7 61.5 21.8 67.3 10.9 5.2 26.2 1 35.4-6.5 19.4-15.6 9.2-42.9 28.3-53.7 8.5-4.8 13.4-1.2 25.4-8.9 8.9-5.7 14.5-13.1 17.1-16.5 7-9.3 8.4-18.1 10-17.7 1.3.3 1.1 6.2.5 10.3-.3 2.2-1.7 10-8 18.6-8.2 11.2-19 16-23.7 17.7-6 2.2-11.4 2.9-15.1 3.1-.8 2.1-1.9 5.4-3.1 9.5-5.2 17.5-3.8 21.3-7.5 31.7-1.9 5.4-6.1 14.9-14.6 23.9-3.5 3.7-8.2 8.6-16.2 12-2 .9-9.4 4-17.5 3.3-18-1.5-29.2-21-33.2-27.9-2.8-4.9-3.6-7.4-12.4-39-14.8-52.9-3.7-13.7-9.7-35.7-8.7-31.6-11.4-39.1-6.9-46.1 2.5-3.4 7.3-8 18.8-9.8z" opacity=".13" fill="#3d3d3d"/></g><g id="torso"><path class="st10" d="M793.8 401.5c-9.3 13.5-9.6 30.6-10 54.3-.4 23.6 3.4 40.1 6.7 56.6 4.4 22 9.7 53.7 13.3 94.1 17.9 4.7 43 8.9 72.7 6.7 15.4-1.1 29-3.7 40.5-6.7.2-33.9 2.7-61.1 5-79.5 3-24.2 5.2-31.7 6.7-52.7 2.7-40.3 4.1-60.5-5.5-74.5-24-34.6-104.9-34-129.4 1.7z"/><path class="st11" d="M874.2 376.6c9.5 43 16.8 105.4 2.4 177.2-4.5 22.5-10.5 42.8-17.1 60.8 9.2-.8 19.1-1.9 29.5-3.5 9.7-1.5 18.7-3.3 27.2-5.3.1-8.5.5-21.5 1.8-37.2 1.8-22.1 3.7-30.1 8.9-67.3 5.1-37 6.6-53.1 4.1-73.8-2.2-18.9-5.8-25.8-9.4-30.7-14.2-18.8-40-20.1-47.4-20.2z"/><path class="st11" d="M925 402.6c-1.6 0-1.6 13.1-5.9 42.5-2.4 16.8-5.4 31.9-11.2 62-3.8 19.4-5.7 29.1-6.5 32.5-4.5 17.9-13.6 43.5-34.3 73.2 15.9-2.2 31.9-4.3 47.8-6.5 1.5-19.8 3-36.8 4.1-50.2 2.4-27 3.6-40.6 5.3-56.7 3.3-30.1 4.2-31 4.7-43.7 1.2-27.3-1.8-53.1-4-53.1z"/></g><g id="head"><path class="st1" d="M803.7 268.1c-6.2 12.8-5.9 24-5.3 45.5.5 20.7.9 36.3 11.2 43.7 9.7 7 19.4.4 29.2 10 1.8 1.7 9.3 9.1 8.6 18-.3 4.1-2.2 6.3-.9 9.4 2.1 4.9 9.3 6 10.9 6.2 7.3 1.1 12.9-2.5 14.5-3.5 3-2 4.8-4.3 5.6-5.3 7.5-10 10.2-25.1 14.2-34 8.4-18.7 24.2-12.8 33.4-31.6 7.3-15.1 3.1-31.1 1.5-37.2-4.3-16.2-13.9-26-22.1-34.5-12.1-12.5-22-22.5-36.9-25.1-25.9-4.5-53 15.8-63.9 38.4z"/><path d="M848.2 339c.7-.3 1.4.8 3.4 2.1 3.6 2.3 8.6 3.3 12.9 2.2 4-1 6.9-3.8 8.7-5.6 3-3 3.6-5 4.9-4.8 1.9.3 3.5 5.6 1.8 9.7-1 2.4-2.8 3.8-4.7 5.2-.9.7-4.9 3.4-10.8 4-3.4.3-5.9-.2-7.9-.6-3.1-.6-4.7-.9-6-2.1-3.6-2.9-3.8-9.4-2.3-10.1z"/><path class="st2" d="M805.4 286.7c3.9 34.8 17.3 72.7 52.6 86.5 1.8.7 2.6-2.2.8-2.9-33.9-13.2-46.6-50.3-50.4-83.6-.3-1.9-3.3-1.9-3 0z"/><path class="st2" d="M913.7 286.9c-4.3 34.8-19.3 70.9-54.7 83.6-1.8.6-1 3.5.8 2.9 36.8-13.2 52.5-50.2 56.9-86.5.2-1.9-2.8-1.9-3 0zM854.8 292.7c-.8 10.9-.7 21.9.6 32.8.2 1.9 0 4.8 2.5 5.1 2.5.3 5.8-3.6 7.4-5.1 1.4-1.3-.7-3.4-2.1-2.1-.6.5-4.5 4.2-4.8 4-.1 0-.1-3.3-.2-3.8-.4-3.4-.6-6.9-.8-10.3-.3-6.9-.1-13.8.4-20.6.2-2-2.8-1.9-3 0zM825.1 298.7c6.1-3.6 13.3-3.2 19.2.8 1.6 1.1 3.1-1.5 1.5-2.6-6.7-4.6-15.2-4.8-22.2-.8-1.6 1-.1 3.6 1.5 2.6zM879.4 298.7c6.1-3.6 13.3-3.2 19.2.8 1.6 1.1 3.1-1.5 1.5-2.6-6.7-4.6-15.2-4.8-22.2-.8-1.7 1-.2 3.6 1.5 2.6z"/><path class="st2" d="M849.3 346.8c-2.8-6.3-1.1-8.7 5.1-7.2.4.3.8.5 1.2.8 1.3.4 1.5 1 2.9 1.4 1.9.5 3.9.2 5.7-.6 3-1.2 5-3.6 7.8-5.2 2.5-1.5 3.9-1.8 6.3.1 3 2.5 2.3 5.3.1 8.2-1.2 1.5 1.4 3 2.6 1.5 2.9-3.8 3.6-10.7-1.3-13.4-5.8-3.1-10.4 2.7-14.8 5.1-5.6 3.1-7.3-1.1-12.2-1.8-2.2-.3-4.3.6-5.9 2.2-3.4 3.4-3.3 9.3 1.2 11.6 1.5.8 3-1.8 1.3-2.7z"/><path class="st2" d="M846.4 347.7c8.9 11 26.9 6 35.1-3 1.3-1.4-.8-3.6-2.1-2.1-7.2 7.9-23 12.8-30.8 3-1.3-1.6-3.4.6-2.2 2.1zM829.5 310.2l.2-.2c.6-.6.6-1.5 0-2.1-.6-.6-1.5-.6-2.1 0l-.2.2c-.6.6-.6 1.5 0 2.1.6.6 1.6.6 2.1 0zM838.1 306.3v.2c0 .8.7 1.5 1.5 1.5s1.5-.7 1.5-1.5v-.2c0-.8-.7-1.5-1.5-1.5-.8.1-1.5.7-1.5 1.5zM836.9 314.2v.2c0 .8.7 1.5 1.5 1.5s1.5-.7 1.5-1.5v-.2c0-.8-.7-1.5-1.5-1.5s-1.5.6-1.5 1.5zM883.2 303.2l-.2.2c-.6.6-.6 1.5 0 2.1.6.6 1.5.6 2.1 0l.2-.2c.6-.6.6-1.5 0-2.1-.5-.6-1.5-.6-2.1 0zM893.2 302.8v.5c0 .8.7 1.5 1.5 1.5s1.5-.7 1.5-1.5v-.5c0-.8-.7-1.5-1.5-1.5s-1.5.7-1.5 1.5zM890.8 311.8v.2c0 .8.7 1.5 1.5 1.5s1.5-.7 1.5-1.5v-.2c0-.8-.7-1.5-1.5-1.5s-1.5.6-1.5 1.5zM825.4 280.8c3.8-5.8 10.9-7.5 17-4.3 1.7.9 3.2-1.7 1.5-2.6-7.7-4-16.3-1.8-21.1 5.4-1.1 1.6 1.5 3.1 2.6 1.5zM880 275.6c6.2-5.1 13.9-1.4 19 3.3 1.4 1.3 3.5-.8 2.1-2.1-6.4-5.9-15.7-9.6-23.2-3.3-1.5 1.2.6 3.3 2.1 2.1zM843.7 365.9c1.8 9.2 2.1 18.4 1.1 27.7-.2 1.9 2.8 1.9 3 0 1-9.6.6-19.1-1.3-28.5-.3-1.9-3.2-1.1-2.8.8zM877.3 362.2c-1.7 10-2.1 20.1-1 30.2.2 1.9 3.2 1.9 3 0-1.1-9.8-.8-19.6.9-29.4.3-1.9-2.6-2.7-2.9-.8z"/><path class="st2" d="M845.4 393.7c-.8 2.4 2.4 4.5 4 5.7 3.1 2.3 6.9 3.7 10.7 3.9 7.7.5 16.1-3.5 18.9-10.8.7-1.8-2.2-2.6-2.9-.8-2.2 5.6-8.8 8.7-14.5 8.7-2.8 0-5.5-.6-8-1.9-.6-.3-5.6-3.2-5.4-4 .7-1.9-2.2-2.7-2.8-.8zM845.2 369.3c5 3.4 10.7 6.7 16.9 5.8 6.2-.9 11.8-5.6 16.4-9.5 1.5-1.3-.7-3.4-2.1-2.1-4 3.4-9.3 7.9-14.7 8.6-5.6.8-10.5-2.2-15-5.3-1.6-1.2-3.1 1.4-1.5 2.5z"/><path class="st2" d="M846.4 371.7c3.2 5.5 9.2 5.8 14.9 4.6 6.1-1.2 13.5-3.6 16.8-9.3 1-1.7-1.6-3.2-2.6-1.5-3.8 6.7-21.9 12.8-26.6 4.7-.9-1.7-3.5-.2-2.5 1.5z"/><path class="st2" d="M847.4 372.4c8 10.1 25.1 7 30.9-3.9.9-1.7-1.7-3.2-2.6-1.5-5 9.4-19.4 11.9-26.2 3.3-1.2-1.5-3.3.6-2.1 2.1zM812.7 322.6c-8.9 4.7-19.6-17.4-4.3-19.2 1.9-.2 1.9-3.2 0-3-7.2.8-12.5 7.1-10.6 14.5 1.8 6.6 9.4 13.9 16.4 10.3 1.7-.9.2-3.5-1.5-2.6zM913.6 301.8c3.1-1.5 6.2 3.8 6.8 5.9.8 2.7.4 5.6-.4 8.2-2.1 7-6.8 8.2-13.4 7.6-1.9-.2-1.9 2.8 0 3 4.1.4 8.9.7 12.2-2.4 3-2.7 4.6-7.7 4.9-11.6.5-5.7-4.2-17-11.6-13.3-1.7.9-.2 3.5 1.5 2.6z"/><path class="st12" d="M843.4 215.4c-11.3 3.1-24.4 6.8-34.7 17.4-11.1 11.4-13.6 25.5-15 33.1-1.1 5.9-.9 10.6-.9 10.6 0 6.3 1.1 8.8 1.4 15.4 0 0 .2 4.8-.5 11.4-.4 3.4-5.2 19.6-13 37-5.8 13-9.1 13.7-11 22-1 4.4-4.3 18.7 4.3 31.9 10.4 15.9 29.3 16.9 30.7 16.9 19.3.7 30.9-13.5 32.7-15.7 5-6.3 7-12.8 7.9-16.8-.2-2.4-.4-5-.8-7.6-.3-1.9-.6-3.8-.9-5.6-1-.7-2.3-1.7-3.8-2.9-6.7-5.5-10.8-10.8-13-13.8-6.6-8.9-10.5-17.9-12.6-23.8-.8.4-2 1-3.6 1.1-5.5.4-10.6-4.7-12.3-9.9-.4-1.3-1.3-4.1-.2-7.3 1-2.7 3-4.3 4.1-5.2 2.1-1.7 4.2-2.4 5.5-2.7-.5-3.4-1.1-6.8-1.6-10.2.3-1.7.8-4.3 2.3-7.1 4.3-8.2 11.2-8.9 28.5-18.7 10-5.7 15.3-9.8 19.8-15.5 1.9-2.4 3.2-4.5 4.1-5.9 1.2 2.4 3 5.9 5.9 9.6 3.1 4 6.4 6.9 11.6 10.9 10.5 8 21.8 14.8 23.2 15.7 7.7 4.6 11.7 6.5 13.2 11.2 1.1 3.6.2 7.1-.7 9.4 1.2 0 4.8 0 6.9 2.4.7.8 1 1.7 1.4 3.1.2.7 1.1 3.3 1.1 6.3 0 1.8-.1 7.9-4.9 11.7-5 4-11.2 2.7-12 2.5-2 5.1-5.2 11.8-10.2 18.8-5.6 7.7-11.7 13.2-16.3 16.7-.6 4.7-1.2 9.8-1.4 15.2-.2 3.5-.2 6.8-.2 10 .7 2.2 2 5.2 4.3 8.2 8.8 11.4 24.3 11.7 28.2 11.8 11.7.3 20.4-4.3 26.2-7.3 4.1-2.2 9.7-5.1 15-10.9 8.8-9.5 11.1-20.1 12.1-24.6 3.3-15.6-1.1-28.3-3.4-34.8-5-13.9-9.3-13.8-17.8-29.1-9.6-17.6-5.7-21-18.4-52.1-7.1-17.4-11.6-24.3-18.7-30.1-3.2-2.6-10.8-8.5-21.4-9.6-3.4-.3-5.9 0-19.8 2.7-13.1 2.4-19.5 3.7-21.3 4.2z"/><path class="st12" d="M861.5 244.5c-.1-.2-.2-.3-.2-.5-.1.6-.2 1.2-.2 1.8.2-.1.3-.3.5-.4-.6.1-1.2.2-1.8.2 2 .9 4.2 5.3 5.7 7.1 2.1 2.5 4.2 4.9 6.5 7.2 4.1 4.1 8.7 7.8 13.5 11.1 10.3 7.1 28.5 12.2 29.1 27.2.1 1.9 3.1 1.9 3 0-.5-14.2-14.5-20-25-26.2-6.7-3.9-12.9-8.7-18.4-14.2-3-3-5.8-6.1-8.3-9.5-1.3-1.7-2.5-4.5-4.5-5.3-.7-.3-1.3-.2-1.8.2-.2.1-.3.3-.5.4-.5.5-.5 1.2-.2 1.8.1.2.2.3.2.5.6 1.8 3.1.3 2.4-1.4zM835.5 217.5c-17.6 4.2-32.7 16.9-39.6 33.7-9.4 22.8.5 48.3-8.5 71.3-7.4 19.2-25.3 38.7-19 60.8 4.4 15.5 18.7 27.7 34.8 29.1 20.4 1.8 38.3-13.4 42.2-33 .4-1.9-2.5-2.7-2.9-.8-3.5 17.6-18.7 31.4-37.1 30.9-16.3-.4-31.7-13.5-34.7-29.6-3.8-20.8 13.2-39.1 20-57.3 7.5-20 .9-41.1 5.3-61.5 4.3-20 20.6-35.9 40.3-40.6 1.9-.6 1.1-3.5-.8-3z"/><path class="st12" d="M859.3 215.1c7.9-3.7 16.8-5.8 25.5-4.8 11.8 1.3 21.2 9.1 28.1 18.3 13.3 17.9 12.9 41.1 23.1 60.5 8.9 17.1 22.1 32.5 26.8 51.5 5.2 21.4-3.7 44-21.9 56.2-10.3 6.9-23 10.6-35.3 7.5-5.6-1.4-11-3.7-15.8-6.9-3.6-2.4-9.7-6.7-8.7-11.8.4-1.9-2.5-2.7-2.9-.8-1.5 7.7 6.8 13.4 12.5 16.6 9.3 5.3 20 8 30.7 6.3 22.6-3.6 41-22.7 45-44.9 4.2-23.3-8.4-43.1-20.1-62.1-6.6-10.8-12.6-21.7-15.7-34.1-3.3-13-5.6-25.7-13.2-37-6.8-10.1-16.4-19.5-28.8-22-10.5-2.1-21.3.2-30.8 4.7-1.8 1.1-.3 3.7 1.5 2.8z"/><path class="st12" d="M859.5 233.9c1.8 19.1-19.4 26.5-33 33.7-12.5 6.7-24.3 16.5-26.6 31.3-.3 1.9 2.6 2.7 2.9.8 2.9-18.7 20.5-27.1 35.7-34.7 12.1-6.1 25.5-15.7 24-31.1-.2-1.9-3.2-1.9-3 0z"/><path d="M934.8 347.2c-1.1 1.9-15.1 26.5-28.6 22.8-10.2-2.8-13.3-19.7-13.6-21.4-4.4 4.1-8.8 8.2-13.3 12.3-.8 3.8-1.8 9.4-2 16.3-.3 7-.4 10.6 1 14 3.2 7.5 11.2 10.5 18.4 13.3 4.2 1.6 13 4.8 24.5 3.4 12.8-1.6 21.2-8 24.5-10.5 12.7-9.9 17.4-22.8 19.1-28.9 4.7-16.9 0-31-2-37.1-3-9.1-8.6-17.9-19.7-35.4-3-4.6-5.5-8.4-7.1-10.9 3.2 8.9 12.6 37.2-1.2 62.1z" opacity=".19" fill="#3d3d3d"/><path class="st14" d="M790.1 316.5c-1.8 5.1-4.1 13.6-3.4 24.2.6 8.8 1.3 17.9 8.2 23.5 8.2 6.7 23.8 7.4 29.9-1.4 4.4-6.3 1.9-14.7 1.4-16.3l19.1 19.4c.6 3.3 1.3 8.9-.3 15.7-2.1 8.9-7 14.5-9.2 17-6.1 6.9-12.8 9.9-14.3 10.5-3 1.3-11.3 4.8-21.8 2.7-9.5-1.9-15.4-7.2-18.7-10.2-3.2-3-10.8-10.1-12.9-21.8-1.6-8.8.6-15.9 2.4-21.4 2.3-7.4 4.7-9.9 9.9-19.7 2.5-5.2 6.1-12.6 9.7-22.2z"/><path d="M809.7 298c2.9 8.8 7.5 19.8 15.1 31.4 12.2 18.6 26.6 30.4 36.5 37.1 3.5-.7 6.9-1.5 10.4-2.2 1 4 1.7 9-.9 11.6-4 4.1-12-.7-16.3 2.8-2.7 2.2-4.3 7.6.3 22.3-2.6-1.9-5.2-3.8-7.9-5.7-.5-10.2-1-20.3-1.6-30.5-5.9-4.5-13.8-11.7-20.7-22.3-4.7-7.1-7.7-13.9-9.7-19.5-.6.4-3.7 2.6-7.2 1.6-2.6-.7-3.9-2.8-5.3-5-1.8-2.8-4-6.2-2.8-10.1 1.1-3.5 4.6-6.2 8.8-6.9.2-1.5.7-3.1 1.3-4.6z" opacity=".06" fill="#3d3d3d"/></g></g><g id="fruits"><path class="st4" d="M611.4 345.9c-4.7 1-7.7 3.9-8.7 5-4.3 4.4-5 9.7-5.3 11.8-.7 5.6 1 9.9 2.9 14.7 1.8 4.4 5.1 11.1 11.3 18.2 5.3 1.7 9.8 1.8 12.6 1.6 3.7-.2 9.9-.6 15.3-5 3.4-2.8 5-6 6.3-8.7 3.4-6.8 3.4-13 3.4-18.7 0-7.4 0-11.2-2.6-14.2-3.1-3.6-9-5.8-14.2-3.9-2.8 1-4.6 2.8-5.5 3.9-.7-.7-7.2-6.4-15.5-4.7z"/><path class="st12" d="M1059 179.3c-.1.2.3.6.1.9-.2.4-1.2-.2-2 .1-.7.3-.7 1-1.2 1.7-1.1 1.6-3.4.4-5.9 1.6-1.6.7-3.4 2.4-3.7 4.3-.1.7.5 2.1 1.6 5 .8 2.1 1.2 2.8 1.1 4-.1 1.7-.8 1.9-.6 2.8.5 1.9 3.8 1.6 4.7 3.8.4 1.1-.3 1.4.2 3 .1.3.7 2 2.2 2.9 1.4.8 2.4.2 3 1 .6.8-.1 1.6.4 3 .5 1.3 1.7 2 2.1 2.2 1.3.7 2.5.7 2.9.7 1.3-.1 2-.5 2.1-.3.2.3-1.9 1.4-2.2 3.3 0 .2-.2 1.1.2 2 .9 2 3.6 1.7 4 3.1.3 1.2-1.4 1.9-1 3.1.3.8 1.1.7 3 2.1 1.2.9 1.1 1.1 2.1 1.8 1.3.9 2.4 1.6 3.6 1.3 1.7-.5 2.6-3.2 2.8-3.8.2-.7.2-.9.4-1.3.8-1.3 1.9-1.1 2.5-2.1.4-.8.1-1.7-.1-2.6-.5-1.7-1.3-1.7-1.7-3.1-.3-1.1-.1-2.7.8-3.3.8-.5 1.5.2 2.5-.3.9-.5 1.3-1.9 1.2-2.9-.1-1.8-1.4-1.9-1.4-3.6 0-.4.4-1.5 1.3-3.8.4-1.1.6-1.4.6-1.9 0-1-.5-1.5-1-2.7 0 0-.4-1-.9-2.8-.7-2.8.4-3.5 0-6s-1.5-2.1-2.1-4.9c-.6-2.7.3-3.7-.8-5.2-.7-1-2-1.7-3.2-1.9-1.7-.2-2.1.8-3.2.4-1.7-.5-1.3-2.8-3.1-3.8-1.4-.8-3.3-.5-4.6.3-1.6 1.1-1.3 2.8-2.6 3.2-1.6.7-3.7-1.7-4.1-1.3z"/><path class="st2" d="M618.3 344.8c-14.6-2.8-23.9 10-22 23.6 1.2 8.4 5.7 16.7 10.3 23.7 4.2 6.3 9.3 7.4 16.5 6 1.4-.3.8-2.4-.6-2.2-8.2 1.6-11.9-1.4-15.7-8-3.1-5.4-6.2-10.9-7.7-17-3-12.4 4.1-26.8 18.6-24 1.4.4 2-1.8.6-2.1z"/><path class="st2" d="M615.7 347.2c5.1.7 9.7 2.9 13.4 6.4 1.1 1 2.7-.6 1.6-1.6-4.2-3.9-9.3-6.3-15-7-1.4-.3-1.4 2 0 2.2z"/><path class="st2" d="M622.7 344.9c-1.1-1.5-2.3-3.1-2.7-4.8-.8-3 1.3-5.6 4.5-5.3l-1.1-1.1c-.2 5.6.8 11 3.1 16.1.6 1.3 2.5.2 1.9-1.1-2.1-4.8-3-9.8-2.8-15 0-.7-.5-1.1-1.1-1.1-2.8-.3-5.6 1.1-6.6 3.9-1.3 3.4 1 7 2.9 9.6.8 1.1 2.8 0 1.9-1.2z"/><path class="st2" d="M628 348.6c7.4-1.9 16.4-2.9 19 6.3 1.8 6.6.6 13.9-.8 20.5-1.2 5.8-2.1 12.6-7.1 16.4-4.4 3.3-10.3 4-15.6 4.5-1.4.1-1.4 2.4 0 2.3 6.3-.5 13.4-1.4 18.2-5.9 5.7-5.3 6.6-15.1 7.7-22.3 1-6.6 1.9-16.1-3-21.6s-12.8-4-19-2.4c-1.4.4-.8 2.6.6 2.2zM626.2 337.4c-2.4-4.9 4.2-8.5 6.7-11.7 1.7-2.2 2.9-4.7 3.8-7.3h-2.2c2.6 8-2 15.8-10.3 17.3-1.4.3-.8 2.4.6 2.2 9.5-1.7 14.9-10.9 11.9-20-.4-1.1-1.8-1.1-2.2 0-1.8 5.4-5.5 8-8.9 12.2-2.1 2.6-2.8 5.5-1.4 8.5.7 1.2 2.7.1 2-1.2z"/><path class="st2" d="M638.7 356.1c-1 3-1.5 6.2-1.3 9.4.1 1.9.2 4.9 1.7 6.2 1.1 1 2.7.8 3.8-.1 1.9-1.5 1.4-3.9.9-6-.4-1.4-2.5-.8-2.2.6.6 1.2.1 2.2-1.4 3-.1-.3-.2-.7-.2-1-.7-1-.4-3.1-.4-4.3 0-2.5.5-4.9 1.2-7.3.5-1.3-1.6-1.8-2.1-.5zM722.7 153.9c-5.3 3-7.6 8.2-9.6 13.7-3.2 8.8-6.8 15.3-13.9 21.5-9.6 8.5-25.8 21-19.2 36 5.7 12.9 22.5 12.4 32 4.5 6-5 9.5-12.2 11.4-19.7 2.4-9.6 1.5-19.8 5.5-29 2.9-6.8 7.9-15 3.8-22.5-2.7-4.9-9.1-6.7-13.5-3.1-1.1.9.5 2.5 1.6 1.6 3.2-2.5 7.6-1.1 9.7 2 1.8 2.6 1.8 6.2 1.2 9.2-.8 4.2-3 7.9-4.7 11.8-2.9 6.9-3.2 14-4.2 21.3-1.2 9.4-4 19.2-11.2 25.9-6.4 5.9-15.9 8.4-23.7 3.6-9-5.5-7.9-16.3-2.9-24.2 4.5-7 11.6-11.7 17.6-17.3 4.5-4.2 8.2-8.9 10.5-14.7 2.7-6.7 4-14.8 10.8-18.6 1.2-.8.1-2.7-1.2-2z"/><path class="st2" d="M696.5 221c-10.4-1.2-1.9-19.7 6-14.3 7.2 4.9 1.1 19.1-7.4 14-1.2-.8-2.4 1.2-1.1 1.9 4.7 2.8 10.7.7 13-4.2 2.1-4.7.8-11.9-4.3-14.1-11.4-4.9-19.6 17.5-6.2 19 1.5.1 1.5-2.2 0-2.3z"/><path class="st2" d="M679.1 223.4c2.8 10.4 9.3 19.1 20.5 20.5 10.5 1.3 20.4-4 26.2-12.6 3.2-4.8 5.2-10.5 5.9-16.2.8-6.6-.3-13.3 0-19.9.7-11.8 10.2-25.1 1.1-35.9-.9-1.1-2.5.5-1.6 1.6 7.7 9.3-.3 21.5-1.6 31.5-1.4 10.9 1.6 21.4-2.8 32-4 9.6-12.4 17-23.1 17.4-12.2.5-19.6-8.1-22.6-19.1-.2-1.3-2.4-.7-2 .7zM915.1 33.4c.9 6.6.5 13.2-1.3 19.7-.4 1.4 1.8 2 2.2.6 1.8-6.9 2.2-13.8 1.3-20.9-.2-1.4-2.4-.8-2.2.6z"/><path class="st2" d="M916.6 33.7c6-4.3 6 6.8 6 9.4-.1 3.9-.4 7.8-1.3 11.6-.3 1.4 1.9 2 2.2.6.9-4 1.2-8.1 1.4-12.2.1-2.7.4-5.7-.7-8.2-1.4-3.5-5.4-5.5-8.7-3.1-1.2.8-.1 2.8 1.1 1.9zM912.9 51.9c-4.7 1.3-7.7 4.7-10.3 8.7-4.2 6.4-7.8 12.2-14.1 16.8-9.7 7-32.9 14.5-39.8-.2-.6-1.3-2.6-.2-1.9 1.1 5.8 12.5 23.8 10.3 34.1 5.9 6.6-2.8 12.6-7.2 17.2-12.8 4.8-5.8 7.5-15.2 15.4-17.4 1.4-.4.8-2.5-.6-2.1z"/><path class="st2" d="M846.4 77.3c-9.3 17.6 9.6 28.1 25.2 28.1 1.4 0 1.5-2.2 0-2.3-13.6 0-31.7-8.7-23.3-24.8.7-1.1-1.2-2.2-1.9-1z"/><path class="st2" d="M915.4 56.9c-7.6 11.5-11.8 24.4-22.1 34.2-10.7 10.2-25.4 15.8-40.1 12.6-.6-.1-1.2.2-1.4.8-4.5 17 25.8 18.6 35.8 16.6 16.5-3.3 29.4-15.9 34.2-31.8.4-1.4-1.8-2-2.2-.6-3.9 12.9-13.4 23.7-26.2 28.4-6.9 2.5-14.5 3.3-21.8 2.1-6.8-1.1-20.2-4.7-17.7-14.2-.5.3-.9.5-1.4.8 13.8 3 27.8-1.2 38.7-10 5.4-4.4 9.9-9.7 13.7-15.6 4.6-7.1 7.6-15.1 12.3-22.2.9-1.2-1.1-2.3-1.8-1.1z"/><path class="st2" d="M922.9 55.5c17.5 10.2 16.4 39 8.1 54.7-10.3 19.4-34.8 26.1-53.6 14.6-1.2-.8-2.4 1.2-1.1 1.9 19.8 12 45.8 5 56.7-15.5 8.9-16.7 9.7-46.9-8.9-57.7-1.3-.7-2.5 1.3-1.2 2z"/><path class="st2" d="M880.6 126.3c-1.7-.8-3.7-1.8-5.1-3.1l-.3-.3c-.1-.2.1 0 0 .2.3-.6.8-1 1.5-1.4 1.3-.7.1-2.6-1.1-1.9-1.4.8-3.3 2.5-2.3 4.2.4.8 1.3 1.3 2 1.8 1.3.9 2.8 1.7 4.2 2.4 1.3.6 2.4-1.3 1.1-1.9zM922.5 63.4c0 10.2-1.4 20.2-4.1 30-.4 1.4 1.8 2 2.2.6 2.8-10 4.2-20.2 4.2-30.6-.1-1.5-2.3-1.5-2.3 0zM916.4 71.4c-4.1 15.2-13.2 28.4-26.2 37.3-1.2.8-.1 2.8 1.1 1.9 13.4-9.3 23-22.9 27.2-38.7.5-1.3-1.7-1.9-2.1-.5zM929.1 71.1c1.7 16.9-3.6 33.7-15 46.4-1 1.1.6 2.7 1.6 1.6 11.7-13.2 17.4-30.5 15.6-48-.1-1.4-2.3-1.4-2.2 0zM1049.5 192.7c-2-1.2-2.8-3.9-1.7-6 1.2-2.2 4.4-2.5 6.3-1.2 2 1.4 2 4.3.6 6.2-1.7 2.2-5.1 1.8-6.7-.3-.9-1.1-2.8 0-1.9 1.1 2.3 3 6.9 4 9.8 1.3 2.7-2.6 2.9-7.4 0-9.8-2.8-2.3-7.4-1.9-9.5 1-2.2 3.1-1.1 7.7 2.1 9.6 1.1.7 2.2-1.2 1-1.9z"/><path class="st2" d="M1058.2 192c-1.2-1.8 0-4.2 2.1-4.3 1.9-.1 3.6 1.4 3.7 3.3.1 1.6-.8 3.4-2.5 3.7-1.7.3-3.7-1-3.8-2.8-.1-1.4-2.4-1.4-2.3 0 .3 3.1 3.1 5.5 6.3 5 3.2-.4 5-3.7 4.5-6.7-.5-3.2-3.9-5.5-7.1-4.6-3.2.8-4.7 4.8-2.9 7.5.8 1.3 2.8.2 2-1.1z"/><path class="st2" d="M1057.6 185.1c-2.2-1.4-.7-4.5 1.7-4.4 3 .1 3.6 3.6 2.2 5.7-.8 1.2 1.1 2.3 1.9 1.1 2.5-3.8.1-9.5-4.8-9-4.4.4-5.8 6.2-2.1 8.6 1.2.8 2.4-1.2 1.1-2z"/><path class="st2" d="M1066.3 189.7c-1.5-2.1.3-4.3 2.6-4.2 1.8 0 3.4 1.3 3.9 3.1 1.4 4.6-6.1 6.7-6.6 1.7-.1-1.4-2.4-1.4-2.3 0 .3 3.2 3.3 5.9 6.7 5.1 3.2-.8 5.2-4.3 4.3-7.4-.9-3.1-4.3-5.3-7.5-4.6-3.3.7-5.3 4.5-3.2 7.5 1 1.1 2.9-.1 2.1-1.2zM1050.9 201.3c-2-1.1-1.6-3.8.4-4.7 2-.9 4 .2 4.7 2.2.6 1.6 0 3.4-1.7 3.9-1.5.4-3.2-.3-3.6-1.8-.4-1.4-2.5-.8-2.2.6.8 2.9 4.1 4.2 6.8 3.3 3.1-1.1 3.8-4.7 2.4-7.4-1.6-3.1-5.5-4.1-8.4-2.1-2.9 2-2.7 6.4.3 8.2 1.5.5 2.6-1.4 1.3-2.2z"/><path class="st2" d="M1063.5 203.1c-1.9-.4-3.4-2.6-2.4-4.5.8-1.6 3.4-2.2 4.8-1 1.3 1.2 1.4 3.7 0 4.8-1.5 1.2-3.8.6-4.8-1-.8-1.2-2.7-.1-1.9 1.1 1.7 2.8 5.8 3.7 8.3 1.4 2.4-2.1 2.2-6.3-.2-8.2-2.5-2-6.5-1.1-8 1.6-1.7 3.1.4 7.1 3.8 7.8 1.2.4 1.8-1.7.4-2z"/><path class="st2" d="M1073.6 193.8c1.2-.5 1.6 1.7 1.6 2.4-.1 1.1-.6 2.2-1.4 2.9-1.6 1.5-4 1.3-5.7.1-1.2-.9-2.3 1.1-1.1 1.9 3.4 2.4 8.2 1.3 9.9-2.6.7-1.7.8-3.8-.2-5.3s-2.6-2.1-4.2-1.3c-1.4.6-.2 2.5 1.1 1.9zM1064.9 183.5c-1.3-2.9 1.2-6 4.3-5.2 3.1.9 3.4 4.7 1.1 6.6-1.1.9.5 2.5 1.6 1.6 3.9-3.1 2.4-9.5-2.5-10.5-5-1-8.4 4.2-6.4 8.6.6 1.3 2.5.2 1.9-1.1z"/><path class="st2" d="M1074.4 185c-1.5-1.5-.4-3.8 1.6-3.9 2-.2 3.5 1.5 3.9 3.3.4 1.7 0 3.8-1.2 5.1-1.3 1.3-3.8 1.3-4.4-.7-.4-1.4-2.6-.8-2.2.6.9 2.9 4.4 4.2 7 2.6 3.1-1.8 3.9-6.1 2.6-9.3-1.2-2.9-4.6-4.7-7.7-3.3-2.8 1.3-3.4 5.1-1.2 7.3 1 .9 2.6-.6 1.6-1.7z"/><path class="st2" d="M1078.6 194.5c-.7-2.1 1.8-3.7 3.1-1.6.7 1.1.6 2.7.3 3.9-.3 1.1-1 2.6-2.3 2.8-1.3.3-3-1-2.5-2.4s-1.7-2-2.2-.6c-.9 2.6 1.5 5.1 4 5.3 3 .1 4.8-2.7 5.2-5.3.4-2.7-.5-6.3-3.6-6.8-3.1-.4-5.3 2.5-4.3 5.4.6 1.3 2.8.7 2.3-.7zM1056 203.1c-.2-1-1.2-1.3-2.1-1-1 .4-1.5 1.4-1.7 2.4-.4 2.1.6 4.5 2.3 5.7 4.2 3 9.7-2 7.9-6.6-.5-1.3-2.7-.7-2.2.6.8 2-.7 4.9-3.1 4.7-1-.1-1.9-.8-2.3-1.7-.3-.5-.4-1-.5-1.6 0-.5.4-1.2-.1-1.5-.2-.2-.3-.4-.5-.7v.2c.3 1.6 2.5 1 2.3-.5z"/><path class="st2" d="M1066.8 201.3c-1.3 4.7 2.2 9.9 7.4 8.8 4.7-1 5.9-7 2.1-9.8-1.1-.9-2.3 1.1-1.1 1.9 2.6 2 .7 5.7-2.2 5.8-3.3.1-4.8-3.3-4.1-6.1.5-1.4-1.7-2-2.1-.6z"/><path class="st2" d="M1061.1 205c-1.7 2.2-.8 5.5 1.8 6.6 3.1 1.3 6.3-1.5 6.7-4.5.2-1.4-2-2-2.2-.6-.2 1.5-1.5 3.5-3.4 3.1-1.1-.3-2.2-2-1.4-3 1-1.1-.6-2.7-1.5-1.6z"/><path class="st2" d="M1068.8 216.2c-1.5-1-1.7-3.4-.4-4.7 1.3-1.3 3.9-.9 4.9.6 1.1 1.6.4 4-1.2 5-1.8 1-3.9.2-5.1-1.3-.9-1.1-2.5.5-1.6 1.6 2 2.6 6 3.3 8.6 1.2 2.4-2 2.9-6 .7-8.4-2.1-2.2-6-2.3-8 0-2.1 2.4-1.4 6.2 1.1 7.9 1.1.9 2.2-1.1 1-1.9zM1079.6 205.2c-1.2-.5-1.5-2.3-.6-3.2 1-1 2.8-.8 3.6.2.9 1 1 2.8 0 3.8-.8.8-2.1 1.1-2.8.2-.9-1.1-2.5.5-1.6 1.6 1.6 2 4.6 1.3 6.2-.4 1.8-2 1.4-5.5-.6-7.2-2-1.7-5.5-1.3-6.9 1-1.4 2.3-.2 5.2 2.2 6.2 1.3.5 1.9-1.7.5-2.2z"/><path class="st2" d="M1062.4 210.1c-.7-1.6-2.6-1.5-3.6-.3-1.1 1.3-1 3.5-.3 5 1.8 3.5 6.7 3.3 8.6 0 .7-1.3-1.2-2.4-1.9-1.1-.7 1.3-2.6 2-3.9 1-.6-.4-.9-1.1-1.1-1.8-.1-.3-.1-.7 0-1 0-.2.1-.4.2-.7.4-.2.3-.4-.2-.6.5 1.4 2.7.8 2.2-.5zM1078.2 208.5c2.4 2.4-.3 6-3.3 4.8-1.3-.5-1.9 1.6-.6 2.2 2.2.9 5 .1 6.3-2 1.3-2.1.9-4.8-.8-6.6-1-1.1-2.6.5-1.6 1.6z"/><path class="st2" d="M1064.1 217.3c-2.3 2.5-1.3 7.1 2 8.1 3.6 1.1 7.2-3.1 5.8-6.5-.6-1.3-2.7-.7-2.2.6.7 1.8-.9 4.5-3 3.8-1.7-.6-2.2-3.1-1-4.3 1-1.2-.6-2.8-1.6-1.7z"/><path class="st2" d="M1071.4 218.9c-.8 2 .4 4.1 2.3 4.9 2.1 1 4.4-.1 5.7-1.9 2.1-2.7 2.3-9.5-2.6-9.2-1.4.1-1.4 2.3 0 2.3 2.2-.1 2.1 3.2 1.4 4.5-.5 1-1.3 2.1-2.5 2.4-1.4.3-2.8-1-2.3-2.4.7-1.4-1.5-2-2-.6z"/><path class="st2" d="M1083.1 209.3c.1 0 .1 0 0 0-.5 0-1.1-.1-1.7-.2.7 1.4 1.8 3.1 1.4 4.7-.3 1.1-1.6 2.2-2.7 1.4-1.2-.8-2.3 1.1-1.1 1.9 1.8 1.3 4.2.3 5.4-1.4 1.7-2.5.2-5.5-1-7.9-.3-.6-1.3-.8-1.8-.2-1 1.2-.8 2.6.4 3.5 1.2 1 2.3-.9 1.1-1.8zM1067.9 224.2c-2.9 2-1.6 6.6 1.9 6.9 4.2.5 6.1-3.9 5.6-7.4-.2-1.4-2.4-.8-2.2.6.3 1.8-.3 4.2-2.5 4.6-.8.1-1.7-.1-2-.9-.3-.6-.2-1.5.3-1.9 1.2-.8.1-2.7-1.1-1.9z"/><path class="st2" d="M1074.2 224.1c-.6 3.8 3.8 6.4 6.8 3.9 3.3-2.8 1.7-7.5-1.8-9.2-1.3-.7-2.4 1.3-1.1 1.9 1.6.8 3.1 2.6 2.2 4.5-.4.8-1.1 1.5-2 1.5-1 0-2.1-.9-1.9-2 .2-1.4-2-2-2.2-.6z"/><path class="st2" d="M1071.4 229.5c-1.2 2.6 1.5 5.3 4.2 4.7 3.1-.6 3.8-4.2 3.4-6.9-.2-1.4-2.4-.8-2.2.6.2 1.3 0 3-1.1 3.8-.5.4-1 .4-1.6.1-.4-.2-1-.7-.8-1.2.6-1.3-1.3-2.4-1.9-1.1zM1062.7 180c-2-5.7-4.8-17.7 4.7-18.4-.4-.3-.7-.6-1.1-.8 1 2.7-1.8 7.1-2.1 9.9-.3 2.5-.1 4.9.3 7.3.3 1.4 2.4.8 2.2-.6-.9-4.4-.1-8 1.4-12.1.7-1.8 1.1-3.2.4-5.1-.2-.4-.6-.9-1.1-.8-3.9.3-6.9 2.8-8.3 6.4-1.9 4.9-.1 10.1 1.5 14.8.4 1.3 2.6.7 2.1-.6zM1096.7 342.1c-10.9-8.6-11.3-24-3.8-35 8.2-11.9 25-20.5 37.7-10 11.6 9.6 10.7 26.6 3.8 38.7-8.6 15.4-28.6 12.9-41.2 3.8-1.2-.8-2.3 1.1-1.1 1.9 10 7.2 26.7 11.4 37.5 3.5 9.4-6.9 13.5-22 11.8-33.1-1.8-11.3-11.1-21.7-23.1-22.3-11.9-.5-24 9.3-29.3 19.4-6.1 11.4-4.4 26.2 6.1 34.4 1.2 1.2 2.8-.4 1.6-1.3z"/><path class="st2" d="M1125.9 292.6c-.3-2.7-.6-6.4.6-8.9 1.5-3 6.9-1.8 9.7-1.4-.2-.6-.3-1.3-.5-1.9-3.2 3.5-5.6 7.5-7.2 11.9-.5 1.4 1.7 1.9 2.2.6 1.5-4.1 3.7-7.7 6.7-10.9.5-.6.4-1.8-.5-1.9-2.2-.3-4.4-.5-6.7-.5-1.6 0-3.5-.1-4.6 1.1-1.2 1.2-1.4 3.4-1.7 5-.4 2.3-.4 4.6-.2 6.9.1 1.4 2.4 1.4 2.2 0zM1103.5 329.4h.2c.3.1.5.2.8.3.3.3.3.6.1 1l-.4.4c-.2.1-.4.1-.6.2h-.2c.6.2 1.2-.2 1.4-.8.2-.6-.2-1.2-.8-1.4-.8-.3-1.6.5-1.6 1.3s.8 1.6 1.6 1.3c.6-.2 1-.8.8-1.4-.1-.6-.7-1.1-1.3-.9zM1110.9 319.4v-.3c0-1.4-2.3-1.5-2.3 0v.3c0 1.4 2.3 1.4 2.3 0v-.3c0-1.4-2.3-1.5-2.3 0v.3c0 1.4 2.3 1.4 2.3 0zM1112.4 331.1h-.5c-1.4 0-1.5 2.3 0 2.3h.5c1.5-.1 1.5-2.3 0-2.3zM1121.6 320.4v-.5c0-1.4-2.3-1.5-2.3 0v.5c0 1.5 2.3 1.5 2.3 0zM1126.4 332.7v-.5c0-1.4-2.3-1.5-2.3 0v.5c0 1.5 2.3 1.5 2.3 0zM1121 307.6v-.5c0-1.4-2.3-1.5-2.3 0v.5c.1 1.4 2.3 1.4 2.3 0zM1130.1 321.6c1.4 0 1.5-2.3 0-2.3s-1.5 2.3 0 2.3z"/><path class="st2" d="M1131.7 288.5c6.3-.1 12.1-2.8 16.4-7.5-.6-.1-1.2-.2-1.8-.2 1.5 3.4.2 7.7-3.1 9.5-3.8 2.1-8.3-.1-11.4-2.4-1.2-.9-2.3 1.1-1.1 1.9 4.2 3.2 10.4 5.3 15 1.5 3.5-2.8 4.4-7.6 2.6-11.7-.3-.6-1.3-.7-1.8-.2-3.9 4.3-9 6.7-14.8 6.8-1.5.1-1.5 2.3 0 2.3zM644.6 303.5c2.3-5.4 4.5-10.8 6.8-16.2.6-1.3-1.6-1.9-2.2-.6-2.3 5.4-4.5 10.8-6.8 16.2-.5 1.3 1.6 1.9 2.2.6zM663.2 264.7c2.2-3 4.4-5.9 6.7-8.9.9-1.2-1.1-2.3-1.9-1.1-2.2 3-4.4 5.9-6.7 8.9-.9 1.1 1.1 2.3 1.9 1.1zM757.5 151.8c2.1-2.3 4.4-4.3 7.1-5.8 1.3-.7.1-2.7-1.1-1.9-2.9 1.6-5.4 3.7-7.6 6.2-.9 1 .7 2.6 1.6 1.5zM805.8 119.5c3.4-1.2 6.9-2.5 10.3-3.7 1.4-.5.8-2.7-.6-2.2-3.4 1.2-6.9 2.5-10.3 3.7-1.4.5-.8 2.7.6 2.2zM967.1 98.8c5.9 2.3 11.4 5.3 16.7 8.9 1.2.8 2.3-1.1 1.1-1.9-5.4-3.7-11.1-6.7-17.2-9.1-1.4-.6-2 1.5-.6 2.1zM1017.6 139.1c4.7 4.2 9.3 8.4 14 12.6 1.1 1 2.7-.6 1.6-1.6-4.7-4.2-9.3-8.4-14-12.6-1.1-1-2.7.6-1.6 1.6zM1091.1 238.1c2.8 4 5.4 8.1 7.9 12.3.7 1.2 2.7.1 1.9-1.1-2.5-4.2-5.1-8.3-7.9-12.3-.8-1.2-2.7-.1-1.9 1.1zM1106.7 278.4c.7 3 1.4 5.9 2.2 8.9.3 1.4 2.5.8 2.2-.6-.7-3-1.4-5.9-2.2-8.9-.4-1.4-2.5-.8-2.2.6z"/><path d="M703.1 206c.3.8 1 2.7.5 5-.5 2.8-2.3 4.5-3 5.1-3.5 3.2-8.1 2.6-8.9 2.5.2.2 3.4 4.4 8.2 3.8.5-.1 4-.5 5.9-3.5 1-1.6 1-3.2 1-4.2 0-4.5-2.7-7.7-3.7-8.7z" opacity=".14" fill="#3d3d3d"/><path d="M733.6 165.1c-.9.1-1.3 2.4-2.2 5.8-2 8-3.2 8-5.2 15.1-1.7 6.2-.7 5.9-2.5 15.1-1.8 9.1-2.7 13.7-5.5 18.5-1.7 3-5.2 8.9-12.2 11.9-10.4 4.5-20.7-.7-22.4-1.7.4 1.6 1.2 4.1 3.1 6.5 3.6 4.6 8.4 6.1 10.7 6.7.5.2 12.2 3.2 19.6-3.2 1.2-1 2.5-2.9 5.3-6.7 2.3-3.2 3.9-5.5 5.2-8.1 1-2.1 2.1-5.1 2.7-12.9 1-13.5-1.8-13.1 0-19.9 2.3-9.1 5.1-15.4 5.1-15.4.3-.6 1.1-2.6 1-5.3-.1-3.1-1.6-6.4-2.7-6.4z" opacity=".22" fill="#3d3d3d"/><path class="st14" d="M635.5 347.1c1.1 3.3 2.5 9.2 1.6 16.5-1.1 9.3-5.2 15.5-7.1 18.3-5.7 8.4-12.9 12.8-16.9 14.9 6.9 1.2 12.4.5 15.9-.2 4.8-1 9.8-2 13.4-6.1 2-2.2 2.7-4.7 4.1-9.6 1.7-6 3.5-12.6 2.4-21-.7-5.3-1.3-10.5-5.3-12.6-2.9-1.6-6.3-.8-8.1-.2z"/><path class="st18" d="M845.5 84.3c1.5 4.3 3.7 6.8 5 8 9.9 9.2 25.6 4.6 26.5 4.3 10.8-3.4 17.1-12.3 20-16.3 4-5.5 6.3-11.4 14-18.9 1.7-1.6 3.1-2.9 4.1-3.7-2.7 8.8-8.2 22.3-19.8 33.5-8.4 8.2-15 10.4-17.4 11.1-7.8 2.2-14.1 1.1-16 .7-4.4-.9-11.3-2.4-14.7-8.5-2.2-4-2-8.2-1.7-10.2z"/><path class="st7" d="M852.6 108.3c1.9 1.7 5.1 4 9.5 5.5 2.9.9 7 1.8 14.2.8 5-.7 16.5-2.2 26.9-9.8 19.1-14.1 20.1-38.4 20.2-41.6.6 8.8-.6 15.9-1.8 20.4-1.4 5.8-3.6 14.4-10.8 22.4-4.4 4.9-9 7.7-11.7 9.1-7.2 3.8-13.5 4.5-17.9 4.9-8.3.8-17.4 1.7-23.7-4.1-2.8-2.5-4.2-5.5-4.9-7.6z"/><path class="st18" d="M933.2 79.7c0 4.4-.3 15.5-7.1 27-2.7 4.5-7.7 13-18 17.7-15.3 7.1-30.5.4-33.3-.8 2.5 1.9 6.9 4.7 12.8 6.3 9.7 2.5 17.7.1 22.2-1.4 4.1-1.3 10.5-3.3 16.2-9.1 5.4-5.5 7.3-11.4 8.9-16.1 1.7-5.2 4-15.2 1.4-27.3-1.6-7.1-4.3-12.4-6.4-15.8 1.5 4.2 3.3 11 3.3 19.5z"/><path d="M1127.9 294.9c1.1 2.9 2.5 8 2.1 14.2-.7 10.4-5.9 17.4-7.6 19.5-9.2 11.8-22.7 13.8-25.7 14.2 2.4 1.7 8.3 5.5 16.5 5.7 2.3.1 11.9.3 19-6.6 4.2-4.1 5.5-8.7 6.9-13.3 1.4-4.7 3.2-11.1.9-18.6-2.7-8.9-9.7-13.6-12.1-15.1z" opacity=".15" fill="#3d3d3d"/></g><g id="table"><path d="M1186.1 694.5v338.7c0 3.9 6 3.9 6 0v-264-74.7c0-3.9-6-3.9-6 0zM519.4 694.5v336.1c0 3.9 6 3.9 6 0V768.1v-73.6c0-3.9-6-3.9-6 0zM590.6 699v170.3c0 3.9 6 3.9 6 0V699c0-3.9-6-3.9-6 0zM1139.7 690.1v170.3c0 3.9 6 3.9 6 0V690.1c0-3.9-6-3.9-6 0z"/><path d="M508.2 697l697.9-.9c-6.9-27.4-13.7-54.9-20.6-82.3l-604.8 1.8c-24.2 27.1-48.3 54.3-72.5 81.4z" stroke="#161616" stroke-width="3" stroke-miterlimit="10"/><path class="st2" d="M505.1 684.5v12.6c0 1.9 3 1.9 3 0v-12.6c0-1.9-3-1.9-3 0z"/><path class="st2" d="M505.9 686.6c.3 2.8.7 5.7 1 8.5.2 1.9 3.2 1.9 3 0-.3-3-.5-6-.4-9.1-.9.3-1.9.5-2.8.8 1 2.4.2 5.1 1.2 7.5.6 1.5 3 1.4 2.9-.4 0-2.5.1-5 .3-7.6-1 .1-2 .3-2.9.4.7 1.9 1.3 3.9 1.8 5.9.4 1.4 2.5 1.4 2.9 0 .3-1.3.4-3.3 1.2-4.3-.3.2-.6.5-.9.7.1 0 .3-.1.4-.1-.4-.1-.8-.1-1.2-.2.1.1.2.2.3.2-.2-.4-.5-.9-.7-1.3.5-.6.5-.9-.1-1-.4-.1-.7-.3-1.1-.5-.3-.1-1.1-.7-1.2-.3l-1 1c2.4-.5 4.8-.1 7.1.4 1.9.4 2.7-2.5.8-2.9-2.4-.5-4.8-.6-7.3-.3.1 1 .3 2 .4 2.9 2.5-.5 5-.6 7.6-.4-.5-.6-1-1.3-1.4-1.9-.2 1.2-.9 1.7-2 1.9-.8.1-2.5.3-3.2 0-.6-.2-.6-.7-1-1.2-.2-.2-.5-.4-.8-.5-1.1-.2.2-.1-.3.8-.6.2-1.1.5-1.7.7.3.1.6.2.8.3 1.8.6 2.6-2.3.8-2.9-.3-.1-.6-.2-.8-.3-.6-.2-1.4.1-1.7.7-.7 1.2-.4 2.7.9 3.4.3.1.7.1.9.2-.5-.3 0 .3.1.5.4.7 1.1 1.1 1.9 1.3 3.5.7 8.2.1 9-4 .2-1-.4-1.8-1.4-1.9-2.8-.3-5.6-.1-8.4.5-1.6.3-1.3 3.2.4 2.9 2.2-.3 4.3-.3 6.5.2.3-1 .5-1.9.8-2.9-2.9-.6-5.8-1-8.7-.4-.5.1-.9.6-1 1-.5 2.3 1.5 3.2 3.3 4 1.5.6 3.6 1.5 4.7-.3.8-1.4-.3-3.1-1.9-2.8-2.3.3-2.4 4.2-2.8 5.8h2.9c-.5-2-1.1-4-1.8-5.9-.6-1.6-2.8-1.3-2.9.4-.2 2.5-.3 5-.3 7.6 1-.1 2-.3 2.9-.4-1.1-2.7-.3-5.6-1.5-8.3-.6-1.4-2.8-.6-2.8.8 0 3 .1 6 .4 9.1h3c-.3-2.8-.7-5.7-1-8.5-.4-1.7-3.4-1.7-3.2.2zM1204.9 683v13c0 1.9 3 1.9 3 0v-13c0-2-3-2-3 0z"/><path class="st2" d="M1203.5 683.5v3.1c0 .8.7 1.5 1.5 1.5s1.5-.7 1.5-1.5c.1-1 0-2-.1-3-.1-.8-.6-1.5-1.5-1.5-.8 0-1.5.7-1.5 1.5v2.1c0 1.9 3 1.9 3 0v-2.1h-3c.1 1 .1 2 .1 3h3v-3.1c-.1-1.9-3.1-1.9-3 0z"/><path class="st10" d="M508.2 683l697.9-.9c-6.9-27.4-13.7-54.9-20.6-82.3l-604.8 1.8c-24.2 27.2-48.3 54.3-72.5 81.4z"/><path class="st4" d="M1068.2 610.7c-1.2.3-1.3 6.3 2.1 25.7.9 1.5 2.4 3.7 5.1 5.3 3.2 2 6.9 2 14 1.8 8.2-.1 10.5-1.3 11.5-1.8 2.5-1.4 4.1-3.3 5.1-4.6l1.8-25.5c-1.1 1.4-2.8 3-5.1 3.2-4.1.3-5.4-4.6-10.1-5.1-2.4-.2-2.3 1-10.3 3.9-5.4 2-6.9 1.9-8 1.6-4-.9-5.1-4.7-6.1-4.5z"/><path class="st1" d="M1066.9 581.6c.3 9.4.7 18.8 1 28.3 1.7 2.5 4.3 5.5 7.8 5.9 5.2.5 7.1-5.7 13.3-5.7 4.7 0 6 3.5 12.1 3.6 3 .1 5.4-.7 6.9-1.4-1.2-8.6-.2-15 1-19.3 1.2-4.2 3.1-8.4 1.2-10.7-1.4-1.6-4.1-1.6-6.2-1.4.1-2 .5-4.3 1.4-6.9 2-6 5.2-8.5 4.3-12.2-.3-1.4-1.3-3.1-2.2-3.1-1.6 0-2.4 4.6-5 12.6-1.3 4-2.6 7.3-3.4 9.5-5.8.4-10.4 0-13.4-.5-4.8-.7-8.6-2-13.6-.7-2.4.5-4.1 1.4-5.2 2z"/><path class="st2" d="M769.3 629.2c15.4 17.4 43.6 18.5 65.1 18.9 13.6.2 27.2-.8 40.6-3 12.6-2.1 25.2-5.1 36.4-11.4 1.7-.9.2-3.5-1.5-2.6-21.6 12-49.4 14.1-73.6 13.9-21.2-.2-49.7-.8-64.9-18-1.3-1.4-3.4.8-2.1 2.2z"/><path class="st2" d="M754.7 618.1c1.8 2.6 4.1 2.2 7 3 4.8 1.2 6.1 6.2 10.5 7.6 1.3.4 2.8.4 4.2.5 3.6.4 5.2 1.9 8 3.8 3.3 2.3 6.9 3.4 11 3.4 1.4 0 1.5-2.2 0-2.3-5.1 0-8-2.1-12.1-4.8-2.6-1.7-4.6-2.1-7.6-2.4-4.8-.5-5.9-4.5-9.5-6.6-2.5-1.5-7.9-.8-9.6-3.3-.8-1.2-2.7-.1-1.9 1.1z"/><path class="st2" d="M757.2 617.7c-.3-1.5 6.8-.8 8-1.5 1.8-1 1.5-2.4 2.5-3.7 3.5-4.4 7.1 0 11.1-.6 3-.5 5.8-3.8 8.9-3 2.9.8 3.7 4.4 5.8 6.1 2 1.7 3.5 1 5.7 1.5 4.8 1.2 2 5.1 2.6 8.3.5 2.3.4 2.8-.7 4.7-.7 1.2-3.4 5.3-4.9 4.2-1.2-.8-2.3 1.1-1.1 1.9 2.6 1.9 4.7-.1 6.2-2.3 1-1.4 3-3.1 3.5-4.8.6-2.2-.8-4.7-.6-7.1.3-2.6 1.5-5.4-1.7-6.9-2.7-1.2-5.4.3-7.9-1.8-1.6-1.4-2.3-3.5-3.9-4.9-2.5-2.1-5.1-1.6-7.9-.3-3.4 1.6-5.2 2.3-8.9 1.1-1.9-.6-3.8-1.4-5.8-.5-1.2.5-1.5 1.4-2.2 2.3-1.3 1.9 1.4 2.7-3.3 4-1 .3-2.3-.2-3.2-.2-2.8-.1-5 .9-4.4 4 .3 1.5 2.5.9 2.2-.5zM857.3 634.1c3.3-4.5 4.7-10.1 8.2-14.3 3.6-4.3 14.2-10.1 19-4.3 5.7 6.9-4.6 10.6-9 14-2 1.5-3.7 3.2-5.7 4.7-.8.6-1.6 1.1-2.5 1.6-1.2.7-2.4 1.2-3.8 1.3-2.7.9-4.2-.8-4.5-5.3 1.1-.9-.5-2.5-1.6-1.6-2.1 1.6-2.5 4.6-1 6.8 2 2.9 5.9 3 8.9 2 4.5-1.4 7.8-5 11.5-7.8s9.2-4.6 11.2-9.1c3.5-7.8-5.9-11.9-12.1-10.9-4.6.8-9 3.3-12 6.9-3.7 4.3-5.2 10.1-8.6 14.7-.8 1.3 1.1 2.4 2 1.3z"/><path class="st2" d="M872.7 621.4c-1-.6 1.2-2.1 1.7-2.4.8-.5 2.5-1.1 2.9.2.8 2.6-2.9 2.9-4.5 2.6-1.4-.3-2 1.9-.6 2.2 2.2.5 4.9.4 6.4-1.6 1.2-1.6 1.4-4.1-.2-5.4-3.6-3.1-11.3 3.7-6.8 6.3 1.3.8 2.4-1.2 1.1-1.9zM860.3 638.8c6.1 3.1 12.1.6 17.2-3.3 4.7-3.6 10-7.8 11.1-14 .2-1.4-1.9-2-2.2-.6-.8 4.7-4.1 7.7-7.5 10.6-4.8 4.1-10.9 8.6-17.4 5.3-1.4-.5-2.5 1.4-1.2 2z"/><path class="st2" d="M868.9 639.2c5.5-3.7 10.5-7.9 15.1-12.6 1-1-.6-2.6-1.6-1.6-4.5 4.6-9.4 8.7-14.7 12.2-1.2.9 0 2.8 1.2 2z"/><path class="st2" d="M879.9 632.4c1.1-1.2 2.2-2.3 3.4-3.5 1-1-.6-2.6-1.6-1.6-1.1 1.2-2.2 2.3-3.4 3.5-1 1 .6 2.6 1.6 1.6zM817.4 636.3c-1.9-.3-2-2.6-.8-3.8 1.3-1.2 3.5-1.4 5-.7 1.7.8 2.4 2.6.7 3.8-.9.7-3.8 2-4.8 1.1-1.1-.9-2.7.7-1.6 1.6 2.2 1.9 6.3.5 8.3-1.3 2.5-2.3 1.5-5.7-1.3-7.2-2.8-1.4-6.7-.8-8.5 1.8-1.7 2.4-.6 6.2 2.5 6.7 1.3.4 1.9-1.7.5-2z"/><path class="st2" d="M816.5 630.7c.3-2.5 2.7-4.6 5.2-4.5 1.3 0 2.7.6 3.3 1.8.8 1.4.1 3.1-1.4 3.5-1.4.3-.8 2.5.6 2.2 5-1.1 3.9-7.5 0-9.2-4.6-2-9.3 1.7-9.9 6.3-.3 1.4 2 1.4 2.2-.1z"/><path class="st2" d="M818.8 623.8c-.8-.6 1.7-2.5 2-2.7 1-.6 2.3-.8 3.4-.4 2.6.9 3.2 4.3.6 5.5-1.3.6-.2 2.6 1.1 1.9 4.8-2.3 2.9-8.9-1.9-9.8-2.3-.4-4.7.6-6.2 2.3-1.4 1.5-2 3.7-.2 5.1 1.2.9 2.3-1.1 1.2-1.9zM794.7 614c6.2.2 10-7.6 16.5-3.6 1 .6 1.7 1.5 3 1.9.6.2 1.3.1 1.9.2 2.4.3 4.6.9 6 3.2.7 1.2 2.7.1 1.9-1.1-1.1-1.8-2.2-3.6-4.3-4.3-1.2-.4-2.5.1-3.6-.1-2.5-.3-2.9-1.6-4.8-2.8-6.6-4-10.2 4.5-16.6 4.2-1.4.1-1.4 2.4 0 2.4zM800.2 635.7c4.1-.6 12 4.3 13.5-2.4.3-1.4-1.9-2-2.2-.6-.8 3.4-4.9 1.8-7.1 1.2-1.7-.5-3.1-.6-4.8-.3-1.4.1-.8 2.3.6 2.1z"/><path class="st2" d="M822 613.7v4.9c0 1.4 2.3 1.5 2.3 0v-4.9c0-1.5-2.3-1.5-2.3 0z"/><path class="st2" d="M824.3 614.7c15.3-.2 30.7-.1 46 .4 1.4 0 1.4-2.2 0-2.3-15.3-.5-30.7-.6-46-.4-1.5.1-1.5 2.3 0 2.3zM887 618.1c5 1.3 24.9 5.9 23.2 13-.3 1.4 1.8 2 2.2.6 1-4.2-1.6-7-5.2-8.8-6.1-3-13-5.3-19.6-7-1.4-.3-2 1.8-.6 2.2zM837.1 638.8c-1-1.3.6-3.2 2-2 1.3 1.2-.6 3.2-1.8 1.8-1-1.1-2.6.5-1.6 1.6 1.3 1.4 3.7 1.5 5.1.1 1.3-1.3 1.4-3.6.1-5-1.3-1.3-3.5-1.5-5-.3-1.4 1.2-1.7 3.4-.7 4.9.8 1.2 2.8 0 1.9-1.1zM845.6 633c-.3-.3-.1-.8.1-1.1.3-.5.8-.4 1.2 0 .4.3.5.8.1 1.2-.3.2-.9.4-1.2.2-.5-.4-1.1-.5-1.6 0-.4.4-.5 1.2 0 1.6 1.3 1 3 1 4.3-.1 1.3-1.2 1.2-3.2 0-4.4-1.2-1.2-3.2-1.3-4.4 0-1.1 1.2-1.1 3.1-.1 4.3 1 1 2.5-.6 1.6-1.7zM837 624.6l.2.2v-.2c.1-.1.1-.3.1-.4.2-.3.4-.6.8-.8.6-.3 1.3-.1 1.7.5.6 1-.7 1.9-1.5 1.1-.9-1.1-2.5.5-1.6 1.6 1.1 1.3 3.1 1.3 4.4.3 1.5-1.2 1.3-3.5 0-4.8-1.4-1.4-3.6-1.3-5 .1-1.1 1.1-2 4.2.3 4.6 1.4.3 2-1.9.6-2.2zM931.3 613.6c-4.1 10.2-8.3 20.3-12.7 30.3-.6 1.3 1.4 2.5 1.9 1.1 4.5-10.2 8.8-20.5 12.9-30.8.6-1.3-1.5-1.9-2.1-.6z"/><path class="st2" d="M933 615.2c.4.6.7 1.2 1.1 1.9l-1.2 2.7c-.5 1.2-1.1 2.4-1.6 3.6l-3.6 8.1c-2 4.6-4 9.3-5.9 13.9-.6 1.3 1.6 1.9 2.2.6 3.8-9.2 8.8-18.3 12-27.8.9-2.7-.6-7.7-4.2-5-1.1.9 0 2.8 1.2 2zM918.2 644.2c-6.6.9-11.7 6.6-12.1 13.2-.1 1.4 2.2 1.4 2.3 0 .4-5.7 4.9-10.3 10.5-11 1.3-.2.7-2.3-.7-2.2zM914.5 652c-1.6 2.7-2.7 5.6-3.2 8.6-.2 1.4 1.9 2 2.2.6.5-2.9 1.5-5.6 3-8.1.7-1.3-1.3-2.4-2-1.1zM917.6 653.1c-1.1 2.3-1.8 4.6-2.1 7.1-.2 1.4 2 2 2.2.6.3-2.3.9-4.5 1.9-6.6.5-1.3-1.4-2.4-2-1.1zM920.6 654.1c-.4 2.1-.9 4.3-1.3 6.4-.3 1.4 1.9 2 2.2.6.4-2.1.9-4.3 1.3-6.4.2-1.4-1.9-2-2.2-.6z"/><path class="st2" d="M922.4 647.8c2.7 3 3.5 7.1 2.2 10.9-.5 1.4 1.7 2 2.2.6 1.6-4.6.5-9.5-2.8-13.1-1-1.1-2.5.5-1.6 1.6zM735.4 652.1c12.5-1.4 24.4 2.7 36.7 4.4 3.1.4 7.4 1.6 10.2-.3 4.2-3 7.7-8.6 11.1-12.5 1-1.1-.6-2.7-1.6-1.6-3.1 3.6-6.3 8.8-10.1 11.6-4.3 3.2-13.2 0-18-.9-9.4-1.9-18.6-4-28.3-2.9-1.4.1-1.4 2.4 0 2.2z"/><path class="st2" d="M735.6 651.6c6.2-3.9 12.2-8 18.2-12.2 5.8-4.2 13-9.8 20.2-5.3 1.2.8 2.4-1.2 1.1-1.9-5.6-3.5-11.8-1.8-17.1 1.5-8.1 5-15.6 11-23.6 16.1-1.2.7 0 2.6 1.2 1.8zM1065.7 582.5c0 18.3 1.1 36.6 3.2 54.8.2 1.4 2.4 1.4 2.3 0-2.1-18.2-3.1-36.5-3.2-54.8 0-1.5-2.3-1.5-2.3 0z"/><path class="st2" d="M1069.5 638c4.5 5.4 11.2 7 17.9 6.8 6.6-.1 13.8-.7 18.6-5.7 1-1-.6-2.6-1.6-1.6-4.4 4.5-11.1 4.9-17 5-6.2.1-12.2-1.2-16.3-6.2-.9-1-2.5.6-1.6 1.7z"/><path class="st2" d="M1108.1 587.4c-.8 17-2.1 33.9-3.8 50.8-.1 1.4 2.1 1.4 2.3 0 1.7-16.9 2.9-33.8 3.8-50.8 0-1.5-2.2-1.5-2.3 0zM1070 584.7c11.2 5.6 23.8 6.8 35.8 3.1 1.4-.4.8-2.6-.6-2.2-11.4 3.4-23.4 2.4-34-2.9-1.4-.6-2.5 1.4-1.2 2z"/><path class="st2" d="M1097.7 588c3.8-8 5.4-16.7 8.6-24.9 2.3-5.8 2.1-1.2 1.3 1.1-.9 2.4-1.8 4.9-2.7 7.3-1.8 4.9-3.6 9.7-5.3 14.6-.5 1.4 1.7 1.9 2.2.6 2.7-7.3 5.4-14.6 8-21.9.8-2.1 2.8-7.3-.8-8.3-3.5-1-5 6.3-5.7 8.5-2.5 7.3-4.1 14.9-7.5 21.9-.7 1.3 1.2 2.4 1.9 1.1z"/><path class="st2" d="M1067.6 582.3c.9-2.8 13.3-1.1 15.7-1.1 5.5.1 11.1-.1 16.6.6 1.4.2 1.4-2.1 0-2.3-8-1-16.4-.6-24.5-.7-3.3 0-8.7-1.1-10 2.9-.4 1.3 1.7 1.9 2.2.6z"/><path class="st2" d="M1102.7 582.2c2-.3 5-.8 6.1 1.4.9 1.6-1 2.8-.8 4.6.2 1.4 2.4.8 2.2-.6 0-.3.7-1.2.9-1.6.2-.5.3-1 .3-1.5 0-1.1-.6-2.3-1.4-3.1-2.1-2.1-5.2-1.8-7.9-1.4-1.4.2-.8 2.4.6 2.2zM1067 610.7c3.4 7.2 11.3 7.7 16.8 2.7 6.2-5.6 10.7 1.2 16.9 2.1 3.2.5 5.8-1.2 7.6-3.7.8-1.2-1.1-2.3-1.9-1.1-3.8 5.5-8.2.9-12.2-.8-2.3-.9-4.9-1.4-7.4-.8-1.9.4-3.1 1.5-4.5 2.7-4.5 4-10.5 3.7-13.3-2.3-.7-1.2-2.6-.1-2 1.2z"/></g></svg>