<svg xmlns="http://www.w3.org/2000/svg" viewBox="0 0 1600 1200"><style>.st0{fill:#161616}.st1{fill:#e8e8e8}.st2{fill:#fff}.st3{fill:#ec615b}.st4{opacity:.14;fill:#6d6c6c}.st7{fill:#fff;stroke:#161616;stroke-width:2;stroke-miterlimit:10}.st11,.st8{opacity:.17;fill:#6d6c6c}.st11{opacity:.15}.st12{fill:#5222d0}</style><g id="ground"><path class="st0" d="M340.5 946.2c1.9-1.1 3.9-2.2 5.8-3.3 1.7-.9.2-3.5-1.5-2.6-1.9 1.1-3.9 2.2-5.8 3.3-1.7 1-.2 3.6 1.5 2.6z"/><path class="st0" d="M313.7 959.1l54.9-23.4c18.3-7.8 35.4-15.5 55.9-13.4 18.7 1.9 37.1 9 54.6 15.6 18.3 6.9 36.2 14.7 53.6 23.5 3.4 1.7 6.5-3.5 3-5.2-27.6-13.8-56.5-26-86.1-34.7-14.3-4.2-29.3-7-44.2-4.9-14.9 2.1-28.9 9.2-42.6 15.1-17.4 7.4-34.8 14.8-52.1 22.3-3.6 1.4-.5 6.6 3 5.1zM483.3 1002.9H806c3.9 0 3.9-6 0-6H483.3c-3.9 0-3.9 6 0 6zM752 1022.5H1156.3c3.9 0 3.9-6 0-6H752c-3.8 0-3.8 6 0 6zM900.2 1000.6h451.4c3.9 0 3.9-6 0-6H900.2c-3.9 0-3.9 6 0 6zM545.4 969c17.8 6.3 35.5 13 53 20.1 3.6 1.5 5.1-4.3 1.6-5.8-17.5-7.1-35.2-13.8-53-20.1-3.6-1.3-5.2 4.5-1.6 5.8zM323.4 1017.5h138.1c3.9 0 3.9-6 0-6H323.4c-3.8 0-3.8 6 0 6zM734 1082.4h175.8c3.9 0 3.9-6 0-6H734c-3.9 0-3.9 6 0 6z"/></g><g id="background"><path class="st1" d="M238.7 1017.9c-15.9-10.5-27.8-25.7-36.3-42.6-4.8-9.4-8.5-19.2-11.6-29.2-1.4-4.3-3.7-9.5-4-14-.1-2-.8-1.7 1.3-1.8 1.1 0 2.7.8 3.7 1.1 2.8.8 5.5 1.7 8.3 2.5 1.9.6 2.6-2.3.8-2.9-3.4-1-6.8-2.1-10.2-3.1-1.5-.5-3.8-1.6-5.5-1-2.8.9-1.9 3.8-1.4 6 3.1 12.2 7.1 24.2 12.1 35.7 9 20.6 22.4 39.3 41.3 51.9 1.6 1.1 3.1-1.5 1.5-2.6z"/><path class="st1" d="M198.4 930.5c-14.9-36.4-15.5-76.1-16-114.9-.9.4-1.7.7-2.6 1.1l8.5 8.5c1.4 1.4 3.5-.8 2.1-2.1l-8.5-8.5c-.9-.9-2.6-.2-2.6 1.1.4 39 1.1 79 16.1 115.7.8 1.7 3.7.9 3-.9z"/><path class="st1" d="M191 822.3c.2-24.7 2.9-49.3 8.3-73.4-.7.3-1.5.6-2.2.9 28.6 20.3 39.8 56.4 50.2 88.2 12.2 37.4 21.9 75.9 26.1 115.1 1.2 10.9 1.9 21.8 2.2 32.8.3 11.4.9 23.3-2.2 34.4-.5 1.9 2.4 2.7 2.9.8 2.6-9.6 2.5-19.7 2.4-29.5-.1-10-.6-20-1.5-30-1.8-20.1-5-40.1-9.3-59.8-4.5-20.6-10.1-40.9-16.6-60.9-5.5-17.1-11.2-34.4-18.9-50.7-8-16.7-18.6-32.1-33.8-42.9-.8-.5-2 0-2.2.9-5.4 24.4-8.2 49.2-8.4 74.2 0 1.9 3 1.9 3-.1z"/><path class="st1" d="M259.5 872.1c14.7-43.4 46.5-78.1 64.7-119.8-.9-.3-1.9-.5-2.8-.8 1.8 19.5 3.3 39.1 4.7 58.7.7 9.8 1.2 19.6 1.8 29.4.2 4.6.5 9.1.7 13.7.2 3.5.4 4.4-2.3 6.7-1.9 1.6-4.5 2.8-6.7 4.2-1.6 1-.1 3.6 1.5 2.6 3.3-2.1 6.7-4.2 10-6.3.4-.3.8-.8.7-1.3-1.7-35.9-4.1-71.9-7.4-107.7-.1-1.3-2.1-2.3-2.8-.8-18.4 42-50.2 76.9-65 120.5-.6 2 2.3 2.7 2.9.9z"/><path class="st1" d="M319.5 866.7c14-.8 4.8 29.4 3.2 36.8-2.6 12.2-5.7 24.3-9.3 36.2-7.3 24.1-16.8 47.4-28.2 69.8-.9 1.7 1.7 3.2 2.6 1.5 13.2-25.9 23.8-53 31.6-81 3.9-14.1 7.1-28.4 9.5-42.8 1.3-8 3.6-24.3-9.3-23.5-2 .1-2 3.1-.1 3zM320.3 755.8c-7.5 61-34.1 117.1-50.1 175.9-.5 1.9 2.4 2.7 2.9.8 16.1-59.1 42.6-115.5 50.2-176.7.2-2-2.8-1.9-3 0zM196 749.4c23.3 69.6 42.1 140.7 56.2 212.7 4 20.4 7.6 41 10.9 61.5.3 1.9 3.2 1.1 2.9-.8-11.4-72.5-27.5-144.3-48.3-214.7-5.9-20-12.2-39.9-18.8-59.6-.6-1.7-3.5-.9-2.9.9z"/><path class="st1" d="M181.4 841c26.3 16.1 47.2 39.7 60.1 67.7.8 1.8 3.4.2 2.6-1.5-13.1-28.4-34.5-52.4-61.2-68.8-1.6-1-3.2 1.6-1.5 2.6zM188.9 948.1c26.1 9.2 54.6 19.8 68.8 45.3.9 1.7 3.5.2 2.6-1.5-14.7-26.2-43.8-37.2-70.6-46.7-1.8-.7-2.6 2.2-.8 2.9zM225.2 783.2c-2.4 15.3-3.8 30.6-4 46.1 0 1.9 3 1.9 3 0 .2-15.2 1.5-30.3 3.9-45.3.3-1.9-2.6-2.7-2.9-.8zM277.8 829c2.6 18 5.1 36 7.7 54.1.3 1.9 3.2 1.1 2.9-.8-2.6-18-5.1-36-7.7-54.1-.3-2-3.2-1.1-2.9.8zM303.7 840.4c9.6-8.6 17.8-18.5 24.3-29.7 1-1.7-1.6-3.2-2.6-1.5-6.4 10.9-14.4 20.7-23.8 29.1-1.5 1.3.7 3.4 2.1 2.1zM1202.9 992.7c-9.2-27.1-14.4-55.2-15.6-83.8-.8.4-1.5.9-2.3 1.3 5 2.9 9.9 5.9 14.9 8.8 1.1.6 2.6-.4 2.2-1.7-4.5-12.7-5.3-26.3-1.9-39.4 3.5-13.2 11.2-25.2 17.7-37.1 13.5-24.9 27.1-49.8 40.6-74.7-.9-.1-1.8-.2-2.7-.4 3.2 19.7 6.4 39.5 9.6 59.2 1.6 9.7 3.2 19.4 4.7 29.1.8 4.8 3 10.9.1 15.3-2.4 3.6-6.8 5.6-10.7 7.3-1.3.6-.7 2.3.4 2.7 4.3 1.8 9.5 4.1 11.6 8.5 2.3 5-.5 12.2-1.8 17.4-2.5 10.2-5.5 20.3-9 30.3-7.1 20.1-16.2 39.3-27.1 57.6-1 1.7 1.6 3.2 2.6 1.5 12.5-21.1 22.7-43.5 30.2-66.9 1.8-5.7 3.5-11.5 5-17.3 1.4-5.5 3.3-11.4 3.8-17.1.8-9.3-7.2-13.7-14.6-16.8.1.9.2 1.8.4 2.7 5.9-2.6 12.8-6.3 13.5-13.5.4-4.7-1.1-9.9-1.8-14.4-.9-5.8-1.9-11.6-2.8-17.5-3.7-23-7.5-45.9-11.2-68.9-.2-1.3-2.2-1.4-2.7-.4-14.5 26.6-29 53.2-43.5 79.9-6.4 11.8-13.5 23.5-16.1 36.9-2.4 12.3-1.3 24.9 2.9 36.7.7-.6 1.5-1.1 2.2-1.7-5-2.9-9.9-5.9-14.9-8.8-1-.6-2.3.1-2.3 1.3 1.1 28.8 6.4 57.3 15.7 84.6.6 1.9 3.5 1.1 2.9-.7z"/><path class="st1" d="M1271.6 832.9c20.8-21.8 41.5-43.8 61.9-66-.8-.5-1.7-1-2.5-1.5-3.2 15.8-4.6 32-3.8 48.1.4 8.3 1.6 16.4 2.6 24.6.5 3.7.9 7.5 1 11.2.1 2 .4 5.1-1.8 6.4-1.8 1-6.3.8-8.5 1-1.1.1-2.2 1.7-1.1 2.6 11.7 9.3 1.6 26.3-3.3 36.7-5.3 11.3-11 22.3-17.2 33.1-12.6 22-27.1 42.9-43.2 62.5-1.2 1.5.9 3.6 2.1 2.1 17.8-21.6 33.6-44.8 47.2-69.2 6.9-12.4 13.3-25.2 18.9-38.2 4-9.4 7-21.6-2.3-29-.4.9-.7 1.7-1.1 2.6 5.6-.6 12.6.3 13.3-6.6.8-9.2-1.7-19-2.7-28.1-2.2-19.6-1.2-39.4 2.8-58.8.3-1.4-1.4-2.6-2.5-1.5-20.5 22.2-41.1 44.2-61.9 66-1.4 1.3.7 3.4 2.1 2z"/><path class="st1" d="M1319.4 784.2c-14.7 30.1-17.3 64.7-27.6 96.3-10.9 33.6-26.3 65.5-42.8 96.6-.9 1.7 1.7 3.2 2.6 1.5 16-30.3 31-61.3 41.9-93.8 5.4-16.2 9.4-32.6 13.1-49.3 3.7-17 7.7-34.1 15.4-49.8.8-1.7-1.7-3.2-2.6-1.5zM1252.4 784c-2.8 64.6-28.5 125.3-34 189.5-.2 1.9 2.8 1.9 3 0 5.5-64.2 31.2-124.9 34-189.5 0-1.9-3-1.9-3 0z"/><path class="st1" d="M1202.1 865.6c6.3 17.6 14.1 34.5 23.4 50.7 1 1.7 3.6.2 2.6-1.5-9.2-16-16.9-32.7-23.1-50-.6-1.8-3.5-1-2.9.8zM1232.3 809.8c3.6 13.6 7.1 27.2 10.7 40.8.5 1.9 3.4 1.1 2.9-.8-3.6-13.6-7.1-27.2-10.7-40.8-.5-1.9-3.4-1.1-2.9.8zM1261.6 802.2c-4.5 8.3-8.9 16.7-13.4 25-.9 1.7 1.7 3.2 2.6 1.5 4.5-8.3 8.9-16.7 13.4-25 .9-1.7-1.7-3.2-2.6-1.5zM1283 816.3c1.5 22 3.7 44 6.7 65.9.3 1.9 3.1 1.1 2.9-.8-2.9-21.6-5.1-43.3-6.6-65.1-.1-1.9-3.1-1.9-3 0zM1305.4 838.4c1-5.8 6.5-10.3 10.3-14.6 3.9-4.4 7.9-8.8 11.8-13.2 1.3-1.4-.8-3.6-2.1-2.1-4.8 5.3-9.5 10.6-14.3 15.9-3.5 3.9-7.6 7.7-8.6 13.1-.3 2 2.6 2.8 2.9.9zM186.1 729.5c26.6-1.2 51.4-10.9 77.2-16.4 28.6-6.1 57-3.1 85.2 3.5 27.6 6.5 54.8 14.9 82.2 22.1 27.5 7.3 55 14.2 82.6 20.8 111.1 26.6 223.6 48 336.7 64.1 63.4 9 127.1 16.3 190.9 21.9 1.9.2 1.9-2.8 0-3A3625.04 3625.04 0 01699.8 796c-56.5-10.5-112.8-22.2-168.7-35.4-55.3-13-110.1-27.9-164.9-42.7-29.7-8-60.5-14.5-91.3-10.1-30 4.3-58.2 17.2-88.7 18.5-2 .2-2 3.2-.1 3.2z"/><path class="st1" d="M667 795.1c90-8.7 179.2-24.5 266.7-47.4 44-11.5 87.2-25.5 130.5-39.4 20.9-6.7 42.1-13 63.7-17 23.3-4.4 46.8-5.4 70.5-3.9 26.3 1.7 52.6 5.1 78.8 8 26.3 2.9 52.7 5.7 79 8.6 1.9.2 1.9-2.8 0-3-47-5.1-94-10.8-141.1-15.3-23-2.2-46.1-3.1-69-.2-21.6 2.6-42.9 7.9-63.7 14.1-43.5 12.9-86.3 28.1-130.1 40.1-43.7 12-87.8 22.2-132.3 30.6-50.6 9.6-101.7 16.9-153 21.8-1.9.2-1.9 3.2 0 3zM686.4 941.1c77-.5 136.7-56.6 204.4-84.9 19.7-8.2 40.4-14.2 61.7-15.8 1.9-.1 1.9-3.1 0-3-76.2 5.7-134 62-203 88-20.2 7.6-41.4 12.5-63.1 12.7-2 0-2 3 0 3z"/><path class="st1" d="M962.1 835.7c83.9-18.1 146.5-82 222.4-117.6 21.9-10.3 45.1-18 69.2-21.2 1.9-.3 1.9-3.3 0-3-85.9 11.4-150.6 75.4-224.9 113.8-21.4 11.1-43.9 20.1-67.5 25.2-1.9.3-1.1 3.2.8 2.8zM883.3 413.9c37.1-17.1 79 16.5 115.4-4.8 1.7-1 .2-3.6-1.5-2.6-36 21.1-78.2-12.3-115.4 4.8-1.8.8-.3 3.4 1.5 2.6zM707.7 227.4c40.5-8.6 80.9 4.1 119.8 14.8 38.8 10.7 77.9 17.3 118.2 16.5 22.7-.5 45.3-3.1 67.5-7.6 1.9-.4 1.1-3.3-.8-2.9-41.1 8.4-83.6 9.9-125.2 4.1-39.9-5.6-77.5-20.3-117-27.4-21-3.8-42.4-4.8-63.3-.3-1.8.3-1 3.2.8 2.8zM240.6 345.1c36.4-20.5 78.7-22.2 117.5-7.7 19.6 7.3 38.3 16.3 58.5 21.9 19.3 5.4 39.2 8.6 59.2 9.7 23 1.2 46.1-.6 68.8-5.1 1.9-.4 1.1-3.3-.8-2.9-42.1 8.5-85.9 6.9-127.2-4.8-20.5-5.8-39.5-15-59.4-22.3-18.7-6.8-38.1-10.3-58-9.1-21.1 1.3-41.6 7.3-60 17.7-1.8.9-.3 3.5 1.4 2.6zM1204.8 333.2c-18.1-19.7-24.8-48.1-19.3-74.1 2.8-13.1 8.6-25.7 17.6-35.8 6-6.8 12.8-10.5 21.7-12.2 8.9-1.7 18-2.8 27.1-2.9 31.7-.2 62.5 18.7 70.8 50.5 4.2 16.2 1.1 32.2-6.7 46.7-7.6 13.9-17.9 27.3-31.7 35.4-26.2 15.3-62 10.9-83.5-10.5-1.4-1.4-3.5.8-2.1 2.1 20.3 20.1 52.4 25.9 78.7 15.1 14.7-6 26-17.3 34.8-30.3 9.7-14.3 16.7-30.4 15.3-48-2.6-32.7-29.3-57.7-60.9-62.9-9.3-1.5-18.8-1.3-28.1-.2-8.4.9-17.8 1.7-25.5 5.5-12.9 6.3-21.7 21.2-26.6 34.1-11.4 30-5.4 65.9 16.4 89.6 1.2 1.4 3.3-.7 2-2.1zM345.1 643.7c45.1-6.2 88.4 11.9 130.6 25.2 20.8 6.6 42 12.4 63.8 14 23 1.7 45-2.6 66.7-10 23.1-7.9 45.4-17.7 69.4-22.5 22.4-4.5 45.3-5.4 68.1-4.3 46.4 2.3 91.8 12.6 137.5 20 49 7.8 99.6 12.3 148.1-1.1 1.9-.5 1.1-3.4-.8-2.9-90.1 24.9-181.8-10.9-271.8-18.1-22.1-1.8-44.5-1.9-66.6 1-23.6 3.1-45.7 10.6-67.9 18.9-22.7 8.5-45.7 16.3-70.3 16.5-22.6.1-44.7-5-66.2-11.5-45.9-13.7-92.3-34.8-141.4-28-1.9.2-1 3.1.8 2.8zM694.1 601.8c18.2-9.6 37.6-18.1 58.2-20.6s40.3 2.7 59.6 9.3c19.2 6.5 38.1 13.1 58 17.1 19.4 3.9 39.1 6 58.9 6.3 40.6.6 80.5-6.8 118.6-20.8 38.3-14.1 74.5-33.3 112.1-49 42.7-17.9 88.7-31.4 135.4-26.4 1.9.2 1.9-2.8 0-3-84.4-9-158.7 39.6-233.7 69.9-38.9 15.7-79.4 25.5-121.4 26.3-20.7.4-41.5-1.2-61.9-4.8-20.3-3.6-39.7-9.6-59.1-16.4-20.9-7.3-42.3-13.9-64.7-11.6-21.8 2.2-42.2 11.1-61.5 21.2-1.7.8-.2 3.4 1.5 2.5zM482.5 407.2c33.5-20.1 72.9-5.4 106.9 5.2 35.2 11 71.9 16.2 108.9 14.4 20.8-1 41.4-4.2 61.5-9.3 1.9-.5 1.1-3.4-.8-2.9-37.2 9.5-76 12-114.1 7.1-19.5-2.5-38.5-7.1-57.3-13.1-17.3-5.5-34.6-11.5-52.8-13.7-18.4-2.2-37.6-.1-53.7 9.6-1.7 1.1-.2 3.7 1.4 2.7z"/></g><g id="cat"><path class="st0" d="M945.5 1007.8c0 7.7 7.2 13.3 15.5 19.9 7.8 6.1 20.3 13.9 38 17.2 2.9 10 8.9 29.3 12.9 28.3 3.3-.8 4.8-16.3 2.9-28.9-.7-4.7-1.4-9.1-3.9-13.6-5.9-10.3-13.6-6.9-21.9-15-10.4-10.2-6.4-23.6-14.4-28.4-10.3-6.2-29.1 7.9-29.1 20.5z" id="back_leg_right"/><path class="st0" d="M945.6 1022.8c-.9 7.5 5.7 14.4 13.3 22.5 12.6 13.4 25.6 20.1 34.9 23.5 2 14.1 5.6 34.6 9.6 34.5 3.7-.1 7.6-17.1 6.8-31.9-.3-5.5-.5-9.6-2.4-14.1-4.9-11.7-13.6-8.9-20.1-18.8-7.3-11.3-1.1-22.4-7.2-29.3-8.8-10-33.3.3-34.9 13.6z" id="back_leg_left"/><path class="st0" d="M847.8 994.9c-3.7-.4-5.4 7.3-12.1 19.4-3.7 6.8-12.9 23.5-26.9 33-11 7.4-20.6 7.5-20.5 11 .1 2.6 5.5 4.3 8.4 4.7 7.1 1 12.4-3.7 14.1-5.2 11.3-7.2 20.2-14.6 26.5-20.4 15.6-14.3 17.4-20.5 17.7-25.1.5-8.1-3.3-17-7.2-17.4z" id="front_paw_right"/><path class="st0" d="M848.1 984.4c5.4 2.9 13.3 6.6 23.1 9.4 6.2 1.7 25.3 6.4 54.5 1.3 32.3-5.7 40.5-17.1 49.3-8.7 9.2 8.8 11 32.2 4.1 46.2-4.2 8.5-12.8 11.8-29.9 18.5-13.4 5.2-23.4 9.1-37.8 9.4-16.9.4-29.3-4.5-36.6-7.3-15.2-6.1-28.5-11.4-33.7-26.7-2.2-6.4-2.3-12.6-2-16.7 3.1-8.5 6.1-17 9-25.4z" id="body"/><path class="st0" d="M949.9 997.7c.8-5.8 7.5-7.3 13.3-11 15.3-9.9 13.2-28.8 23.7-31.4 8.9-2.2 12.7 10.9 21.7 8.4 10.6-3 13.6-23.4 17.3-22 2.7 1 4.3 13.6 0 21.5-4.4 8-13.6 8.9-24.1 9.9-10.5 1-11.3-1.4-15.7 1-8.1 4.6-6.6 13.5-16.5 23-5.6 5.4-14.4 10.7-18.1 6.8-1.3-1.4-1.9-4-1.6-6.2z" id="tail"/><path class="st0" d="M852.4 1006.6c-3.7-.4-5.4 7.3-12.1 19.4-3.7 6.8-12.9 23.5-26.9 33-11 7.4-20.6 7.5-20.5 11 .1 2.6 5.5 4.3 8.4 4.7 7.1 1 12.4-3.7 14.1-5.2 11.3-7.2 20.2-14.6 26.5-20.4 15.6-14.3 17.4-20.5 17.7-25.1.5-8.1-3.3-17-7.2-17.4z" id="front_paw_left"/><g id="head_1_"><path class="st0" d="M800.9 991.9c2.4 15 .2 18.1 3.9 23 5.6 7.5 16.1 8.5 17.9 8.7 7.8.8 9-2.4 17.4-1.5 9.4 1 10.9 5.1 15.6 3.6 6.9-2.2 8.9-13.1 9.5-16.5.1-.3.1-.6.1-.8.8-6.7-.8-12.7-3-17.4-13-5.6-20.7-12.6-25.4-17.9-5-5.7-8.1-11.5-10.8-10.8-3 .8-3.4 9.1-3.3 15.6l-10.8 3c-9.3-9.4-12.5-10.1-13.8-9.3-2.1 1.2.6 6.8 2.7 20.3z"/><path class="st2" d="M817.9 1005.3c.8 3.2 3.8 5.3 7.1 5.1.5 0 .5-.8 0-.8-2.9.3-5.6-1.6-6.3-4.5-.2-.4-.9-.2-.8.2z"/><path class="st2" d="M817.6 1005.1c0 1.2 0 2.5-.3 3.7-.1.6-.3 1.1-.6 1.6 0 0-1.4 2-1.6 1.7-.2-.4-.9 0-.6.4.6 1.1 2.1-.6 2.5-1.1 1.3-1.8 1.4-4.2 1.4-6.3-.1-.5-.8-.5-.8 0z"/><path class="st2" d="M817.8 1004.7c-.2.3.3.1.2.2-.3.2-.3-.2 0-.3.3 0 .3.4.2.5-.1.1-.1.1-.2.1s-.2 0-.2-.1v-.1c-.1 0-.2 0-.2-.1-.4-.3-.8.4-.4.6.5.3 1.4.3 1.4-.5 0-.6-.8-1-1.3-.5s-.2 1.3.4 1.4c.7.2 1.3-.3 1.3-1 0-.6-.4-1.2-1.1-1.1-.6.1-1.1.8-.8 1.4.3.5 1 .5 1.4.2.4-.3.4-1-.1-1.3-.5-.3-1.3 0-1.3.6 0 .7 1.1.8 1.4.2.2-.3-.5-.7-.7-.2zM808.1 999.4c1.2-1.8 3.9-2.2 5.5-.7.4.3.9-.2.5-.5-2-1.8-5.2-1.3-6.7.9-.2.3.5.7.7.3zM822.5 996.4c1.5-2 4.2-2.6 6.5-1.6.4.2.8-.4.4-.6-2.7-1.2-5.7-.4-7.5 1.9-.3.3.3.6.6.3zM828.5 968c1.3 2.5 2.2 5.2 2.6 8 .1.5.8.3.7-.2-.5-2.9-1.4-5.6-2.7-8.2-.1-.4-.8 0-.6.4zM825.3 975.9c.3.8.8 1.6 1.4 2.2.3.3.8-.1.6-.5-.4-.8-.6-1.7-.6-2.6l-.4.4c.6 0 1.2-.1 1.7-.1.2 0 .4-.2.4-.5-.2-.6-.3-1.3-.5-1.9-.1.2-.2.3-.4.5h2c.5 0 .5-.8 0-.8h-2c-.2 0-.4.2-.4.5.2.6.3 1.3.5 1.9.1-.2.2-.3.4-.5-.6 0-1.2.1-1.7.1-.2 0-.4.2-.4.4 0 1.1.2 2 .7 3 .2-.2.4-.3.6-.5-.5-.6-1-1.3-1.3-2.1-.2-.3-.8.1-.6.5zM813.7 1007c-2-.8-4-1.8-5.8-3-.4-.3-.8.4-.4.6 1.9 1.2 3.9 2.2 6 3.1.5.2.7-.5.2-.7zM812.1 1008.5c-1.1.2-2.1.5-3 1-.4.2-.1.9.4.6.9-.5 1.8-.8 2.8-.9.4-.1.2-.8-.2-.7zM823.4 1004.6c2-1.6 4.1-3 6.3-4.4.4-.2 0-.9-.4-.6-2.3 1.4-4.4 2.9-6.5 4.5-.3.3.2.8.6.5zM825.1 1006.3c2.3-.6 4.6-1.2 6.8-1.7.5-.1.3-.8-.2-.7-2.3.6-4.6 1.2-6.8 1.7-.5.1-.3.9.2.7z"/><path class="st2" d="M814 1013c3.4-1.2 4.2-4.8 4.3-8 0-.5-.7-.5-.8 0-.2 2.8-.8 6.1-3.8 7.2-.4.2-.2 1 .3.8z"/><path class="st2" d="M814 1013c1.9-.7 3.3-2.3 3.7-4.3.1-.5-.6-.7-.7-.2-.3 1.8-1.4 3.2-3.1 3.8-.5.2-.3.9.1.7zM800.2 976.8c2.3 2.5 4 5.3 5.2 8.5.2.4.9.3.7-.2-1.2-3.3-3-6.2-5.4-8.8-.3-.3-.8.2-.5.5z"/><path class="st2" d="M804.2 982.3c-.6.1-1.2.1-1.8.2-.3 0-.5.4-.3.6.4.3.7.9.5 1.4-.1.4-.5.6-.5 1 0 .2.1.5.3.6.2.2.6.3.6.5 0 .5.8.5.8 0 0-.4-.2-.5-.4-.8-.1-.1-.4-.2-.4-.3-.1-.3.2-.5.3-.7.3-.8.1-1.8-.6-2.3l-.3.6c.6-.1 1.2-.1 1.8-.2.5.1.5-.7 0-.6z"/></g></g><g id="girl_running"><g id="leg_right"><path class="st0" d="M915.3 892.4c22.8 6.4 45.6 12.9 68.4 19.3 6.5 6.3 16.6 14.9 30.7 21.9 24.3 12.1 53.7 16.2 56.1 10.5 1.1-2.5-5.1-8.1-17.5-19.3-10.6-9.5-15.3-12.4-22.8-19.3-5.5-5.1-13.1-12.8-21-23.7-9.1-.1-20.1-1-32.3-3.6-19.7-4.3-35.3-11.5-46.1-17.7-5.2 10.7-10.4 21.3-15.5 31.9z"/><path class="st3" d="M695.3 639.7c-15.3 23.7-4.1 53.2 8.3 85.6 17.7 46.6 44.9 77.4 58.8 91.8C824.6 881.7 901 909.3 945 921.3c4.5-20.6 8.9-41.3 13.4-61.9-30.4-16.5-52.8-34.5-68.1-48.5-25.7-23.5-68.7-62.8-86.7-123.8-11.1-37.8-4.1-54.9-20.6-67.1-23-16.8-69.9-8-87.7 19.7z"/><path class="st4" d="M795.8 650.9c-8.4 13.6-19 35.7-15.9 61.2 3.6 29.5 23.6 48.2 71.2 90.2 41.8 36.8 76.5 66.7 100.8 87.4 2.1-10.1 4.1-20.1 6.2-30.2-15.8-8.9-36.3-21.9-58.4-40.1-12.2-10.1-30-24.9-49.1-48.3-13.2-16.2-30.9-38.2-43.2-71.7-7.1-19.4-10.1-36.5-11.6-48.5z"/><path class="st4" d="M823.2 734.4c2.7 9.3 7.5 22.7 16.2 37.4 7.6 12.8 18.3 26.8 55.7 58.6 14.9 12.6 34.7 28.7 59.2 46.4 1.4-5.7 2.7-11.4 4.1-17.1-13.8-7.6-24.9-14.8-32.8-20.3-24.5-17-41.3-33.1-51.4-42.9-6.2-6-13-12.7-21.5-22.3-13.2-15.3-22.8-29.3-29.5-39.8z"/></g><g id="leg_left"><path class="st0" d="M604.1 866.9l38.1 34.2c-13.9 50.4-18.1 76.6-12.5 78.9 6.7 2.7 27.5-29.5 62.5-96.6-22.6-15.8-45.1-31.6-67.7-47.3-6.9 10.2-13.7 20.5-20.4 30.8z"/><path class="st3" d="M694.2 617c-44.6 31.8-77.5 55.4-93.9 67.1-60.1 43-90.2 65-92.9 86.7-5.2 42.3 42.7 86.1 55.7 98 12.2 11.2 23.8 18.9 32 23.7 6.6-1.4 24.9-6 40.2-22.7 13.4-14.5 17.3-30.4 18.6-37.1-16.9-15.8-33.9-31.7-50.8-47.5 33.4-16.4 60.8-29 79.6-37.4 26.5-11.9 35.8-15.4 50.1-25.5 18.1-12.7 42.2-30 49-59.8 1.7-7.5 6.3-27.3-4.1-41.3-13-17.6-47-20.5-83.5-4.2z"/><path d="M745 639.1c3.4 2.4 33.3 24.2 28.3 45.1-.6 2.3-2.1 7.1-16.1 19.3-18.7 16.4-36.3 25.8-45.1 30.3-18.8 9.7-32.4 15.5-45.7 21.3-15.5 6.7-37.8 16.7-65 29.6 17.2 15.9 34.3 31.8 51.5 47.7-.6 4.6-1.9 10.4-4.5 16.7-4 9.8-9.5 16.9-13.5 21.3-5.7-10.9-13.6-23.7-24.5-36.7-18.4-22.1-38.1-36.3-52.8-45.1 36-15.4 84.7-41.7 132-86.3 23-21.8 41.2-43.6 55.4-63.2z" opacity=".12" fill="#6d6c6c"/><path d="M770.6 679.9c-5-5.4-37.1 16.4-52.7 26.8-29.4 19.7-72.5 47.2-130.7 80.5 22.5 15.5 45 31.1 67.5 46.6-17.2-16.4-34.5-32.8-51.7-49.2 5.5-2.7 14.8-7.2 26.4-12.7 19.5-9.3 40.5-19 68.7-32.2 4.9-2.3 19.3-9.1 37.5-19.3 11.9-6.7 23.6-13.7 31.2-27.4 2.2-3.9 6-10.7 3.8-13.1z" opacity=".19" fill="#6d6c6c"/></g><g id="hand_right"><path class="st7" d="M729.8 425.5c-5-5.4-15.4-3.2-20.6-2.1-17.9 3.7-28 14.4-44.7 29.1-9 7.9-22.1 18.8-39 31.2-5-22.5-9.9-44.9-14.9-67.4 2-2.5 5.3-7.4 6.4-14.2.6-3.6 2.1-16.3-6.6-24.3-9.6-8.9-27-7.6-35 1.6-8.1 9.3-3.9 23.5-1.9 30.3 1.9 6.4 4.8 11.3 7.1 14.5-.7 7.1-1.4 17.4-.7 29.8.7 13.3 1.5 26.9 7.8 41.9 5.1 12.1 11.2 26.6 24.1 31.9 14 5.8 28.5-2.5 56.8-19.2 44.4-26.2 55-47.9 57.5-53.2 2.7-5.7 10.4-22.6 3.7-29.9z"/><path class="st0" d="M607.5 406.5c-3.4-2.9-7-6.2-8.2-10.7-.5-2-.9-4.8 2.8-4.3.9.1 2.2 1.2 2.9 1.7 2.1 1.4 4 3.2 5.7 5 .7.7 1.7-.4 1.1-1.1-2.2-2.4-11.1-11.6-13.8-5.7-2.7 6 4.6 12.8 8.5 16 .7.8 1.7-.3 1-.9zM574.1 381.3c.5 7.3 2.8 18.4 12.6 16.8 1-.2.5-1.6-.4-1.4-8.7 1.4-10.3-9.2-10.7-15.4-.1-.9-1.6-.9-1.5 0zM584.1 375.1c4.3 6 5.3 13.2 2.9 20.2-.3.9 1.1 1.3 1.4.4 2.5-7.3 1.4-15.1-3.1-21.4-.5-.8-1.8 0-1.2.8zM595.3 372.6c3.8 7 2.9 15.3-2.3 21.4-.6.7.4 1.8 1.1 1.1 5.6-6.5 6.7-15.6 2.5-23.2-.4-.9-1.7-.1-1.3.7zM607.7 377.7c1.7 3.8.8 8.1-2.2 10.9-.7.7.4 1.7 1.1 1.1 3.5-3.3 4.5-8.4 2.5-12.8-.5-.9-1.8-.1-1.4.8z"/><path class="st8" d="M583.8 373.5c1.7-.5 3.8-1.1 5.8-.3 5.4 2.2 7.8 13.3 3 19.1-1.9 2.4-4.6 3.3-6.3 3.8.1 1.7.2 4.5.4 8 0 0 .5 9.3 1.1 17.2 1.6 21.2 3.2 41.4 11.8 62.4 2.7 6.7 7.3 16.1 15.1 26.7 4-.8 12.1-2.8 21.6-6.8 54.5-23.1 81.9-84.5 91.6-79.5 1.8.9 3.3 4.4 3.5 5 1.8 4.4.9 8.7-.5 13.3-3.6 11.6-9.1 20.1-10.7 22.5-5.9 8.8-11.5 14.5-13 16-6.6 6.6-12.5 10.6-23.4 17.6-20.4 13-30.6 19.5-37.5 22.3-14 5.7-25.9 10.6-36.9 5.4-6.6-3.1-9.9-8.4-14.7-16.4-10.2-17.2-12.1-34-13.6-49.6-.9-8.9-1.5-21.1-.5-35.7-5.6-9-7.8-17.1-8.8-22.2-1.3-6.7-2.3-12.3.5-18.4.8-1.2 4.2-8.3 11.5-10.4z"/><path d="M731.6 434.1c-1.1-.5-4.5 4.7-8.1 10.1-5.2 7.9-7.8 11.9-12.1 20.9-12.1 25.4-52.4 45.9-57.6 48.6-8.2 4.1-20 9.2-35.2 12.8-7-6.4-19.9-19.7-27.2-38.5-4-10.3-5.5-20.5-5.8-22.2-1.1-7.1-1.2-12.6-1.3-18.9-.1-8.7.2-16.3.8-22.4-2.2-4.1-4.3-8.8-6.3-13.8-3.4-8.7-5.6-16.8-7-23.9-.4 5.6-.3 13.9 2.5 23.4 1.8 6 4.1 10.9 6.3 14.6-1.9 16.2-1.2 29.7 0 39.3 0 0 2.7 22.2 14.3 46.8 1.9 4 4.6 9.1 10.1 13.1 7.1 5.1 14.7 5.5 17.1 5.5 4 .1 8.6-.5 26.9-10.1 15.9-8.3 26.9-15.4 31-18.1 7.7-5 11.5-7.6 15.6-10.8 8.4-6.7 22.1-17.7 30.5-35.7 4.3-9.4 6.9-20 5.5-20.7z" opacity=".2" fill="#6d6c6c"/></g><g id="torso"><path class="st7" d="M738.8 401.9c-19.4 13.3-42.8 34.3-52.6 65.7-7.2 23.1-2.5 38.6-3.5 75.9-.6 21.3-2.8 52.2-10.6 90 4.6 4.9 32 32.8 74.2 31.8 26.2-.6 45-12.1 53-17.7-6-37.6-4.4-67.6-1.8-88.3 4.7-36.7 16.9-58 16.8-99.8 0-20.4-2.8-37.1-5.2-48.2-5.3-4-15.4-10.5-29.6-13.3-19-3.5-34.3 1.4-40.7 3.9z"/><path d="M768.5 398.2c.2 9.8.2 24.2-1.4 41.4-1.8 20.5-6 48.7-23.7 103.8-9.4 29.3-23.1 67.4-42.7 111.2 10.9 5.9 20.6 8.4 27.1 9.5 24.1 4.1 43.6-3.2 52.9-6.8 8.2-3.2 14.6-6.8 19-9.5-1.7-10.3-3.5-24.4-4.1-41.4-.3-8-.8-34.1 5.4-70.5 5.7-33.6 10.2-35.4 12.9-57.7 3.3-27.9-.6-51.6-4.7-67.8-5-3.3-12.8-7.7-23.1-10.2-6.8-1.6-12.9-2-17.6-2z" opacity=".13" fill="#6d6c6c"/><path class="st11" d="M785.4 400.9c1 18.7 1.4 43-.7 71.2-1 13.8-3.2 41.3-10.2 71.9-6.3 27.8-19.4 70-48.8 118 7.3 1.7 17.9 3.3 30.5 2 20.4-2.1 35.2-10.5 42.7-15.6-6-42.6-3.2-76 .7-99 3.7-21.8 8-32.6 10.9-56.3 4.1-34.3 1.2-62.9-2-82.1-2.3-2.1-6.1-5.2-11.5-7.5-4.6-1.7-8.7-2.3-11.6-2.6z"/></g><g id="hand_left"><path class="st7" d="M794.8 414.1c14.4 0 33.2 1.5 54.5 7.1 27.2 7.2 48.1 18.4 62 27.4 4.6 12.4 13 40.4 5.2 74-3.9 17-10.7 30.1-16.5 39.1-.4 10.2 1.9 16.9 4.2 21.2 2.6 5.1 6.6 9.7 5 14-.8 2.2-2.8 3.5-4.3 4.3-.1.3-1.3 2.6-4 3.3-3.1.7-5.3-1.3-5.5-1.5-.6.5-3.2 3-7.3 3-4.5.1-7.3-2.8-7.8-3.3-.9.4-3.1 1-5.8.5-3.7-.7-5.7-3.3-6.3-4-2.1-1.7-7.5-6.8-8-14.3-.2-2.8.4-5.4 2-9.3 2-4.8 6.1-12.7 14.8-21 2.7-12.6 4.7-28.9 3.6-47.8-.6-9.7-1.9-18.4-3.5-26.1-15.2-5.6-34-10.9-55.9-13.6-8.8-1.1-17.2-1.6-25-1.7-13.3-7.3-19.9-21.4-16.8-33.6 3.2-11.3 13.5-16.7 15.4-17.7z"/><path class="st0" d="M865.1 577c-1.7 7.8-1.9 15.8 3 22.5.6.8 1.9 0 1.3-.8-4.7-6.4-4.5-13.9-2.9-21.3.2-.9-1.2-1.4-1.4-.4zM873.9 580.5c.1 7.5 1.3 16.4 6.3 22.3.6.7 1.7-.3 1.1-1.1-4.7-5.5-5.8-14.2-5.9-21.2 0-1-1.5-1-1.5 0zM884.5 581.8c.7 7.5 3.6 17.2 10.3 21.5.8.5 1.6-.8.8-1.3-6.2-4-8.9-13.3-9.6-20.2-.1-1-1.6-1-1.5 0zM893.3 582.7c1.2 7.5 5 14.1 10.8 19 .7.6 1.8-.4 1.1-1.1-5.7-4.7-9.2-11.1-10.4-18.3-.2-1-1.6-.6-1.5.4z"/><path class="st8" d="M781.4 428.6c17-1.4 46.1-1.4 78.8 11.1 19.2 7.4 34.1 16.9 44.6 25 6.1 57.5-2.5 82-12.2 93.5-2.1 2.4-10.4 11.6-11.4 24.8-.8 10 2.7 22.2 7.6 22.9 2 .3 3.9-1.4 5.4-3.1 2.9 2.1 5.1 2 5.9 1.8.7-.1 1.7-.4 5.5-3.3 3-2.3 4.5-3.5 4.8-4.1 1.9-3.7-3.3-8.7-6.7-15.2-2.2-4.2-4.4-10.6-4.1-20 6.9-11 19.9-35.4 20-68.4.1-19.2-4.3-34.8-8.1-45.1-8.9-5.9-16.8-9.9-22.6-12.6-1.5-.7-1.7-.9-26.3-10-10.3-3.8-12.4-4.6-16.3-5.5-5.4-1.3-5.7-.9-18.1-3-6.4-1.1-12.8-1.9-19.2-3-1.7-.3-8.1-1.3-13.7.4-.8.3-2.7.8-4.8 2.2-.5.4-2 1.4-4.1 3.7-1.3 1.8-3.2 4.3-5 7.9z"/><path class="st4" d="M910.5 449.9c1.9 17.7 2.1 32.7 1.9 43.9-.3 14.1-.5 22.2-3.1 33.2-3.4 14.5-9.3 27.3-9.9 28.6-3.1 6.5-3.6 6.5-5.3 11.1-2.4 6.5-7.2 19.2-1.5 29 .7 1.3 4.7 8.2 10.3 7.6 5.2-.5 7.9-7.3 8-7.6-2.4-4.1-5-9.4-7.2-15.6-1.9-5.5-3.1-10.6-3.8-14.9 5.8-9.3 12.9-23 16.8-40.8 7.3-34.1-1.5-62.1-6.2-74.5z"/></g><g id="head"><path class="st12" d="M715.4 333.6c-22 3.5-28.6 34.5-29.3 37.6-1.5 7-5.4 25.3 6.7 38.9 11.9 13.4 30.3 11.9 32.6 11.7 4.6-.4 15.5-2.3 23.8-10.9 14.6-14.9 13-41.3 1.3-58.1-1.4-1.9-16-22.2-35.1-19.2z"/><path class="st7" d="M727.4 373.1c-.5 4.3 1.6 6.5 7.2 18.2 4.4 9.2 7.3 16.9 9.1 21.8 3.6.8 13.1 2.5 23.7-2 7.2-3 11.8-7.6 14.2-10.4-3.2-5.2-7.5-12.9-11-22.8-5.5-15.2-4.2-21.1-9.2-24.1-10-5.7-32.6 6.4-34 19.3z"/><path class="st7" d="M708.6 262.4c-7.8 5.4-10.6 13.5-16 29.2-6.1 17.8-10.1 33.3-11.1 44.3-.2 1.6.8 3.2 2.4 3.8 2.1.8 5.6.8 7.6 1.1.2 4.9 1.1 11.7 4.2 19.1 6.1 14.7 16.9 22.9 21.9 26.1 6.2.6 21.8 1.3 37.2-8.1 10.2-6.3 15.5-14.1 16.7-16 7.8-11.9 8.5-23.8 8.5-28.9 2.4-.2 6.2-.8 9.9-3.3 7.6-5.1 13.3-16.9 8.5-23.4-3.6-4.7-12.6-6-21.1-1.8-.2-3.7-.9-8.8-2.8-14.7-.5-1.4-4-12.2-10.5-19.5-12.6-14-39.6-19-55.4-7.9z"/><path class="st0" d="M733.7 389c9.9-.9 18.8-5 25.9-12 1.4-1.4-.8-3.5-2.1-2.1-6.5 6.5-14.6 10.3-23.8 11.2-1.9 0-2 3 0 2.9z"/><path class="st0" d="M735.2 391.5c10.3-2.9 19.4-8.3 26.8-16.1 1.3-1.4-.8-3.5-2.1-2.1-7 7.4-15.6 12.6-25.4 15.3-2 .5-1.2 3.4.7 2.9z"/><path class="st12" d="M688.1 303.8c-1.4-1.3-12.3-12-10.7-27.7 1.8-16.7 16.3-24.7 18.7-26 12.8-7 25.4-4.1 28.3-3.3 4.5-2.8 12.6-7 23.3-8.3 15.9-2 28.3 3.2 33.3 5.7 6.6 2 16 5.9 23.8 14.3 10.9 11.7 8.4 21.4 19.6 41.1 4.4 7.8 4.2 5.3 20.9 27.7 15 20.1 22.5 30.3 23.7 37.7 2.5 16.2-6.2 33-17 42.9-21 19.2-58.4 20-76.2.7-14.7-15.9-11.4-40.3-10.4-48.1 1.8-13.3 6.8-23.4 10.4-29.3 1.7.3 4.3.7 7.2 0 5.5-1.2 12.1-5.7 13.3-12.9.1-.5 1.5-10.3-5.5-14-4.4-2.3-10.2-1.3-14.2 2.6-5-1.7-13.3-5-21.5-12s-12.9-14.5-15.3-19.2c-3.6-1.6-10.7-3.9-19.4-2.8-17.1 2.2-26.3 16.1-27.7 18.3-1.5 4.1-3.1 8.3-4.6 12.6z"/><path class="st0" d="M710.4 313.1c-.3-1-.5-1.9-.5-2.9 0-.6 0-1.2.1-1.8.1-.6.4-.9-.1-1.3-.7-.5-.3.5-.2.9v1.6c0 .5 0 2.8-.5 3.1.4-.1.8-.1 1.2-.2.3.4.4.4.3 0 0-.3-.1-.5-.1-.8-.1-.6-.2-1.1-.2-1.7 0-1.1.1-2.2.7-3.1 1-1.7-1.6-3.2-2.6-1.5-.8 1.4-1.1 3-1.1 4.7 0 1.4.1 3.5 1 4.6.8 1.1 2.3 1 3.2 0 1.1-1.2 1.2-3.5 1.3-5.1.1-1.4.2-3.3-.7-4.5-.8-1.1-2.2-1.3-3.3-.5-2.5 1.9-2 6.8-1.2 9.4.3 1.7 3.2.9 2.7-.9zM703.4 300.3c4.6-3.6 11.5-2.6 14.8 2.1.8 1.2 2.8 0 1.9-1.1-4.3-6-12.6-7.1-18.4-2.6-1 .9.6 2.5 1.7 1.6zM694.4 353.4c6.4-2 11.9-5.6 16.2-10.6.9-1.1-.6-2.7-1.6-1.6-4.1 4.8-9.2 8.2-15.2 10.1-1.4.3-.8 2.5.6 2.1zM710.3 322.8c0-.3-.1-.2-.3.4-.2.1-.4.1-.6.2h.1c-.2-.1-.4-.1-.6-.2l-.1-.1c-.1-.2-.2-.3-.3-.5v-.1c.1-.2.1-.4.2-.6l.4-.4c.3 0 .6-.1.9-.1h-.1c-1.4-.3-2 1.8-.6 2.2 1.3.3 2-1.3 1.1-2.2-.4-.4-1.1-.4-1.6-.2-.5.3-.7.9-.7 1.5-.1 1.6 2.2 1.6 2.2.1zM720.2 314.5s.1 0 .1-.1h.6c.5.1.7.7.4 1.1l-.4.4c-.1 0-.2.1-.4.1-.2-.1-.4-.1-.6-.2l-.1-.1c-.1-.2-.2-.3-.3-.5 0-.3 0-.5.2-.7.2-.1.3-.2.5-.3h.2c-.6-.1-1.1.6-1.1 1.1 0 .7.5 1 1.1 1.1.8.1 1.4-.7 1.4-1.5 0-.9-1-1.5-1.8-1.2-1.7.7-.2 3.6 1.3 2.5.5-.3.7-1 .4-1.5-.2-.3-1-.5-1.5-.2zM720 325.3c.4.2.4.8 0 1-.6-.3-1.1-.6-1.7-1v.9c.5-.4.9-.7 1.4-1.1.1.2.1.3.2.4-.1-.6-.5-1.1-1.1-1.1-.6 0-1.2.5-1.1 1.1.1.8.6 1.6 1.4 1.7.7.1 1.4-.3 1.4-1.1v-.9c0-.9-1-1.4-1.7-1-1.1.6-1.1 2.2 0 2.9 1.4.8 2.5-1.1 1.2-1.8z"/><path class="st11" d="M739.1 275.4c1.7 5.4 3.8 13.2 5.5 22.7 3.6 19.9 7.1 37.9 0 55.9-6.1 15.6-17.1 26-25.8 32.2 7-.3 15.5-1.3 24.9-4 4.5-1.3 8.6-2.8 12.3-4.3 1.4 5.2 2.8 12.2 2.8 20.6 0 5.9-.7 11.1-1.5 15.3 1.9.1 5.5.1 9.5-1.5 3.6-1.5 6-3.6 7.4-4.9 2.1 2.2 5.4 5 9.8 7.7 15.9 9.4 32.5 6.9 37.1 6.1 4-.7 24.5-4.5 37.8-23 3.7-5.1 11-15.4 9.8-29.8-1.1-13.5-9.2-22.3-12-25.2-1.5 3.7-5.6 12.1-14.7 18.4-1.7 1.2-15.8 10.6-32.5 6.1-15.5-4.1-27.3-18.7-29.5-36.5 1.5 0 4-.1 6.8-1.2 1.4-.6 6.3-2.9 8.6-8.6.4-1.1 2.3-5.9 0-11.1-.4-.9-2.9-6.5-8.9-7.4-5.4-.8-9.4 2.9-9.8 3.4-5.9-1.9-16.2-6-25.8-15.3-5.8-5.5-9.5-11.2-11.8-15.6z"/><path d="M786.7 329.7c-3.8-.9-7.6-1.8-11.4-2.8-1.5 2.1-3.6 5.2-5.8 9.2-5.4 9.7-6.5 15.7-9.5 22.4-2.4 5.4-6.7 12.7-14.7 20.3 4.6-1.6 9.2-3.3 13.8-4.9 2.2 4.5 5.8 13.4 4.9 24.9-.4 5.5-1.7 10.1-3.1 13.5 4.5-1.5 9-3.1 13.5-4.6-2.2-2.9-5.2-7.4-7.4-13.5-3.1-8.7-2.9-15.9-2.8-22.4.1-2.9.5-12 4-23.3 2.2-6.9 4.8-12.5 7.1-16.6 1.5.2 3.8.3 6.4-.3 2.1-.5 3.8-1.2 5-1.9z" opacity=".23" fill="#6d6c6c"/><path d="M691.2 356.1c-.9 2.3-5.3 14.3.9 26.2 4.7 9.1 16 18.9 27.6 15.9 7.8-2 12-8.8 13.4-11.1l11.4 27.3c-1 .8-2.6 2-4.6 3.1-14.3 8.2-30.1 3-31.3 2.6-3.1-1.1-12.8-4.6-19.1-14.5-5.9-9.4-5.3-18.9-4.8-26.2.6-10.5 4-18.5 6.5-23.3z" opacity=".25" fill="#6d6c6c"/></g></g><g id="speed_lines"><path class="st0" d="M183.7 601.9c33.7-1.7 65.6 10.2 95.8 23.8 30.6 13.8 60.4 28.8 92.8 38 19.1 5.5 38.7 9.2 58.5 11.5 1.9.2 1.9-2.8 0-3-36-4.1-71-13.7-104.2-28.2-29.7-13-58.4-28.7-89.6-38-17.3-5.2-35.2-8-53.3-7.1-2 0-2 3 0 3zM378.5 619.1c59.3 26.5 125.9 23.2 188.5 12.2 19.6-3.4 39.1-7.5 58.5-11.7 1.9-.4 1.1-3.3-.8-2.9-63.5 13.5-129.2 27.2-194 15.3-17.4-3.2-34.5-8.3-50.6-15.5-1.8-.7-3.3 1.9-1.6 2.6zM841.7 835.5c42.7 16.6 88.6 2.9 129-13.6 21.8-8.9 43.3-18.7 65.8-26 22.8-7.3 46.3-12.5 70.1-15.3 26.4-3.1 53.1-3.3 79.6-.8 1.9.2 1.9-2.8 0-3-45.7-4.4-92.1-.4-136.3 11.9-44.9 12.6-85.6 37.3-131.2 47.3-25.2 5.5-51.8 6-76.2-3.4-1.8-.7-2.6 2.2-.8 2.9zM1121.4 734.4c57.5-16.9 119.5-15.4 176.1 4.3 1.8.6 2.6-2.3.8-2.9-57.1-19.8-119.7-21.3-177.7-4.3-1.8.5-1 3.4.8 2.9zM760.6 275.1c21.5-4.4 43-8.9 64.9-10.8 22-1.9 43.6-.5 65.2 3.6 41.4 8 81.7 21 123.9 25.2 23.1 2.3 46.4 1.9 69.2-2.7 1.9-.4 1.1-3.3-.8-2.9-42.5 8.6-85.8 1.8-127.5-7.7-41.5-9.4-82.1-22-125.2-19-23.8 1.7-47.2 6.5-70.5 11.3-1.9.5-1.1 3.4.8 3zM897.3 292.9c66.5 21.8 136.3 40.8 207 33 18.9-2.1 37.6-6.2 55.6-12.4 1.8-.6 1-3.5-.8-2.9-66.3 23.1-137.8 14.6-204.2-3.3-19.1-5.1-38-11.1-56.7-17.2-1.9-.7-2.7 2.2-.9 2.8z"/></g></svg>