<svg xmlns="http://www.w3.org/2000/svg" viewBox="0 0 1600 1200"><style>.st0{fill:#e8e8e8}.st1{fill:#161616}.st2{fill:#ec615b}.st3{fill:#5222d0}.st4{fill:#fff;stroke:#161616;stroke-width:2;stroke-miterlimit:10}.st5,.st6,.st7{opacity:.15;fill:#6d6c6c}.st6,.st7{opacity:.17}.st7{opacity:.19}.st8{fill:#fff}.st12,.st18,.st9{opacity:.2;fill:#6d6c6c}.st12,.st18{opacity:.22}.st18{opacity:.18}</style><g id="background"><path class="st0" d="M170.8 1016.2c-13.7-11.2-28-21.9-40.7-34.2-5.9-5.7-11.4-11.9-15.6-19-2.2-3.6-4-7.5-5.3-11.5-1.1-3.3-2.2-8.4 2.6-8.9 1.8-.2 3.7.2 5.4.7 1.9.5 2.7-2.4.8-2.9-5.7-1.4-13.9-1-13 7 1.1 9 7 18.2 12.4 25.1 14 18 33.8 31.5 51.3 45.8 1.5 1.2 3.6-.9 2.1-2.1z"/><path class="st0" d="M118.5 940.9c-5.8-6.9-10.3-14.9-12.9-23.6-1.2-3.9-1.7-7.9-2.9-11.7-.8-2.4-2.3-4.6-.1-6.7 1-.9 2.5-1.5 3.6-2.3 3.4-2.3 5.3-5 1.1-7.9-2.4-1.6-5.4-1.9-8-3.2-3.5-1.9-6.2-5-8.2-8.3-4.2-6.8-6.5-14.8-9-22.3-3-8.9-5.9-18-8.5-27-5.2-18.2-9.5-36.6-13-55.1-.3.6-.7 1.2-1 1.8 18.8-6.2 37.5 9.7 50.9 21 13.8 11.6 26.2 24.9 37.1 39.3 22.5 30 38.2 64.6 48 100.7 6 22.1 9.8 44.8 11.9 67.6.2 1.9 3.2 1.9 3 0-7.3-78.7-36.3-158.4-98.4-210.3-14.2-11.8-33.4-27.7-53.2-21.2-.8.3-1.2 1-1 1.8 3.7 19.8 8.4 39.4 14.1 58.8 2.7 9.1 5.5 18.1 8.6 27 2.5 7.2 4.8 14.9 9.2 21.2 1.7 2.4 3.6 4.6 6 6.3 2.9 2.1 6.3 2.3 9.2 4.1 3.8 2.3-1.7 4.1-3.7 5.5-1.5 1.1-2.9 2.4-3.2 4.4-.4 3 2.2 6.5 2.9 9.3 1 4.3 1.9 8.5 3.5 12.7 2.9 7.4 7 14.2 12.1 20.3 1 1.4 3.1-.7 1.9-2.2z"/><path class="st0" d="M75.7 788.9c41.8 47.2 74.3 102.3 95.5 161.7 5.9 16.5 10.8 33.3 14.9 50.3.5 1.9 3.3 1.1 2.9-.8-14.8-61.6-41.4-120.3-78.2-172-10.2-14.4-21.2-28.2-32.9-41.4-1.4-1.3-3.5.8-2.2 2.2zM82.5 854.7c4.8 1.2 9.5 2.8 14.1 4.7 1.8.7 2.6-2.2.8-2.9-4.6-1.9-9.3-3.5-14.1-4.7-1.8-.5-2.6 2.4-.8 2.9z"/><path class="st0" d="M117.7 921.1c6.5-.2 11.9 3.2 17.2 6.4 4.8 2.9 9.5 5.8 14.1 9 9.5 6.6 18.1 14.4 23.8 24.6.9 1.7 3.5.2 2.6-1.5-6-10.6-15-18.8-24.9-25.6-5.2-3.6-10.7-7-16.2-10.2-5.2-3.1-10.5-5.7-16.7-5.6-1.8-.1-1.8 2.9.1 2.9zM157.5 903.1c-2.7-16.2-2.6-32.6.3-48.7.3-1.9-2.6-2.7-2.9-.8-3 16.7-3.1 33.6-.3 50.3.3 1.9 3.2 1.1 2.9-.8z"/><path class="st0" d="M152.4 834.6c2.1-19.8 6.3-39.6 13.3-58.2 5.9-15.7 14.7-31.1 29.8-39.5-.8-.4-1.5-.9-2.3-1.3 1.6 27.8 17.9 52.5 18.6 80.4.4-.5.7-1 1.1-1.4l-11.4 3c-1.1.3-1.5 1.7-.7 2.5 4.6 4.4 5.5 10.6 5.7 16.7.1 3.2 1.8 18.7-1.9 19.7-.9.3-1.4 1.4-.9 2.2 11.1 17.8 6 38.9 2.9 58.1-3.2 19.8-3.6 39.8-1.3 59.6.2 1.9 3.2 1.9 3 0-2.6-22.3-1.3-44.2 2.5-66.2 3.1-17.8 5.6-36.9-4.4-53.1-.3.7-.6 1.5-.9 2.2 2.7-.7 3.6-2.8 4-5.4.7-4.8.2-10.1.1-14.9-.1-7.6-.9-15.5-6.7-21-.2.8-.4 1.7-.7 2.5l11.4-3c.6-.2 1.1-.8 1.1-1.4-.7-28-16.9-52.6-18.6-80.4-.1-1.1-1.2-1.9-2.3-1.3-14.9 8.3-23.9 23-30.1 38.5-7.9 19.7-12.3 40.8-14.5 61.9 0 1.7 3 1.7 3.2-.2z"/><path class="st0" d="M188.7 750.6c-10.7 40.5-16.2 82.3-16.3 124.2 0 1.9 3 1.9 3 0 .1-41.7 5.5-83.1 16.1-123.4.6-1.9-2.3-2.7-2.8-.8zM1362.8 690.7c6.4 20.6 11.2 41.6 14.2 63 1.5 10.8 2.6 21.8 3.1 32.7.2 2.8.3 5.7.4 8.5.1 1.7-.4 4.5.2 6.1.6 1.5 2.7 2.5 3.9 3.5 2.1 1.7 4.2 3.4 6.2 5.1l.3-2.4c-2.8 1.7-5.5 2.5-8.8 2.6-.7 0-1.2.5-1.4 1.1-2.9 9-.8 18.5 5.7 25.5.4-.9.7-1.7 1.1-2.6-10.4-.4-10.6 11.6-9.6 19 1.4 10.3 3.4 20.6 6.3 30.6 5.8 19.6 15.5 38.2 31.4 51.6 1.5 1.2 3.6-.9 2.1-2.1-13.4-11.3-22.4-26.5-28.2-43-2.7-7.8-4.8-15.8-6.4-23.8-1.3-6.7-7.8-29.7 4.4-29.3 1.4.1 1.9-1.6 1.1-2.6-5.7-6.2-7.5-14.6-4.9-22.5-.5.4-1 .7-1.4 1.1 3.8 0 7-.9 10.3-3 .7-.5 1.1-1.7.3-2.4-3.7-3-8.8-5.6-9.4-10.6-.6-5.3-.4-10.8-.8-16.1-.7-9.9-1.7-19.8-3.2-29.7-3-20.7-7.7-41.1-13.9-61.1-.7-1.9-3.6-1.1-3 .8z"/><path class="st0" d="M1367.7 695.2c-4.1-5.4 3.6-9.4 8.1-8.3 4.5 1.2 8.2 4.8 11.3 8 5.7 5.8 10.2 12.6 14.1 19.7 8.1 14.6 14.9 30.2 20.9 45.7 12.3 31.9 20.8 65.3 25.3 99.1 2.5 19.2 3.8 38.5 3.8 57.8 0 1.9 3 1.9 3 0 0-40.2-5.5-80.3-16.3-118.9-5.3-18.8-11.8-37.2-19.5-55.2-7.1-16.6-14.7-34.4-26.9-48-4.9-5.5-13.2-14-21.4-11.1-5 1.7-8.3 8.1-4.9 12.7 1.1 1.5 3.7.1 2.5-1.5z"/><path class="st0" d="M1439.7 805.1c5.1-17.1 11-33.8 17.7-50.3 3.5-8.5 7.2-17 11.2-25.3 1.9-3.9 3.8-7.9 5.8-11.8 1.3-2.5 5.2-13.5 9.3-12.5 1.2.3 2-.7 1.8-1.8-1-6.2 6-11.5 9.7-15.6 3.3-3.6 6.5-7.2 9.8-10.8 6.8-7.4 13.5-14.8 20.3-22.3-.8-.2-1.7-.4-2.5-.7 10.3 25.5 7.6 53.4 1.6 79.6-3.1 13.4-7 26.7-10.3 40.1-2.3 9.3-4.8 23.4-16.2 25.4-.8.1-1.2 1.1-1 1.8 2.9 11.9-5.1 22.9-10.4 32.9-5 9.4-9.6 19.1-13.8 29-8.2 19.3-14.7 39.2-19.6 59.5-.5 1.9 2.4 2.7 2.9.8 5.4-22.5 12.8-44.4 22.3-65.5 4.5-10 9.5-19.8 14.8-29.4 4.8-8.7 9.2-17.9 6.8-28-.3.6-.7 1.2-1 1.8 9.7-1.7 13.9-11.5 16.4-20.1 4.1-14.4 7.8-29.2 11.3-43.8 6.7-27.8 10.3-57.7-.7-84.9-.4-1-1.7-1.6-2.5-.7-8.5 9.3-17 18.7-25.5 28-4 4.4-8.3 8.6-12 13.3-2.4 3.2-3.7 6.2-3.1 10.2l1.8-1.8c-7.2-1.8-10.7 10-13.1 14.7-4.8 9.5-9.3 19.1-13.4 28.8-8.2 19-15.2 38.6-21.1 58.4-.8 2 2.1 2.8 2.7 1z"/><path class="st0" d="M1517.9 680.6c-31.2 58.2-63 118.2-70.5 184.7-.2 1.9 2.8 1.9 3 0 7.5-66 39.2-125.6 70.1-183.2 1-1.7-1.6-3.2-2.6-1.5zM1387.8 720.6c24.3 64.3 38.8 132.1 43.1 200.7.1 1.9 3.1 1.9 3 0-4.3-68.9-18.8-136.9-43.2-201.5-.7-1.7-3.6-1-2.9.8zM124.2 688.4c61-10.9 124-10.3 184.8 1.8 30.1 6 59.6 14.7 88 26.1 29.7 11.9 58.2 26.2 87.3 39.4 109.8 49.8 227.3 82.4 347 96.6 67.9 8.1 136.5 10.2 204.7 6.4 1.9-.1 1.9-3.1 0-3-122.4 6.9-245.7-5.6-364.3-36.7-59.5-15.6-117.8-35.9-174.1-60.6-29.2-12.8-57.7-27.2-87-39.7-28-11.9-56.9-21.5-86.5-28.3-65.7-15-134.3-16.7-200.7-4.8-1.9.2-1.1 3.1.8 2.8z"/><path class="st0" d="M668.2 816.8c56.9 2.9 111.8-17.6 165.3-34 56-17.1 112.2-33.7 168.5-49.9 56-16.1 112-33 168.9-45.9 56.7-12.8 114.5-18.9 172.6-20.6 64.7-2 129.4.9 194 3.9 1.9.1 1.9-2.9 0-3-114.1-5.2-229.7-10.3-342.5 11.6-57.2 11.1-113.2 28.1-169.2 44-56.3 16.1-112.5 32.6-168.6 49.5-31.1 9.4-62.1 19.6-93.4 28.2-31.2 8.6-63.2 14.8-95.7 13.2-1.8-.1-1.8 2.9.1 3zM425.4 714.2c39.5 11.4 80.5 3.5 119.9-4.1 42.2-8.1 84.8-13.6 127.8-15.3 85.2-3.2 169.9 9 254.8 12.4 47 1.9 94.2.8 140.6-6.9 1.9-.3 1.1-3.2-.8-2.9-83.5 13.9-168.3 5.6-252.1-.7-41.9-3.2-83.9-5.9-126-5.2-41.7.7-83.4 4.7-124.6 12-45.6 8-93 21.2-138.9 7.9-1.8-.6-2.6 2.3-.7 2.8zM602.4 906.9c12.8-5.3 26.6-8 40.5-7.6 12.9.4 24.5 4.6 37 7.2 9.3 2 18.6 2 26.1-4.6 2.9-2.5 5.4-5.1 9.6-3.8 3.1.9 5.7 3 8.6 4.3 3.4 1.6 6.9 2.2 10.5 1.5 8.6-1.7 15.1-8.8 22.6-12.9 12.7-6.8 24.9 2.3 37.3 5.6 25.8 6.9 53.4 4.8 79.8 4.5 32.5-.3 65.1-.1 97.4-4.1 1.9-.2 1.9-3.2 0-3-29 3.5-58.3 3.7-87.5 4-27.8.3-57.2 2.9-84.6-3.3-6.4-1.4-12.4-3.5-18.5-6-5.3-2.2-10.8-4.3-16.6-3.5-9.1 1.2-15.9 8.4-23.6 12.8-4 2.3-8.4 3.9-13 2.6-5-1.5-9.1-5.9-14.6-6.1-5.2-.1-7.7 4.1-11.5 6.8-5.3 3.7-12 3.8-18.2 2.8-13.2-2.1-25.5-7.2-39-7.8-14.7-.7-29.4 2-43.1 7.7-1.8.7-1 3.6.8 2.9z"/><path class="st0" d="M666.2 817.7c1.8.3 3.5.7 5.3 1 1.9.4 2.6-2.2.8-2.9-1.1-.4-2.2-.8-3.4-1.2-1.6-.6-2.7 2-1.2 2.7 9.2 4.8 18.8 8.6 28.8 11.3 1.9.5 2.7-2.4.8-2.9-9.8-2.6-19.1-6.3-28.1-11l-1.2 2.7c1.1.4 2.2.8 3.4 1.2.3-1 .5-1.9.8-2.9-1.8-.3-3.5-.7-5.3-1-1.8-.3-2.6 2.6-.7 3zM531.8 956.3c-2.2-2.6-4.2-5.3-5.9-8.3-.8-1.5-1.8-3.1-2.3-4.8-.7-1.1-.8-2.4-.4-3.7-.3-1.4.1-2.5 1.1-3.3 1.5-4.1-.3-8.4-1.3-12.6l-4.5-19.8c-.8-3.5-1.6-6.9-2.3-10.4-.4-1.6-.7-3.1-1.1-4.7-.6-2.8-1.2-4.1.9-6.4 1-2.1 2.5-2.5 4.5-.9l2.7 2.7c1 1.3 1.7 2.8 2.5 4.2 1.4 2.6 2.8 5.2 4.1 7.8 3.1 6.2 5.8 12.6 8.1 19.1 4.4 12.2 7.4 24.8 9.2 37.7.5-.6 1-1.3 1.4-1.9.2.2.3.5.5.7.5-1.9-2.4-2.7-2.9-.8-.4 1.8.5 3.1 2.4 3.1 1.1 0 1.6-.9 1.4-1.9-2.3-16.5-6.6-32.6-13.2-47.9-3.1-7.2-6.4-15.2-11-21.6-2.5-3.5-7-6.7-11.3-4.2-4.9 2.8-2.6 9.7-1.6 14 2 8.8 4 17.6 5.9 26.4.9 4.2 2.8 8.9 3 13.2.1 3.5-2.8 5.1-2.3 8.6 1 6.5 5.9 13.1 10 17.9 1.5 1.3 3.6-.8 2.4-2.2z"/><path class="st0" d="M541 913.3c-1.5-9-1.3-18.2.8-27.1.5-2.3 1.2-4.5 2-6.7 1.4-3.8 3.4-3.4 5.4-.6 2.6 3.7 4.6 7.8 6.1 12 6.1 17.4 3.4 36.1.8 53.8-.3 1.9 2.6 2.7 2.9.8 3.3-22.3 6.7-47.6-6.8-67.5-1.5-2.2-3.5-5.9-6.6-5.4-3.3.6-4.4 5.1-5.3 7.7-3.6 10.9-4.2 22.5-2.3 33.7.5 2 3.4 1.2 3-.7z"/><path class="st0" d="M546.4 890.3c3 15.6 4.1 31.3 3.6 47.1-.1 1.9 2.9 1.9 3 0 .6-16.1-.7-32.1-3.7-47.9-.4-1.9-3.2-1.1-2.9.8zM178.6 677.1c-2.9-6.4-9.4-10.9-13.5-16.5-4.5-6.2-8.3-12.9-12-19.5-.3.7-.6 1.5-.9 2.2 20.1-3.6 31.7 16.2 35.6 32.9.4 1.9 3.3 1.1 2.9-.8-4.3-18.5-17.5-38.8-39.3-35-1 .2-1.3 1.4-.9 2.2 3.7 6.7 7.4 13.4 12 19.5 4.1 5.6 10.7 10.3 13.5 16.5.8 1.8 3.4.3 2.6-1.5z"/><path class="st0" d="M187.3 661c1.5-15.7 16.5-25.5 22.3-39.4-.7.3-1.5.6-2.2.9 6.7 4.3 1.7 19.9-.2 25.9-2.8 8.8-7.4 16.8-13.3 23.8-1.2 1.5.9 3.6 2.1 2.1 7.4-8.7 12.7-18.8 15.4-29.9 1.7-7 4.9-19.7-2.5-24.5-.9-.6-1.9.1-2.2.9-6 14.4-20.8 23.8-22.4 40.2-.2 1.9 2.8 1.9 3 0zM1075.3 706.4l-2.7-6.9c-.5-1.1-.9-2.3-1.4-3.4-.6-.8-.6-1.7-.1-2.6.9.8 2.7.3 2.6-1.1-.5-5-1-10.1-1.5-15.1-.1-1.2-1.3-5.9-.6-6.8 3.1-4.3 5.2 2.8 5.5 3.9 2.7 9.2 2.6 19.8 2.5 29.3 0 1.9 3 1.9 3 0 .1-7.8-.3-15.5-1.4-23.2-.7-4.9-1.5-12-6.3-14.9-3.1-1.9-5.7.1-6.3 3.4-.6 3.2.4 7 .7 10.1.4 4.4.9 8.8 1.3 13.2.9-.4 1.7-.7 2.6-1.1-1.7-1.6-4.3-1.3-5.3.9-.7 1.5-.1 3.1.4 4.6 1.2 3.5 2.8 6.9 4.1 10.4.7 1.9 3.6 1.1 2.9-.7z"/><path class="st0" d="M1082 690.1c-.4-14 2.5-27.7 8.6-40.4l-2.4.3c6.5 5.4 2.2 20 1.1 27-1.5 9.4-3.4 18.8-5.8 28-.5 1.9 2.4 2.7 2.9.8 2.9-11.2 5.1-22.6 6.7-34.1 1-7.4 3.9-18.3-2.8-23.9-.7-.6-1.9-.6-2.4.3-6.3 13.1-9.4 27.3-9 41.9.2 2 3.2 2 3.1.1zM557.2 996.2c6.3-6.4 16.1 2.2 23.4 1.8 3.5-.2 6.7-1.5 9.9-2.6 4.3-1.4 8.4-1.9 12.9-1.5 17.8 1.5 35.1 2.8 53 1.6 1.9-.1 1.9-3.1 0-3-9.7.6-19.3.8-29 .4-9.8-.4-20-2.8-29.7-2.1-3.9.3-7.5 1.6-11.2 2.8-5.4 1.7-9.5 1.4-14.7-.5-5.7-2.1-12.1-3.8-16.8 1-1.3 1.4.8 3.5 2.2 2.1zM368.3 1020.5c7-7.6 19.3-8.1 26.7-.9l.3-2.4c-5.2 2.5-10.5 3.6-16.2 3.3-1.9-.1-1.9 2.9 0 3 6.3.3 12.1-.9 17.8-3.7.9-.4 1-1.7.3-2.4-8.6-8.3-22.9-7.9-31 .9-1.3 1.5.8 3.6 2.1 2.2zM89.6 1047.5c-5.1-.4-10.2 1.1-14.1 4.6-2.4 2.2-5.8 6.3-2.7 9.2 3.5 3.2 11.9 1.1 16 .7 7.5-.8 14.8-2.2 22.1-4.1 1.9-.5 1.1-3.4-.8-2.9-8.8 2.3-17.7 3.8-26.8 4.4-1.8.1-3.7.3-5.5.3-4.5-.2-2.4-3.6-.2-5.5 3.3-3 7.6-4.1 12-3.7 2 .1 1.9-2.9 0-3zM232.5 965c.2-.8.8-1.3 1.6-1.3.7-.1 1.4-.2 2-.3 1.6-.2 3.1-.1 4.7.1 3.1.4 5.9 1.5 8.6 3.2.1-.9.2-1.8.4-2.7-3.7 1.3-7.4 1.6-11.3 1-1.9-.3-2.7 2.6-.8 2.9 4.4.7 8.6.4 12.9-1 1.2-.4 1.5-2 .4-2.7-5.2-3.3-12-4.9-18.1-3.2-3.3.9-5.9 6-1.2 7 1.9.3 2.7-2.6.8-3zM315.3 277.3c-23.8-8.4-40.8-31.5-43.4-56.5-2.7-25.8 11.8-50.4 33.6-63.6 23.5-14.2 56.9-14.3 76.2 7.2 9.9 10.9 16 25.8 19.6 39.9 3.7 14.5 4.3 30.6-4 43.7-8.4 13.1-23.4 20.4-37.5 25.9-14.9 5.9-32.8 10.5-47.4 1.3-1.6-1-3.1 1.6-1.5 2.6 13.1 8.2 28.9 6.1 42.9 1.5 13.7-4.5 28.2-10.8 38.8-21 23.7-22.7 14-60.2-.8-85.1-7.8-13.2-19.5-22.9-34.4-26.9-14.2-3.8-29.4-2.5-42.9 3-24.8 10.2-44.2 34-45.8 61.2-1.8 30 17.5 59.7 45.8 69.7 1.8.7 2.6-2.2.8-2.9zM1067.2 857.8c68.2-4.3 136-13.5 202.8-27.6 19.3-4.1 38.5-8.6 57.6-13.5 1.9-.5 1.1-3.4-.8-2.9-66.2 16.9-133.6 29.1-201.6 36.2-19.3 2-38.6 3.6-57.9 4.8-2 .1-2 3.1-.1 3zM910.9 930c8.8 1.5 17.8 1.4 26.5-.7 5.4-1.3 9.3-3.4 14.9-1.6 3.5 1.1 6.8 1.5 10.4.8 4-.8 7.7-2.8 11.1-5 3.7-2.5 7.4-6 11.9-6.9 5.2-1 9.9 3.1 14.9 4.2 3.6.8 7.3.7 10.9.1 1.9-.3 1.1-3.2-.8-2.9-6.3 1.1-11.2-.5-16.9-3-2.4-1.1-4.7-1.7-7.4-1.5-8.1.9-13.7 8.5-21.2 11.2-4.8 1.7-8.7 1.1-13.4-.4-3.6-1.1-6.2-.5-9.7.6-9.9 3.1-20 4-30.2 2.3-2-.4-2.9 2.5-1 2.8z"/><path class="st1" d="M415.4 1060.1h233.1c3.9 0 3.9-6 0-6H415.4c-3.9 0-3.9 6 0 6zM665.2 1058.3h27.3c3.9 0 3.9-6 0-6h-27.3c-3.9 0-3.9 6 0 6zM712.7 1057.4h8.8c3.9 0 3.9-6 0-6h-8.8c-3.9 0-3.9 6 0 6zM164.7 1082.1h172.4c3.9 0 3.9-6 0-6H164.7c-3.8 0-3.8 6 0 6zM353.8 1082.1h44.9c3.9 0 3.9-6 0-6h-44.9c-3.8 0-3.8 6 0 6zM424.2 1080.3h2.6c1.6 0 3.1-1.4 3-3-.1-1.6-1.3-3-3-3h-2.6c-1.6 0-3.1 1.4-3 3 .1 1.6 1.3 3 3 3zM133.1 1082.9h6.2c3.9 0 3.9-6 0-6h-6.2c-3.9 0-3.9 6 0 6zM925.5 973h241.9c3.9 0 3.9-6 0-6H925.5c-3.9 0-3.9 6 0 6zM1199 969.5h219c3.9 0 3.9-6 0-6h-219c-3.8 0-3.8 6 0 6zM1437.4 967.7h17.6c3.9 0 3.9-6 0-6h-17.6c-3.9 0-3.9 6 0 6zM1360 934.3h50.1c3.9 0 3.9-6 0-6H1360c-3.9 0-3.9 6 0 6zM1426.8 933.4h12.3c3.9 0 3.9-6 0-6h-12.3c-3.8 0-3.8 6 0 6zM877.1 990.6h64.2c3.9 0 3.9-6 0-6h-64.2c-3.8 0-3.8 6 0 6zM964.2 989.7h27.3c3.9 0 3.9-6 0-6h-27.3c-3.9 0-3.9 6 0 6zM1003.8 1004.7h18.5c3.9 0 3.9-6 0-6h-18.5c-3.9 0-3.9 6 0 6zM577.9 503.3c-3.6-4.5 10-7.3 12.2-8.2 4.3-1.9 7-5.4 8-10 1-4.7 0-9.7 1.4-14.3 2.1-6.8 9.9-6.4 15.7-6.1 3.9.2 3.8-5.8 0-6-6.6-.4-14.2-.2-18.8 5.2-4.1 4.8-3.3 11.3-3.8 17.2-.4 5.3-2.4 7.9-7.6 9.4-3 .9-6 1.4-8.5 3.3-4.6 3.3-6.5 9.1-2.8 13.7 2.3 3.1 6.6-1.2 4.2-4.2zM599.2 508.3c-2.7-3.2 3.5-6.4 5.5-7.6 2.7-1.6 5-3.1 7-5.5 4.1-4.9 6.8-14.2 14.2-14.6 3.8-.2 3.9-6.2 0-6-12.3.6-13.3 13.4-21.7 19.4-3.6 2.5-7.9 3.9-10.2 7.9-2.1 3.6-1.7 7.5.9 10.6 2.5 3 6.8-1.3 4.3-4.2zM1067.8 184.6c-.4 6.4-5.4 14.1.6 19.5 5.2 4.6 11.7 1.2 17.6 1.6 6.5.5 3.7 6.5 2.9 10.9-.6 3.3-.9 6.9.6 10.1 2.4 5 8.9 8.2 13.7 4.6 3-2.3 0-7.5-3-5.2-4.9 3.7-5.9-5.2-5.4-7.9.5-2.9 1.5-5.8 1.6-8.8.1-4.2-2.1-7.5-6-8.9-4.8-1.7-9.1.2-13.9.1-8.7-.2-2.9-10.8-2.6-16 .2-3.9-5.8-3.9-6.1 0zM1102.2 191.5c-2.5 5.4-4.9 11.8-.9 17.2 1.5 2 3.5 3.2 5.9 3.6 1.6.2 3.7-.5 5.1.1 2.3.9 3.6 3.6 2.5 6-1.7 3.5 3.5 6.5 5.2 3 2.1-4.5 1.3-9.7-2.7-13-2.2-1.8-4.2-1.8-6.9-2.1-7.3-.7-5.3-6.8-3-11.7 1.6-3.5-3.6-6.6-5.2-3.1zM1420.9 398.9c-2.2-5.7 3.1-13.9 9.8-11.8 5.1 1.7 7.4 9.3 4 13.5-2.4 3 1.8 7.2 4.2 4.2 6.2-7.5 3.1-20.6-6.6-23.5-10.7-3.2-21 9-17.1 19.1 1.3 3.7 7.1 2.1 5.7-1.5zM253.5 636.3c-.6-7.1 8.4-11.1 12.2-4.4 3.2 5.8-3.1 10.9-8.6 9-3.6-1.3-5.2 4.5-1.6 5.8 11.1 4 21.6-8.6 14.9-18.6-7.2-10.7-23.9-4.4-22.8 8.2.2 3.8 6.2 3.9 5.9 0z"/><path class="st2" d="M288.3 356c-2.3 3.8-2.5 8.7.5 12.2 1.5 1.7 3.6 2.8 5.8 3.2 3.1.5 5.4-1.2 8.1.1 2.7 1.4 2.1 3.1 2.4 5.9.1 1.7.2 3.3.4 5 .2 1.8.4 3.6 1.7 5 1.2 1.3 2.7 1.8 4.4 2.1 1.2.2 2.4.1 3.7.1 1 0 2.1 0 3.1.2 1.9.5 2.7 1.8 2.5 3.7-1.5 1.1-.1 3.7 1.5 2.6 3-2.2 2-5.6-.6-7.8-1.2-1-2.5-1.5-4.1-1.7-5.2-.7-8.2 1.3-9.4-6-.6-3.6.7-11.1-3-13.5-1.7-1.1-3.2-.6-4.9.1-2.7 1.1-4.9 2-7.7.3-3.8-2.3-3.9-6.8-1.8-10.2 1-1.4-1.6-2.9-2.6-1.3zM328.7 367.9c-2 3.5-4.4 8.8-1.3 12.4 2 2.4 5.4 2.1 8 3.6 4.1 2.3 6 7.1 5.2 11.6-.3 1.9 2.6 2.7 2.9.8.8-4.5-.2-8.9-3.3-12.3-1.3-1.5-3-2.6-4.8-3.4-2.1-.9-5.7-2-6.4-4.6-.5-1.9 1.5-5.1 2.3-6.6.9-1.7-1.7-3.2-2.6-1.5zM891.6 683.7c-3.4-7 3-15.2 10.6-12.5 7.9 2.8 7.6 13.6.1 16.6-1.8.7-1 3.6.8 2.9 9.7-3.9 11-17.8.9-22-10.4-4.4-19.6 6.9-14.9 16.6.8 1.7 3.4.1 2.5-1.6zM523.3 660c-6.4-1.3 3.9-8.2 5-8.9 1.6-1.1 3.1-2.3 3.9-4.2 2.7-6.1-2.2-18.3 8.6-18.9 1.9-.1 1.9-3.1 0-3-4.2.2-7.3 2.5-9.2 6.1-3.1 5.8.6 13.7-5.4 17.7-3.4 2.3-7 3.8-7.4 8.3-.2 2.7.9 5.1 3.7 5.7 1.9.5 2.7-2.4.8-2.8zM542.5 651.3c-2.8-3.9-1.2-9.4 3.5-10.9 3.2-1 5.6-.5 7.4-3.8 1.8-3.4 1.5-7.4 3.5-10.9 2.5-4.5 6.7-7.6 11.5-9.1 1.8-.6 1.1-3.5-.8-2.9-4.5 1.4-8.4 3.9-11.3 7.6-1.5 1.9-2.8 4.1-3.6 6.5-1.1 3.2-.6 7.5-4.2 9.2-2.2 1.1-4.4.5-6.5 2.1-1.4 1-2.4 2.5-3 4-1.4 3.3-1.1 6.8 1 9.7 1 1.6 3.6.1 2.5-1.5z"/><path class="st3" d="M440.8 191.4c-1.8-3.6 5.9-2.3 6.2-2.2 1.1.4 2.2 1.3 3.2 1.9 1.6.9 3.4 1.8 5.3 1.9 2.5.1 4.6-1 6.2-2.8 4.6-5.6 2.9-20.1 13.7-15.8 3.2 1.3 6.8 3.2 10.3 1.6 2.8-1.3 3.4-4.1 3-6.9-.2-1.4-1.8-4.2-1.4-5.6.8-2.7 3.3-2.9 5.2-2 .9.4 1.7 1 2.7 1.3 3 1.1 5.9.9 7.7-1.9 1-1.6-1.6-3.1-2.6-1.5-2 3.2-10-3.4-13.6-1.4-2.9 1.5-2.8 4.5-2.1 7.3.8 3.3 2.8 8.1-3.3 8-2.7 0-5.2-2.3-7.8-2.8-3.1-.6-5.9.2-7.9 2.6-5 5.9-3.1 21.3-14.7 15-3.4-1.8-6.2-3.6-10-1.9-2.9 1.3-4.3 3.8-2.8 6.7 1 1.7 3.5.2 2.7-1.5z"/><path class="st0" d="M559.9 273c-4.5-1.1-5.1-6.9-2.9-10.3 3.1-4.8 10.4-4.5 15.3-3.6 8.2 1.5 15.8 4.7 24.1 1.6 8-3 14-9.5 23-9.7 9.4-.2 18.3 3.9 27.8 3.6 16.6-.5 31.7-8.7 47.6-12.5 9.4-2.3 18.6-2.5 28-.1 9 2.3 17.4 6 26.4 8.2 9.4 2.4 18.7 2 28.2 1.2 10.4-.8 21.1-1.6 30.5 3.8-.2-.6-.5-1.1-.7-1.7-5 14.7-21.2 20.7-35.5 21.5-17.9 1-35.3-5.5-53.3-4.8-18.2.7-33.6 11.8-51.5 13.5-18.3 1.8-35.6-6.9-53.8-6.4-18.5.5-42.6 10.6-57.2-5.9-1.3-1.4-3.4.7-2.1 2.1 11.5 12.9 29.7 10.6 45 8.3 11.3-1.7 21.6-1.8 32.9.4 9.6 1.9 19.2 4.5 29 4.7 19.8.5 36.5-12.3 56-13.6 19.7-1.3 38.8 6.6 58.5 4.4 14.7-1.6 30-8.5 35-23.5.2-.6-.1-1.4-.7-1.7-17.6-10.3-38.8-.6-57.7-4.9-10.4-2.4-20.1-7-30.6-9.2-9.1-2-18.1-1.5-27.1.7-9.6 2.3-18.7 6.1-28.1 9-10.8 3.3-21.1 4.3-32.3 2-8.9-1.9-17.1-3.4-25.5.8-3.9 2-7.5 4.7-11.5 6.5-6.8 3-13.3 1.2-20.2-.5-7.3-1.7-18.3-2.9-22.4 5.2-2.6 5.1-.8 12.4 5.2 13.8 1.7.4 2.5-2.5.6-2.9zM143.5 427.1c13.6-1.8 26.5 5.2 40 3.5 5.5-.7 10.6-3.1 15.7-5.2 2.4-1 4.9-1.9 7.5-2.5 4.9-1.1 9.3.2 14.1 1.2 13.4 2.9 28.4-.3 41.8-2.2 6.6-.9 13.1-1.9 19.7-3 7.5-1.3 15-3.3 22.5-4.1 7.9-.8 17.2 2.7 14 12.4-2.7 8.3-12.8 10.7-20.4 11.3-13.2 1-26.3-2.8-39.5-.3-12.3 2.3-23.3 8.7-35.2 12.2-6.6 2-13.2 2.8-20 1.9-6.8-1-13.2-2.7-20.2-2.2-14.2.9-29.3 9.2-43.5 5.9-8.7-2-13.2-10-9-18.3 4.1-8 13.5-10.1 21.7-10.1 1.9 0 1.9-3 0-3-11.5 0-25.1 5-26.3 18.2-1.1 12.2 10.9 17.2 21.2 16.8 7.5-.3 14.9-2.5 22.2-4.2 9.5-2.2 18.2-3 27.8-1.2 7.1 1.3 13.7 2 20.9.6 7.4-1.4 14.4-4.4 21.3-7.2 7-2.8 14.1-5.7 21.6-6.8 8.8-1.3 17.6.1 26.4.6 11.5.7 29.8.2 34-13.4 1.5-4.9.4-10.6-3.9-13.8-4.2-3.1-9.9-2.9-14.8-2.3-18 2.5-35.7 6.6-53.9 8.6-10.2 1.1-20 2.4-30 0-8.1-2-14.5-.6-22.1 2.5-4 1.6-7.9 3.4-12.1 4.2-5.2 1-10.6.3-15.8-.6-8.5-1.6-16.8-3.8-25.4-2.7-2.2.4-2.2 3.4-.3 3.2zM1362 546c-18.9 6.6-41-9-54.6-20.8-.2.8-.4 1.7-.7 2.5 9.6-3.9 19.7-4.1 29.9-3.5 10.1.5 20.2 1.2 30.3 1.5 21.5.6 43.1.1 64.5-1.5 11.1-.8 22.1-1.9 33.1-3.2 5.4-.7 11.9-2 17 .5 7.1 3.6 6.5 11.4-.3 14.4-3.5 1.5-7.3 2-11 2.7-5.8 1-11.6 2.1-17.4 3.1-10.6 1.9-21.2 3.8-31.9 5.7l-18.3 3.3c-5.7 1-11.6 2.5-17.5 2.6-10 .1-17.5-8.7-27.5-7.6-1.9.2-1.9 3.2 0 3 5.7-.7 10.2 2.4 15.1 4.7 4 1.9 7.9 2.9 12.3 2.9 11.5-.1 23.4-3.6 34.7-5.7 12.2-2.2 24.5-4.4 36.7-6.6 5.8-1 11.6-2.1 17.4-3.1 3.9-.7 8-1.6 11.4-3.9 5.7-3.9 5.9-11.1 1.1-15.8-7.5-7.4-20.4-3.5-29.5-2.5-24.6 2.7-49.4 4.1-74.2 4-13.6 0-27.2-.5-40.8-1.4-12.1-.7-24.4-1.3-35.8 3.3-.9.4-1.6 1.7-.7 2.5 14.4 12.5 37.4 28.6 57.5 21.6 1.8-.4 1.1-3.3-.8-2.7zM903.4 1074.3c-.9-5.7 7.2-4.8 10.4-3.7 2.5.8 4.9 1.8 7.5 2.1 6.2.8 12.3-1.3 18.1-3.2 5.6-1.9 11.5-4 17.5-3.4 7.2.7 13 6.6 11.9 14.2-1.2 7.9-9.3 11.6-16.5 9.4-4.9-1.5-9.2-4.6-14.3-5.4-10.8-1.6-22.1 7.8-32.5 2.8-1.7-.8-3.3 1.7-1.5 2.6 6.2 3 12.4 1.6 18.7-.2 4-1.1 8.2-2.5 12.4-2.4 4.9.1 8.9 2.5 13.2 4.3 6.1 2.6 12.5 3.1 17.9-1.3 4.6-3.7 6.6-9.6 5.2-15.3-4.2-16.5-23.2-11.4-34.6-7.6-5.4 1.8-11.1 3.5-16.9 2.3-3.7-.8-7.2-3.1-11.2-3-4.8.1-9.1 3.6-8.3 8.6.4 1.9 3.3 1.1 3-.8zM788.1 1041c4.8-4.5 11.4-6.4 17.9-5 2.7.6 10.2 2.6 5.5 6.2-2.5 1.9-8 1.7-11 1.7-1.9 0-1.9 3 0 3 4.4 0 12.1-.2 15.4-3.7 2.8-3-.4-6.3-3.1-7.8-8.6-5-19.7-3.1-26.8 3.5-1.4 1.3.7 3.4 2.1 2.1zM732.5 1107.3c-.8-.3-1.5-.6-2.3-.9l-.3 2.4c6.1-4.4 13-1.2 19.5.3 5.5 1.3 10.3.7 15.7-.6 6.7-1.6 13.5-2.6 20.4-3 3.2-.2 6.4-.3 9.6-.4 3-.1 10.5-1.6 7.9 3.5-3.1 6.1-12.1 6.3-17.6 4.5-4.7-1.5-9.1-3.7-14.1-2.5-5.2 1.2-9.6 4.5-15 5.6-7.2 1.5-14.3.8-21.2-1.7-1.8-.6-2.6 2.2-.8 2.9 6.8 2.4 13.9 3.2 21.1 2 8.1-1.4 15.3-7.7 23.7-5.4 6 1.7 10.9 4.4 17.3 2.5 4.1-1.2 9.9-4.8 10.7-9.4 1-5.4-5.7-5.2-9.2-5.1-8.1.2-16.3.6-24.4 1.8-4.4.7-8.6 1.9-12.9 2.7-5.3 1-9.6 0-14.7-1.4-6-1.7-12.2-2.7-17.6 1.1-.8.6-1 1.6-.3 2.4 1.5 1.7 3.1 2.1 5.2 1.7 2-.4 1.2-3.3-.7-3zM1145.5 1050c5.8-2.4 11.9-3.7 18.2-3.6 6.5.1 12 2.6 18.2 4 9.1 2.2 15.9-3.4 23.3-7.7 11.7-6.9 23.3-2.4 35.5.1 8.7 1.8 18 2.1 25.5-3.2 1.6-1.1.1-3.7-1.5-2.6-9.4 6.8-21 3.5-31.3 1-9.7-2.3-19.3-3.6-28.4 1.4-4 2.2-7.7 5.1-11.9 7-6.4 2.9-11.6.6-17.8-1.2-10.1-2.9-20.8-2.1-30.5 1.9-1.9.7-1.1 3.6.7 2.9z"/></g><g id="girl_hand_l"><path class="st4" d="M450.2 557.6c8.9-3.4 24.5 14.9 32.2 26.9 11.8 18.1 13.7 33.9 19.5 70.5 2.2 14.2 5.8 36.7 10.7 65.1 8.8 8.6 12.1 17 13.4 22.2 1.8 6.7 2.3 15.3 0 16.1-2.5.9-6.9-7.5-8.7-6.7-2.4 1.1 5.4 14.6.7 20.8-4.8 6.3-22.8 5.3-32.2-4-8.8-8.7-5.3-19.8-6.7-46.3-.5-9-1.9-33.5-9.4-57.7-9.2-29.5-18.8-31-24.2-57.1-3.8-18.4-4.9-46.1 4.7-49.8z"/><path class="st5" d="M463.4 583.4c5.5-1.2 15.1 23.7 15.7 25.1 8.8 23 4.6 32.8 8.5 66.7 3.2 27.6 5 43.3 13.9 62.7 8.6 18.6 18.6 29.5 14.8 34.5-3.8 5.1-18.7.2-30.4-4.5-1.1-2.5-2.7-6.4-4-11.2-3.3-11.7-3.1-21-3.1-25.5 0-2.5-.1-31.5-5.8-56.8-3.1-13.5-4.5-11.5-8.1-25.5-7.9-30.4-7.6-64.2-1.5-65.5z"/><path class="st6" d="M476.9 631.8c1.1 10.4 2.5 25.9 3.1 44.8.9 29.1-.5 53.3-1.3 53.3-.7 0 .2-17.4-3.6-41.2-2.5-15.8-6.2-28.6-9-37.1 1.9-1.9 4.2-4.5 6.3-8.1 2.6-4.6 3.9-8.8 4.5-11.7z"/></g><g id="girl_leg_l"><path class="st1" d="M470 986.5c-2.6 4.8-3 10 3 55.3.7 5.6 1.4 10.2 1.8 13.4 15.3 2.4 36.9 4.3 62.5 1.8 15.5-1.5 33.6-3.2 34.6-9.1.8-4.8-9.7-13.4-57.7-29.8-2.2-16-4.5-32-6.7-48-28.1 1.9-35.4 12.7-37.5 16.4z"/><path class="st4" d="M409.7 701.4c9.4 12.8 22.8 31.2 38.5 53.7 37.2 53.2 55.8 79.8 62.3 97.6 19.2 52.7 14.2 103.9 12.3 121.3-1.1 10-2.5 18.2-3.6 23.8-7.6 2.9-18.5 6.1-31.8 7.2-11.9 1-22.1-.1-29.6-1.4-2.3-13.6-4.2-28.9-5.1-45.5-1.3-24.7-.1-46.8 2.2-65.7-25.7-19.7-42.3-40-52.4-54.1-27-38.1-34.2-71.1-38.5-92.3-6.1-29.4-1.9-37.4 2-41.6 13-13.5 41.2-3.8 43.7-3z"/><path class="st7" d="M412.6 785.8c10.3 8.7 23.7 21.6 36.7 39.3 3.6 5 18.5 26.3 31.6 60.5 18 47.4 19.5 91.6 18.7 116.6-4.4 1.6-10.6 3.3-18 3.9-9.9.7-18-1-23.2-2.6-3.2-19.5-5.6-42-5.8-67-.1-16.2.6-31.3 1.9-45.1-2.5-1.4-50.8-28.6-50.2-74.1.1-12.7 4.1-23.5 8.3-31.5z"/><path class="st5" d="M425.5 862.4c2.2-3 29.7 5.4 40.6 25.8 8.2 15.3 1.6 27.1 1.9 48.9.2 16.3 4.4 39.5 22.5 67.6-10.5-.2-21-.4-31.6-.6-2.9-18.6-5.2-39.8-5.8-63.1-.5-18.4.1-35.4 1.3-50.9-3.9-2-8.9-5.1-14.2-9.7-5.9-5.2-16.3-15.8-14.7-18z"/></g><g id="girl_leg_r"><path class="st1" d="M293.3 978.6c-7.6 4.9-8.9 11.7-15.8 26.7-4.8 10.4-12 24.3-23.1 40.1 6.3 7.1 16.8 17 32.2 24.3 21.1 10 50.7 14.8 55.3 6.1 4.9-9.4-20.8-31.7-28.5-38.3 2.1-4.7 5.5-12.2 9.7-21.3 11.1-23.8 13.3-27.3 11.5-31.6-4.2-10.2-27.5-14.8-41.3-6z"/><path class="st4" d="M325.4 678.8c-6 16.5-12.1 33-18.1 49.4-9.9 28.6-5.6 48.4-2.4 57.9 3.5 10.5 9.6 19.5 21.7 37.4 9.4 13.8 17.9 24.9 24.1 32.6-12.4 12.9-26.5 29.6-39.8 50.6-17.9 28.4-28.5 55.1-35 76 5.9 4.5 14.8 10.2 26.5 14.5 13.1 4.8 24.7 5.9 32.6 6 13.9-10.7 32.9-27.4 50.6-51.9 13.9-19.1 32.6-44.8 38.6-80.8 10.2-61.3-23.1-111.2-35-129-21.5-32.3-47.3-51.9-63.8-62.7z"/><path class="st8" d="M367.5 714.8c7.7 10.7 15.3 21.5 22.6 32.4.9-.5 1.7-1 2.6-1.5-6.5-8.7-12.3-18-17.3-27.7l-2.1 2.1c4.1 2.8 6.4 7 8.9 11.1 2.9 4.8 5.9 9.6 8.8 14.4 5.7 9.3 11.4 18.7 17.1 28 .9-.5 1.7-1 2.6-1.5-8.7-13.6-17.4-27.2-26.2-40.8-1-1.6-3.6-.1-2.6 1.5 10.8 18 21.7 35.9 32.5 53.9 1 1.7 3.6.2 2.6-1.5-7.9-13.4-15.7-26.9-23.6-40.3l-2.4 1.8c11.3 12.5 13.3 30.7 25.6 42.4 1.4 1.3 3.5-.8 2.1-2.1-12.3-11.6-14.3-29.9-25.6-42.4-1.2-1.3-3.2.4-2.4 1.8 7.9 13.4 15.7 26.9 23.6 40.3.9-.5 1.7-1 2.6-1.5-10.8-18-21.7-35.9-32.5-53.9-.9.5-1.7 1-2.6 1.5 8.7 13.6 17.4 27.2 26.2 40.8 1 1.6 3.6.1 2.6-1.5-6.4-10.5-12.8-21-19.2-31.4-4.7-7.8-9-17.9-16.8-23.2-1.3-.9-2.7.8-2.1 2.1 5 9.7 10.7 18.9 17.3 27.7 1.1 1.5 3.7.1 2.6-1.5-7.3-11-14.8-21.8-22.6-32.4-.8-1.7-3.4-.2-2.3 1.4z"/><path class="st9" d="M373.8 719.2c-5.2 7.5-12.4 19.9-15.5 36.2-9.5 49.4 30.5 71.3 21.6 114.6-4.7 22.8-16.6 20.7-43.2 68.1-13.5 24.1-22.1 45.3-27.2 59.7-6.5-2-13.6-4.6-21.1-8-4.4-2-8.5-4-12.2-6.1 5.9-18.4 14.8-40.6 28.2-64.4 15.2-26.9 31.9-47.9 46-63.4-3.9-5-9.7-12.6-16.4-22.1-18.5-26.2-27.9-39.6-31-55-3.5-17-.6-31.5 1.4-41.3 3-14.8 8.1-26.4 12.2-34.3 19 5.3 38.1 10.7 57.2 16z"/><path class="st6" d="M350.3 713.1c-11.3 12.9-26.1 34.1-24.9 59.7 1.8 40.1 41.4 55.4 35.7 88.3-1.6 9.1-14.2 23.7-39.5 52.6-13.9 15.9-25.7 28.6-33.8 37.1 6.2-15.2 15.2-33.4 28.2-52.6 11.5-17 23.3-30.6 33.8-41.3-3.1-4.7-8.6-13.1-15.5-23.5-24.1-36.2-28.8-41.9-31.5-54.5-3.2-14.8-1.1-27.3.5-36.6 2.9-17.3 9-30.6 13.6-39 11.1 3.2 22.3 6.5 33.4 9.8z"/></g><g id="torso_girll"><path class="st2" d="M402 539.1c-14.2 8.4-41.2 26.9-61.8 60.9-26.2 43.3-26.2 85.6-25.3 102 4.9 1.6 9.9 3.2 15 4.7 34.1 10.2 67.1 17.1 98.3 21.5 2.6-8.9 5.4-17.9 8.4-27.2 4.5-13.7 9.2-26.8 14-39.3 16.6-8.6 22.4-19.7 24.3-24.3 7.7-18 .4-36.8-7.5-57.1-4.4-11.4-6.7-17.2-12.2-23.4-17.2-19.5-45.6-18.3-53.2-17.8z"/><path d="M435.7 562.8c-27.3 3.6-41.9 16-47.8 21.8-33.3 32.9-21.8 88.4-18.7 103.4 2.8 13.5 7 24.3 10.3 31.6-21.1-5.7-42.1-11.5-63.2-17.2-1.3-15.3-2.6-54.6 20.1-96.5 21.1-38.8 51.4-58.7 64.9-66.5 1.9.1 3.8.3 5.7.4 2.9 3.4 6.4 7 10.7 10.7 6.4 5.6 12.7 9.5 18 12.3z" opacity=".27" fill="#6d6c6c"/><path class="st9" d="M348.2 587.9c-2.8 14.7-5.1 36-2.1 61.2 3.6 29.6 13.1 52.5 20.5 66.9-17.2-4.4-34.5-8.8-51.7-13.1-.8-13.8-.4-34.5 6.2-58.3 7.2-26 18.8-45 27.1-56.7z"/></g><g id="boy_leg_l"><path class="st1" d="M1193.6 918.3c-6.3 14.1-5.1 27.3-4.1 33.5 19.7 8.7 37.2 12.7 50.6 14.7 4.4.7 58.8 8.4 64.1-6.5 1.3-3.7-.8-7.5-2.9-11.2-11.7-20.5-41.3-21.7-45.3-21.8-1.1-21.3-14.8-37.1-28.8-38.2-19.8-1.5-32.2 26.4-33.6 29.5z"/><path class="st4" d="M1219.6 574.3c13 18.7 30.5 47.8 43.2 86.4 20.7 62.9 17.3 115.7 15 145.6-2 26.6-7.4 64.4-22.5 108-4.1 2.6-22.2 13.4-45.1 8.5-13.6-2.9-22.8-10.1-27.2-14.1 8.1-17.8 17.9-44.6 21.6-78 4.1-36.4-.9-64.9-7.5-101.5-15-82.7-35.7-114.1-17.8-137.2 8.6-11.2 23.3-16.2 40.3-17.7z"/><path d="M1226.7 620c6.8 33.1 12.2 71.1 14.3 113.3 3.6 74.9-4.5 139.5-15 189.8-4.5.6-15.4 1.3-27-4.5-6.9-3.5-11.6-8.1-14.3-11.3 12.5-28.8 17-53.3 18.8-69.8 2.8-25.9.5-46.7-3.8-85.5-2.5-22.7-5.4-41.3-7.5-54 11.5-25.9 23-52 34.5-78z" opacity=".16" fill="#6d6c6c"/><path class="st12" d="M1204.8 669.8c8.6 22.4 21.5 65.1 17.1 119.4-4.2 52.3-22.6 91.2-34.3 111.8 19.6-56.6 20.6-91.3 17.6-112.8-.8-5.5-4.2-27.3-8.1-59.4-1.6-13.3-2.8-24.2-3.5-31.2 3.8-9.3 7.5-18.6 11.2-27.8z"/></g><g id="boy_leg_r"><path class="st1" d="M1048.9 875c-8.3 4.1-10.8 10.8-22.2 32.5-7.6 14.4-14 25.9-18.2 33.3 12.8 9.2 33.1 21.3 60.2 27.7 16 3.8 49.3 9.1 53.1 0 4.2-10.1-30-33.4-44.4-42.8 14.8-14.4 15.5-35.3 5.5-46-8.5-9.1-23.9-9.7-34-4.7z"/><path class="st4" d="M1193.9 572.2c33 29.1-5.6 126.1-37.3 203.7-13.7 33.5-35.1 82-66.6 138.7-5.5.8-22 2.4-39.6-7.1-17.7-9.5-25.4-24.4-27.7-29.3 9.2-15.9 20.3-37.3 30.9-63.4 4.2-10.3 22.3-56.3 32.5-121.3 4-25.7 7.6-59.6 7.1-99.9 5.9-6 38.8-38.3 77.7-30.9 5.9 1.1 15.6 3 23 9.5z"/><path class="st8" d="M1204.6 612.2c-.1 3.5-.2 7-.2 10.5h3c-.5-5.6-.2-10.9.9-16.4-1-.1-2-.3-2.9-.4.6 11.8-2.1 24.2-4.2 35.8-2.1 11.7-4.9 23.3-8.2 34.7 1 .3 1.9.5 2.9.8 5.5-20.8 10.1-41.7 13.9-62.9.3-1.9-2.6-2.7-2.9-.8-3.8 21.1-8.4 42.1-13.9 62.9-.5 1.9 2.4 2.7 2.9.8 3.5-12 6.3-24.3 8.5-36.6 2-11.2 4.6-23.3 4-34.7-.1-1.6-2.6-2.1-2.9-.4-1.2 5.7-1.5 11.4-1 17.2.2 1.9 3 2 3 0 .1-3.5.2-7 .2-10.5 0-1.9-3-1.9-3.1 0z"/><path class="st8" d="M1191.9 670.1c.1 7.7.3 15.4.4 23.1 0 1.9 3 1.9 3 0-.1-7.7-.3-15.4-.4-23.1-.1-2-3.1-2-3 0z"/><path class="st7" d="M1150.3 603.3c.3 20.1-.8 47.5-6.7 79.3-6.3 33.7-15.9 59.8-29.9 99.1-11.4 32.2-16.9 41.8-28.5 77.5-7.1 21.7-12.1 39.9-15.3 52.1-5.5-.7-16.9-3-28.3-11.5-10.6-7.9-16-17.3-18.4-22.2 18.4-32.3 30.1-60.6 37.5-81.2 22.9-63.7 28.3-119.1 31.4-153.2 1.3-14.2 2-26 2.3-33.7 18.6-2.1 37.3-4.1 55.9-6.2z"/><path d="M1140 606.2c-7.8 34.3-16.8 61.3-23.9 80.2-5.8 15.6-14.7 36.6-32.4 78.5-6.5 15.5-9.8 23.2-11.4 26.7-9.8 22-25.5 52.9-50.6 89.3 22.5-40.4 48.3-98 62-170.6 6.9-36.6 9.4-70 9.7-98.9-.1-.1-.1-.1 46.6-5.2z" opacity=".24" fill="#6d6c6c"/></g><g id="boy_torso"><path class="st3" d="M1171.6 360.3c1.6 3.9 4.4 9.6 9.5 15.4 3.7 4.2 8.4 9.6 15.4 11.7 13.6 4.2 26.8-6.6 28.6-8.1 13.2 7.8 26.4 15.6 39.5 23.4 1.2 16.3 1.3 40.9-5.1 69.6-6.1 27.3-12 30.6-16.8 57.1-7.3 39.8-1.9 75.3-3.7 75.4-.3 0-.7-.8-1.5-5.1L1083 611.4c-1.5-30.9-1.3-56.9-.7-76.1.8-30 3.2-66.3 13.2-108.4 7.1-30.1 12.7-40.3 21.2-48.3 18.4-17.5 43.6-18.6 54.9-18.3z"/><path d="M1231.2 382.9c-1.7 18.3-4.9 45.5-11 78.1-1.8 9.8-6.9 36.8-11 50-5 16.2-24.5 62.5-119.9 100.1 29.1-3.4 59.1-6.4 89.8-8.9 19.2-1.6 38.2-3 56.9-4.1 6.6-23.5 12.7-50.1 17.1-79.5 6.7-44.5 8-84.7 6.9-118.6l-28.8-17.1z" opacity=".3" fill="#32198e"/></g><g id="boy_head"><path class="st4" d="M1190 300.1c-3.5 17.9-5.1 37.7-19.6 59.6-2 3-3.7 5.3-4.9 6.8 1.2 2.4 13.9 27 40.9 30.7 15.4 2.1 27.5-3.8 32.1-6.3-.7-6-1.1-13.2-.5-21.3.8-11.9 3.3-21.8 5.8-29.3 11.6-1.5 23.1-3 34.7-4.5 2.3-5.1 4.5-10.2 6.8-15.4 3.2-.1 6.3-.2 9.5-.3-2.4-7-6-18.1-10.2-31.8-7.8-25.8-7.7-29.5-11.9-35.3-11.6-15.9-37.6-26-54.7-17.5-16.5 8.1-21.5 31.2-28 64.6z"/><path class="st1" d="M1294.3 318.7c-5.7.1-11.3-.3-16.9-1.1-1.9-.3-2.7 2.6-.8 2.9 5.9.9 11.7 1.3 17.7 1.2 2 0 2-3 0-3zM1298.3 272.8c-5.1-2.8-11.2-1.2-14.5 3.5-1.1 1.6 1.5 3.1 2.6 1.5 2.3-3.3 6.9-4.3 10.4-2.4 1.7.9 3.2-1.7 1.5-2.6zM1295.7 290.8c.5-2.3.4-4.6-.7-6.7-.8-1.5-2.5-3.3-4.4-2.5-2 .8-1.9 3.6-1.5 5.3.4 2.1 1.5 4 3.1 5.4.9.8 2.6.3 2.6-1.1 0-2.5-.6-4.7-1.7-7-.8-1.7-3.4-.2-2.6 1.5.8 1.7 1.2 3.5 1.3 5.4.9-.4 1.7-.7 2.6-1.1-1.7-1.4-2.3-3.2-2.4-5.3.1-.2 0-.4-.3-.4.2.1.4.3.5.5.3.4.6 1 .7 1.5.4 1.2.4 2.3.1 3.5-.7 2.1 2.2 2.9 2.7 1zM1269.3 276.8c-5.8-1.9-11.9.5-15.3 5.5-1.1 1.6 1.5 3.1 2.6 1.5 2.6-3.9 7.4-5.5 11.9-4.1 1.8.5 2.6-2.3.8-2.9zM1270.9 293.5c.2-2.7-.9-6.9-3.7-8-3.7-1.5-3.7 3.7-3.3 5.9.5 2.2 2.3 6.3 5.3 4.6 1.2-.7 1.4-2 1-3.2-.7-1.9-1.8-3.6-2.6-5.4l-2.4 1.8c.4.4.7.8.8 1.4.5 1.9 3.4 1.1 2.9-.8-.3-1.1-.8-1.9-1.6-2.7-1.3-1.2-3.1.3-2.4 1.8.4.7.7 1.4 1.1 2.2.3.6.6 1.7 1.1 2.2.2.7.4.7.7 0-.1-.2-.3-.5-.4-.7-.3-.6-.5-1.2-.6-1.9-.1-.6 0-1.4-.2-2 .1-.4 0-.5-.1 0 .2.3.5.6.6.9.7 1.2.9 2.6.8 4-.2 1.8 2.8 1.8 3-.1z"/><path class="st2" d="M1276.7 259.4c-.8-5.3-2.9-13.9-8.5-22.8-2-3.1-6.3-9.8-13.1-14.3-13-8.6-33-7.9-47.6 2.6-14.2 10.3-21.3 28.8-18.2 47.1 29.2-4.2 58.3-8.4 87.4-12.6z"/><path class="st1" d="M1324.5 249.8c-44.9 5.7-89.7 11.4-134.6 17.1-5.7.7-5.7 9.7 0 9 44.9-5.7 89.7-11.4 134.6-17.1 5.6-.7 5.7-9.7 0-9z"/><path d="M1218.4 270.8c7.9 2.9 12.5 8.4 17.9 15 11.3 13.8 7.9 18.9 15.9 27.5 12.6 13.7 25.4 5.6 36.7 19 9.6 11.4 8.3 26.8 7.9 30.2-.4 3.4-2.1 17.1-13.2 26.5-9.6 8.1-22.7 10-23.5 8.2-.3-.7.8-2.3 7.9-7.1-2.1 1.5-5.3 3.3-9.6 4.1-4.9.9-9.5 0-9.6-.7 0-.5 2.6-.5 4.6-2.7 1.2-1.3 1.7-2.8 2-4.1-3.9 2.6-8.9 4.8-13.6 3.4-12.8-3.9-15.1-32.6-15.9-42.1-2.4-30.8 6.4-47.6-4.3-58.4-.9-.9-5.2-5.3-9.9-4.4-6 1.1-10.6 10.5-8.6 16.7 1.7 5.3 7.7 6.8 7.3 7.8-.6 1.3-10.7-.7-19.2-7.5-3.1-2.5-5.6-4.5-6.9-8.2-2.3-6.4.4-13.7 4-18 7.5-9 21.5-8.4 30.1-5.2z" fill="#161616" stroke="#161616" stroke-width="2" stroke-miterlimit="10"/><path class="st12" d="M1206.5 310.5c1.9.2 4.6.3 4.8-.4.1-.3-.6-.8-.6-.8s2.3 2.9 5.1 3.3c1.4.2 2.5-.3 3.3-.7-5.1 10.7-10.3 23.7-14.6 38.7-4.5 15.5-7 29.7-8.3 41.8-4.4-1.4-12.4-4.6-19.8-11.8-5.4-5.2-8.5-10.7-10.3-14.4 6-9 9.5-16.9 11.6-22.3 1.9-5 2.6-8.3 6-19.7 2.8-9.2 5-16.8 6.5-22 .8.7 2 1.8 3.6 2.9 2.3 1.6 6.8 4.7 12.7 5.4z"/><path d="M1238.8 216.9c-11.7 2.3-20.4 11.7-21.7 22.8-1.6 13.2 8.1 22.2 9 23-12.4 1.5-24.8 3.1-37.2 4.6-.2-2.9-.3-6.9.4-11.5 2.4-14.8 11-23.9 12.8-25.8 2.9-3 13.1-12.7 28.2-13.6 3.5-.2 6.4.2 8.5.5z" fill="#b74949"/></g><g id="boy_hand_l"><path class="st4" d="M1261.6 401.7c8-1.2 16.2 12.7 20 19.1 22 37.4 12.8 80.6 10 93.2-2.2 9.9-6.3 27.4-19.1 46.7-12.2 18.6-26.6 30.1-35.8 36.4-15.4 5.9-43.4 14-77.1 8.5-11.7-1.9-21.9-5.1-30.4-8.5-14.4.9-28.8 1.7-43.2 2.6-2.3-.4-5.5-1-9.3-2.4-4.6-1.7-9-3.4-9-5 0-1.8 5-4.6 29.4-8.4-1.2.2-17.2 3.3-27.9-7.9-10-10.4-10.6-28.2-3-35.2 6.4-5.9 16.8-3.3 35.8 1.8 18.8 5 33.9 11.8 44.9 17.6 4.2 1.9 36.9 16 66.8-1.2 22.8-13.1 30.4-36.6 32.2-43.1 7.2-25.8-5.9-34.9-1.2-72.2.6-6.4 4.9-40.3 16.9-42z"/><path class="st1" d="M1062.4 563.1c11.6.9 22.7 3.7 33.3 8.5 1.7.8 3.3-1.8 1.5-2.6-11.1-5.1-22.7-8.1-34.8-9-1.9 0-1.9 3 0 3.1zM1061.7 550.9c13.3-.4 24.6 7.7 37 11.5 1.8.6 2.6-2.3.8-2.9-12.6-3.9-24.1-12-37.8-11.6-1.9.1-2 3.1 0 3zM1074.5 540.3c10.9.9 20.5 6.1 29.9 11.4 1.7.9 3.2-1.6 1.5-2.6-9.9-5.5-19.9-10.8-31.4-11.8-2-.2-2 2.8 0 3z"/><path class="st18" d="M1249.4 420.1c-5.9 23.7 9.8 39.7 15.1 66.8.9 4.8 8 43.7-12.8 71.3-23.2 30.8-69.2 31.9-78.2 32.2-23.5.6-32.4-6.3-69.2-4.4-3.5.2-35.5 2-35.8 6.5-.1 2.4 8.8 5.1 15.5 6 8.8 1.2 13.4-.8 24.6-1.7 4.8-.4 11.7-.7 20.2 0 10.2 4.2 23.4 8.3 39.2 9.9 4.3.4 17.7 1.6 34.9-.9 0 0 14.4-2 25.8-6 28.3-9.8 56.3-51.1 64.2-96.1 8.9-50.7-10.9-88.9-22-97.4-1.5-1.2-5.8-4.5-10.3-3.4-7.3 1.6-10.3 13.5-11.2 17.2z"/><path class="st6" d="M1291.6 450.2c-1.6 0-1.6 19.1-6 43.1-2.7 14.6-8.2 44.3-21.5 65-23.7 36.9-72.1 45.2-90.5 47.4 15.8 2.2 40.1 2.7 63.8-9.9 51.4-27.4 56.4-93.5 57.3-105.5 1.4-20.2-1.5-40.1-3.1-40.1z"/></g><g id="magnifying_glass"><path class="st1" d="M428.1 828.6c41.4-36.8 83-73.4 124.8-109.7 78.8-68.5 158.3-136.1 238.6-202.9-6.3-18.7-14.4-51.1-9.6-90.5 1.5-12.5 14.3-104.6 98.7-152.2 7-4 103.9-56.4 194.7 1.4 59.9 38.1 90.9 107.6 83.6 175.5-10.8 100.9-100.4 145.6-105.6 148.1C988.7 629.1 911 620 853.1 575c-87 71.6-173.8 143.3-260.5 215.2-38 31.5-75.9 63-113.8 94.6-7.9-3.8-21-11.4-32.8-25.3-9.9-11.6-15.1-23.2-17.9-30.9z"/><ellipse class="st4" cx="972.4" cy="433.4" rx="158.6" ry="152"/><path class="st0" d="M985.3 289.8c-29 61.4-59.5 122.2-91.4 182.2-9 16.9-18.1 33.8-27.3 50.6-.9 1.7 1.7 3.2 2.6 1.5 32.7-59.6 64-119.9 93.8-181 8.4-17.2 16.7-34.5 25-51.9.8-1.6-1.8-3.1-2.7-1.4zM1034.2 304.7c-31.8 50.2-62 101.3-90.7 153.3-.9 1.7 1.7 3.2 2.6 1.5 28.7-52 58.9-103.1 90.7-153.3 1-1.6-1.6-3.1-2.6-1.5zM938.2 475.6c-13.2 25.7-27.3 51-42.4 75.7-1 1.7 1.6 3.2 2.6 1.5 15-24.7 29.2-50 42.4-75.7.9-1.7-1.7-3.3-2.6-1.5zM993.7 400.6c-16.8 31.6-33.5 63.2-50.3 94.8-.9 1.7 1.7 3.2 2.6 1.5 16.8-31.6 33.5-63.2 50.3-94.8.9-1.7-1.7-3.2-2.6-1.5z"/><path d="M967.7 280.9c-11.1 4-84.2 31.4-107.6 104.8-2.7 8.5-11.1 35.9-4.8 67.6 12.1 60.4 72.5 109.3 151.5 125.7-6 2-14.4 4.4-24.8 5.7-62.8 7.9-111.5-34.9-117.2-40-12.4-11.3-50.7-49.7-51.4-110.5-.1-5.3.2-65.3 45.7-108.6 26.5-25.2 57.5-34.4 70.5-38.1 15.2-4.3 28.5-5.9 38.1-6.6z" opacity=".08" fill="#6d6c6c"/></g><g id="grl_hand_r"><path class="st4" d="M382.5 589.4c7.2-.9 18-1 25.9 5.4 17 13.8 3.9 43.8 12.3 75.5 4.5 17 16.4 39.9 51 62.6 13.7 6.9 25.1 12.1 33 15.7 11.3 5.1 18.5 8 18.4 11.9-.1 3.9-7.2 6.8-12.3 8.5 6.1 5.7 9.2 12.9 7.1 18.4-1.6 4.3-6 6.4-10.9 8.8-5.6 2.8-10.3 3.4-15.7 4.1-10.1 1.3-15.1 1.9-19.7 0-7.1-3-10.3-9.6-15-19.1-2.6-5.2-5.8-13.3-7.5-23.8-11.3-5.2-27.5-14.2-43.6-29.3-6.3-5.9-64.7-61.9-46.3-110.3 2.8-6.8 8.7-17.8 23.3-28.4z"/><path class="st1" d="M471.9 787.9c2.5 5.5 6.3 10.1 11.2 13.8 1.5 1.2 3-1.4 1.5-2.6-4.4-3.3-7.8-7.7-10.1-12.7-.8-1.7-3.4-.2-2.6 1.5zM483.9 786.3c3 5.8 7.5 10.6 13 14.2 1.6 1 3.1-1.6 1.5-2.6-5.1-3.2-9.2-7.7-12-13.1-.8-1.7-3.4-.2-2.5 1.5zM496.5 779.5c2.8 5.9 7.6 10.6 13.5 13.4 1.7.8 3.3-1.8 1.5-2.6-5.5-2.6-9.8-6.8-12.4-12.3-.9-1.8-3.4-.3-2.6 1.5z"/><path class="st9" d="M385 589.6c-2.2 9.9-4.6 25.5-2.5 44.3 5.5 47.6 36.3 79 41.4 84.1 25.4 25.2 42 21.8 52.1 44.3 2.7 6 7.5 19.6 20.5 26.7 5.1 2.7 9.9 3.7 13.1 4.1-1.7 1.4-4.5 3.3-8.2 4.9-6.2 2.7-11.6 2.8-20.1 2.9-6.3.1-9.5.1-12.3-1.2-5.9-2.7-8.7-8.3-9.8-11.1-4-10.8-7.9-21.6-11.9-32.4-19.5-10-47.1-27.8-68.9-58.3-9.1-12.7-24.3-34.5-23-60.7.6-11.9 4.4-20.2 5.3-22.2 7.1-14.7 18.9-22.3 24.3-25.4z"/><path d="M356.7 643.3c.6-.2 4.4 11.8 11.9 25.8 18.3 34.6 44.7 55.8 63.6 70.6 8.6 6.7 15.9 11.7 20.5 14.8 5.6 9.4 8.8 17.5 10.7 23.4 1.6 4.9 2.5 9.3 6.2 13.9 3.8 5 8.7 7.8 12.3 9.4-2.7.1-6.8-.1-11.1-2.1-8.2-3.8-11.8-11.7-15.6-20.1-2.2-4.8-4.8-12-6.2-21.3-52.2-26.4-71.8-59.7-79.2-75.5-7.6-16.2-13.9-38.5-13.1-38.9z" opacity=".32" fill="#6d6c6c"/></g><g id="girl_head"><path class="st4" d="M439.5 498.1c-7.1 2.8-2.9 16.8-14.3 29.5-5.6 6.3-12.4 9.3-17.1 11 3 4.5 8.9 11.8 18.6 17.6 6.9 4.2 13.5 6.2 18.1 7.1 1.5-2.7 4-6.9 7.1-11.9 11.1-17.5 15.1-19.4 15.7-25.2 1.5-14.2-19-31.7-28.1-28.1z"/><path class="st1" d="M438.2 525.1c4.1 8.2 8.4 16.3 15.2 22.6 1.4 1.3 3.5-.8 2.1-2.1-6.6-6.1-10.7-14.1-14.7-22-.9-1.7-3.5-.2-2.6 1.5z"/><path class="st1" d="M435.2 519.7c4.6 9 9.6 17.9 18.4 23.4 1.5.9 3-1.1 1.8-2.4-2.9-3.1-5.9-6.2-8.7-9.3l-2.1 2.1c1.7 1.8 3.5 3.5 5.5 4.9.7.5 2.9 1.5 3.3 2.1.6 1 0 2.6-.3 3.6 1 .3 1.9.5 2.9.8.1-.5.1-1 .2-1.4.2-1.3-1.4-2.7-2.5-1.5 0-1.1-.3-2.2-1-3.1-.9.5-1.7 1-2.6 1.5l3.3 4.5 2.4-1.8c-.9-1-1.6-2-2.3-3.1-.9-1.3-3.4-.5-2.7 1.2.6 1.3.8 1.8 1.7 2.9 1.2 1.5 3.3-.6 2.1-2.1-.3-.5-.6-1-.9-1.6l-2.7 1.2c.9 1.3 1.8 2.5 2.8 3.7 1.1 1.3 3.4-.4 2.4-1.8l-3.3-4.5c-1.1-1.6-3.4-.2-2.6 1.5 1 2 3 6.7 5.7 3.7-.8-.5-1.7-1-2.5-1.5-.1.5-.1 1-.2 1.4-.3 1.9 2.4 2.7 2.9.8.7-2.4 2.4-3.5.4-5.9-.9-1.1-2.4-1.6-3.5-2.3-2.3-1.5-4.3-3.3-6.2-5.3-1.3-1.4-3.4.7-2.1 2.1l8.7 9.3 1.8-2.4c-8.3-5.2-12.9-13.8-17.3-22.3-1.1-1.7-3.7-.1-2.8 1.6z"/><path class="st4" d="M531.5 471.6c-2 8.9-6.1 22.1-15.5 35.7-16.5 23.9-38.9 34-48.5 37.7-5.5-2.1-12.7-5.8-19.5-12.1-18.6-17.3-20-41-20.2-47.1-2-.5-4.9-1.6-7.4-4-6.4-6.2-7.9-18.5-2-23.6 6.7-5.8 19.5 1.3 20.9 2 3.1 1.7 5.3 3.8 6.7 5.4 5.5-16.6 18.7-29.1 34.4-31.7 21.4-3.5 44.8 12.1 51.1 37.7z"/><path class="st1" d="M507.3 495.5c-4 9-9.9 16.7-17.5 23-1.5 1.2.6 3.3 2.1 2.1 7.9-6.4 13.9-14.3 18-23.6.8-1.8-1.8-3.3-2.6-1.5z"/><path class="st1" d="M486 511.8c-.4 3.4.8 6.7 3.1 9.2 1.3 1.4 3.4-.7 2.1-2.1-1.8-2-2.5-4.4-2.2-7.1.2-1.9-2.8-1.9-3 0zM479.9 494.7c2.6-3.6 5.7-6.8 9.2-9.7-.8-.5-1.7-1-2.5-1.5-1.3 4-4.1 7.2-7.8 9.2l1.8 2.4c2.3-2.8 4.6-5.5 6.9-8.3 1.2-1.5-.9-3.6-2.1-2.1-2.3 2.8-4.6 5.5-6.9 8.3-1.1 1.3.3 3.2 1.8 2.4 4.4-2.4 7.6-6.3 9.2-11 .5-1.6-1.4-2.3-2.5-1.5-3.7 3-6.9 6.4-9.6 10.3-1.2 1.6 1.4 3.1 2.5 1.5zM513.1 503.5c1.3-2.2 3-4.1 4.9-5.8-.8-.5-1.7-1-2.5-1.5-.9 3-2.7 5.7-5.3 7.6.7.6 1.5 1.1 2.2 1.7.6-1.6 1.5-3.1 2.6-4.4 1.2-1.5-.9-3.6-2.1-2.1-1.4 1.8-2.5 3.6-3.3 5.7-.5 1.2 1.2 2.5 2.2 1.7 3.2-2.4 5.5-5.5 6.6-9.3.5-1.5-1.4-2.4-2.5-1.5-2.1 1.8-3.9 4-5.4 6.4-1.1 1.6 1.5 3.1 2.6 1.5zM469.6 487.3c1.5 3.5 2.3 7.1 2.3 10.8 0 1 1.5 1 1.5 0 0-4-.9-7.9-2.5-11.6-.4-.9-1.7-.1-1.3.8zM465.4 484.7c1 1.6 1.7 3.2 2.3 4.9.3.9 1.7.5 1.4-.4-.6-1.9-1.4-3.6-2.4-5.3-.5-.8-1.8 0-1.3.8zM488.5 476.5c3.7-1.1 7.2 1.4 7.3 5.3 0 1.4 2.3 1.5 2.3 0-.2-5.3-5-8.9-10.2-7.5-1.4.4-.8 2.6.6 2.2zM515.3 491.2c1.6-1 3.5-1.1 5.2-.1 1.2.8 2.4-1.2 1.1-1.9-2.3-1.4-5.2-1.4-7.4.1-1.2.8-.1 2.7 1.1 1.9zM466.5 516.9c2.4 4.3 6.5 7.4 11.3 8.7 1.9.5 2.7-2.4.8-2.9-4.1-1.1-7.4-3.6-9.5-7.3-1-1.7-3.6-.2-2.6 1.5z"/><path class="st3" d="M445.9 469.6c2.2-3.8 7.5-11.9 17.7-17.5 7-3.9 13.6-5 17.6-5.4 2.2 2.9 5.8 6.7 11.1 9.1 12.5 5.7 22.6-1.8 30 3.2 3.9 2.6 7.8 8.9 6.3 26.1 6.6 6.8 11 7.2 13.4 6.7 10-2 17.2-24.5 10.9-40.9-1.9-4.9-4.4-7.7-25.6-24.6-29.9-23.8-33.6-25.2-37.5-26.1-20.6-4.8-38.8 5.6-41.9 7.4-4 2.3-4.9 3.4-27.8 27.5-17.8 18.7-19.5 20.4-21.1 25-4.2 11.6-3.4 28.4 7.3 40.7 10.1 11.5 23.7 13.2 27.2 13.6-1.5-3.4-3.1-8.2-3.9-14.1-1-7.6 0-13.9.9-18-.7-.5-4.7-3.8-5-9.4-.2-4.1 1.7-9.3 6.1-11 4.9-1.9 11.6 1 14.3 7.7z"/><path class="st3" d="M441.6 419.3c-4.1-8.1-16.1-9.3-18.2-9.5-16.7-1.7-30.1 13.2-38 21.9-14 15.5-10 20.1-23.6 38.8-18 24.8-31.5 25.9-34.3 43-.2 1.3-2.7 18.5 8.7 28.9 9.8 9 25.6 9.1 36 3.7 14.1-7.3 12.9-22 23.1-46.7 20-48.2 54.2-64.5 46.3-80.1z"/><path d="M457.7 455.7c-3.2 8-7 20.7-6.8 36.6.3 25.4 10.7 44 15.9 52-5.7-2.4-15.2-7.5-23.5-17.5-3.4-4.1-11.4-13.8-13.5-28.7-1-6.7-.4-12.3.2-16.1-.6-.5-4.7-4.2-4.5-10 .1-3.8 2.1-8.9 6.4-10.4 4.8-1.7 11.4 1.4 14 8.1 1-2 2.4-4.5 4.5-7.1 2.6-3.1 5.2-5.3 7.3-6.9z" opacity=".12" fill="#6d6c6c"/><path d="M440.1 528.9c-.8 1.8-1.7 3.6-2.8 5.4-5 8.4-11.5 14-16.6 17.4-1.8-1.1-4.2-2.8-6.6-5.4-2.6-2.8-4.2-5.6-5.1-7.6 3.9-1.2 13.6-4.9 20.2-14.6 2.3-3.5 3.7-6.9 4.5-9.7 2.1 4.9 4.2 9.7 6.4 14.5z" opacity=".13" fill="#6d6c6c"/><path class="st18" d="M431.3 480.3c.5 6.9 1.8 15.9 5.2 26 4.7 13.7 11.5 23.8 16.7 30.2-5.2-4.2-11.4-10.5-16.4-19.3-3.3-5.9-8.2-14.4-7.6-26 .2-4.5 1.2-8.3 2.1-10.9z"/><path d="M446.6 410.1c-4.2 4.1-30.4 30.5-26.8 68 1.5 16 7.9 28.1 12.5 35.2-3.2-.2-9.4-.9-16.1-4.8-6.7-3.9-10.5-9-12.2-11.6-1.3-2.1-2.9-5.5-3.9-9.8 0 0-1.8-8.4 1.5-18.8 3.5-11.4 19.3-33.6 45-58.2z" opacity=".32" fill="#32198e"/><path d="M392.5 426.3c2.3 1.5-10.4 28.2-24.4 51.5-12.6 20.9-18.8 26.7-19.7 39.5-.9 13.3 4.7 24.7 9.7 32.4-2.5.2-11.9.5-20.1-6-4.5-3.6-6.9-7.8-8-10.4-2.4-7-4.5-17.2-.3-26.8 2.8-6.5 6.1-7 16.4-17.4 9.1-9.2 18.1-18.3 24.7-31.8 3.4-6.9 4.6-11.9 10.4-19.7 3.8-5.2 10-12.2 11.3-11.3z" opacity=".33" fill="#32198e"/></g></svg>